#usda 1.0
(
    defaultPrim = "Mesh"
    metersPerUnit = 1
    upAxis = "Z"
)

def Mesh "Mesh"
{
    int[] faceVertexCounts = [3, 3, 3, 3, 3, 3, 3, 3, 3, 3, 3, 3, 3, 3, 3, 3, 3, 3, 3, 3, 3, 3, 3, 3, 3, 3, 3, 3, 3, 3, 3, 3, 3, 3, 3, 3, 3, 3, 3, 3, 3, 3, 3, 3, 3, 3, 3, 3, 3, 3, 3, 3, 3, 3, 3, 3, 3, 3, 3, 3, 3, 3, 3, 3, 3, 3, 3, 3, 3, 3, 3, 3, 3, 3, 3, 3, 3, 3, 3, 3, 3, 3, 3, 3, 3, 3, 3, 3, 3, 3, 3, 3, 3, 3, 3, 3, 3, 3, 3, 3, 3, 3, 3, 3, 3, 3, 3, 3, 3, 3, 3, 3, 3, 3, 3, 3, 3, 3, 3, 3, 3, 3, 3, 3, 3, 3, 3, 3, 3, 3, 3, 3, 3, 3, 3, 3, 3, 3, 3, 3, 3, 3, 3, 3, 3, 3, 3, 3, 3, 3, 3, 3, 3, 3, 3, 3, 3, 3, 3, 3, 3, 3, 3, 3, 3, 3, 3, 3, 3, 3, 3, 3, 3, 3, 3, 3, 3, 3, 3, 3, 3, 3, 3, 3, 3, 3, 3, 3, 3, 3, 3, 3, 3, 3, 3, 3, 3, 3, 3, 3, 3, 3, 3, 3, 3, 3, 3, 3, 3, 3, 3, 3, 3, 3, 3, 3, 3, 3, 3, 3, 3, 3, 3, 3, 3, 3, 3, 3, 3, 3, 3, 3, 3, 3, 3, 3, 3, 3, 3, 3, 3, 3, 3, 3, 3, 3, 3, 3, 3, 3, 3, 3, 3, 3, 3, 3, 3, 3, 3, 3, 3, 3, 3, 3, 3, 3, 3, 3, 3, 3, 3, 3, 3, 3, 3, 3, 3, 3, 3, 3, 3, 3, 3, 3, 3, 3, 3, 3, 3, 3, 3, 3, 3, 3, 3, 3, 3, 3, 3, 3, 3, 3, 3, 3, 3, 3, 3, 3, 3, 3, 3, 3, 3, 3, 3, 3, 3, 3, 3, 3, 3, 3, 3, 3, 3, 3, 3, 3, 3, 3, 3, 3, 3, 3, 3, 3, 3, 3, 3, 3, 3, 3, 3, 3, 3, 3, 3, 3, 3, 3, 3, 3, 3, 3, 3, 3, 3, 3, 3, 3, 3, 3, 3, 3, 3, 3, 3, 3, 3, 3, 3, 3, 3, 3, 3, 3, 3, 3, 3, 3, 3, 3, 3, 3, 3, 3, 3, 3, 3, 3, 3, 3, 3, 3, 3, 3, 3, 3, 3, 3, 3, 3, 3, 3, 3, 3, 3, 3, 3, 3, 3, 3, 3, 3, 3, 3, 3, 3, 3, 3, 3, 3, 3, 3, 3, 3, 3, 3, 3, 3, 3, 3, 3, 3, 3, 3, 3, 3, 3, 3, 3, 3, 3, 3, 3, 3, 3, 3, 3, 3, 3, 3, 3, 3, 3, 3, 3, 3, 3, 3, 3, 3, 3, 3, 3, 3, 3, 3, 3, 3, 3, 3, 3, 3, 3, 3, 3, 3, 3, 3, 3, 3, 3, 3, 3, 3, 3, 3, 3, 3, 3, 3, 3, 3, 3, 3, 3, 3, 3, 3, 3, 3, 3, 3, 3, 3, 3, 3, 3, 3, 3, 3, 3, 3, 3, 3, 3, 3, 3, 3, 3, 3, 3, 3, 3, 3, 3, 3, 3, 3, 3, 3, 3, 3, 3, 3, 3, 3, 3, 3, 3, 3, 3, 3, 3, 3, 3, 3, 3, 3, 3, 3, 3, 3, 3, 3, 3, 3, 3, 3, 3, 3, 3, 3, 3, 3, 3, 3, 3, 3, 3, 3, 3, 3, 3, 3, 3, 3, 3, 3, 3, 3, 3, 3, 3, 3, 3, 3, 3, 3, 3, 3, 3, 3, 3, 3, 3, 3, 3, 3, 3, 3, 3, 3, 3, 3, 3, 3, 3, 3, 3, 3, 3, 3, 3, 3, 3, 3, 3, 3, 3, 3, 3, 3, 3, 3, 3, 3, 3, 3, 3, 3, 3, 3, 3, 3, 3, 3, 3, 3, 3, 3, 3, 3, 3, 3, 3, 3, 3, 3, 3, 3, 3, 3, 3, 3, 3, 3, 3, 3, 3, 3, 3, 3, 3, 3, 3, 3, 3, 3, 3, 3, 3, 3, 3, 3, 3, 3, 3, 3, 3, 3, 3, 3, 3, 3, 3, 3, 3, 3, 3, 3, 3, 3, 3, 3, 3, 3, 3, 3, 3, 3, 3, 3, 3, 3, 3, 3, 3, 3, 3, 3, 3, 3, 3, 3, 3, 3, 3, 3, 3, 3, 3, 3, 3, 3, 3, 3, 3, 3, 3, 3, 3, 3, 3, 3, 3, 3, 3, 3, 3, 3, 3, 3, 3, 3, 3, 3, 3, 3, 3, 3, 3, 3, 3, 3, 3, 3, 3, 3, 3, 3, 3, 3, 3, 3, 3, 3, 3, 3, 3, 3, 3, 3, 3, 3, 3, 3, 3, 3, 3, 3, 3, 3, 3, 3, 3, 3, 3, 3, 3, 3, 3, 3, 3, 3, 3, 3, 3, 3, 3, 3, 3, 3, 3, 3, 3, 3, 3, 3, 3, 3, 3, 3, 3, 3, 3, 3, 3, 3, 3, 3, 3, 3, 3, 3, 3, 3, 3, 3, 3, 3, 3, 3, 3, 3, 3, 3, 3, 3, 3, 3, 3, 3, 3, 3, 3, 3, 3, 3, 3, 3, 3, 3, 3, 3, 3, 3, 3, 3, 3, 3, 3, 3, 3, 3, 3, 3, 3, 3, 3, 3, 3, 3, 3, 3, 3, 3, 3, 3, 3, 3, 3, 3, 3, 3, 3, 3, 3, 3, 3, 3, 3, 3, 3, 3, 3, 3, 3, 3, 3, 3, 3, 3, 3, 3, 3, 3, 3, 3, 3, 3, 3, 3, 3, 3, 3, 3, 3, 3, 3, 3, 3, 3, 3, 3, 3, 3, 3, 3, 3, 3, 3, 3, 3, 3, 3, 3, 3, 3, 3, 3, 3, 3, 3, 3, 3, 3, 3, 3, 3, 3, 3, 3, 3, 3, 3, 3, 3, 3, 3, 3, 3, 3, 3, 3, 3, 3, 3, 3, 3, 3, 3, 3, 3, 3, 3, 3, 3, 3, 3, 3, 3, 3, 3, 3, 3, 3, 3, 3, 3, 3, 3, 3, 3, 3, 3, 3, 3, 3, 3, 3, 3, 3, 3, 3, 3, 3, 3, 3, 3, 3, 3, 3, 3, 3, 3, 3, 3, 3, 3, 3, 3, 3, 3, 3, 3, 3, 3, 3, 3, 3, 3, 3, 3, 3, 3, 3, 3, 3, 3, 3, 3, 3, 3, 3, 3, 3, 3, 3, 3, 3, 3, 3, 3, 3, 3, 3, 3, 3, 3, 3, 3, 3, 3, 3, 3, 3, 3, 3, 3, 3, 3, 3, 3, 3, 3, 3, 3, 3, 3, 3, 3, 3, 3, 3, 3, 3, 3, 3, 3, 3, 3, 3, 3, 3, 3, 3, 3, 3, 3, 3, 3, 3, 3, 3, 3, 3, 3, 3, 3, 3, 3, 3, 3, 3, 3, 3, 3, 3, 3, 3, 3, 3, 3, 3, 3, 3, 3, 3, 3, 3, 3, 3, 3, 3, 3, 3, 3, 3, 3, 3, 3, 3, 3, 3, 3, 3, 3, 3, 3, 3, 3, 3, 3, 3, 3, 3, 3, 3, 3, 3, 3, 3, 3, 3, 3, 3, 3, 3, 3, 3, 3, 3, 3, 3, 3, 3, 3, 3, 3, 3, 3, 3, 3, 3, 3, 3, 3, 3, 3, 3, 3, 3, 3, 3, 3, 3, 3, 3, 3, 3, 3, 3, 3, 3, 3, 3, 3, 3, 3, 3, 3, 3, 3, 3, 3, 3, 3, 3, 3, 3, 3, 3, 3, 3, 3, 3, 3, 3, 3, 3, 3, 3, 3, 3, 3, 3, 3, 3, 3, 3, 3, 3, 3, 3, 3, 3, 3, 3, 3, 3, 3, 3, 3, 3, 3, 3, 3, 3, 3, 3, 3, 3, 3, 3, 3, 3, 3, 3, 3, 3, 3, 3, 3, 3, 3, 3, 3, 3, 3, 3, 3, 3, 3, 3, 3, 3, 3, 3, 3, 3, 3, 3, 3, 3, 3, 3, 3, 3, 3, 3, 3, 3, 3, 3, 3, 3, 3, 3, 3, 3, 3, 3, 3, 3, 3, 3, 3, 3, 3, 3, 3, 3, 3, 3, 3, 3, 3, 3, 3, 3, 3, 3, 3, 3, 3, 3, 3, 3, 3, 3, 3, 3, 3, 3, 3, 3, 3, 3, 3, 3, 3, 3, 3, 3, 3, 3, 3, 3, 3, 3, 3, 3, 3, 3, 3, 3, 3, 3, 3, 3, 3, 3, 3, 3, 3, 3, 3, 3, 3, 3, 3, 3, 3, 3, 3, 3, 3, 3, 3, 3, 3, 3, 3, 3, 3, 3, 3, 3, 3, 3, 3, 3, 3, 3, 3, 3, 3, 3, 3, 3, 3, 3, 3, 3, 3, 3, 3, 3, 3, 3, 3, 3, 3, 3, 3, 3, 3, 3, 3, 3, 3, 3, 3, 3, 3, 3, 3, 3, 3, 3, 3, 3, 3, 3, 3, 3, 3, 3, 3, 3, 3, 3, 3, 3, 3, 3, 3, 3, 3, 3, 3, 3, 3, 3, 3, 3, 3, 3, 3, 3, 3, 3, 3, 3, 3, 3, 3, 3, 3, 3, 3, 3, 3, 3, 3, 3, 3, 3, 3, 3, 3, 3, 3, 3, 3, 3, 3, 3, 3, 3, 3, 3, 3, 3, 3, 3, 3, 3, 3, 3, 3, 3, 3, 3, 3, 3, 3, 3, 3, 3, 3, 3, 3, 3, 3, 3, 3, 3, 3, 3, 3, 3, 3, 3, 3, 3, 3, 3, 3, 3, 3, 3, 3, 3, 3, 3, 3, 3, 3, 3, 3, 3, 3, 3, 3, 3, 3, 3, 3, 3, 3, 3, 3, 3, 3, 3, 3, 3, 3, 3, 3, 3, 3, 3, 3, 3, 3, 3, 3, 3, 3, 3, 3, 3, 3, 3, 3, 3, 3, 3, 3, 3, 3, 3, 3, 3, 3, 3, 3, 3, 3, 3, 3, 3, 3, 3, 3, 3, 3, 3, 3, 3, 3, 3, 3, 3, 3, 3, 3, 3, 3, 3, 3, 3, 3, 3, 3, 3, 3, 3, 3, 3, 3, 3, 3, 3, 3, 3, 3, 3, 3, 3, 3, 3, 3, 3, 3, 3, 3, 3, 3, 3, 3, 3, 3, 3, 3, 3, 3, 3, 3, 3, 3, 3, 3, 3, 3, 3, 3, 3, 3, 3, 3, 3, 3, 3, 3, 3, 3, 3, 3, 3, 3, 3, 3, 3, 3, 3, 3, 3, 3, 3, 3, 3, 3, 3, 3, 3, 3, 3, 3, 3, 3, 3, 3, 3, 3, 3, 3, 3, 3, 3, 3, 3, 3, 3, 3, 3, 3, 3, 3, 3, 3, 3, 3, 3, 3, 3, 3, 3, 3, 3, 3, 3, 3, 3, 3, 3, 3, 3, 3, 3, 3, 3, 3, 3, 3, 3, 3, 3, 3, 3, 3, 3, 3, 3, 3, 3, 3, 3, 3, 3, 3, 3, 3, 3, 3, 3, 3, 3, 3, 3, 3, 3, 3, 3, 3, 3, 3, 3, 3, 3, 3, 3, 3, 3, 3, 3, 3, 3, 3, 3, 3, 3, 3, 3, 3, 3, 3, 3, 3, 3, 3, 3, 3, 3, 3, 3, 3, 3, 3, 3, 3, 3, 3, 3, 3, 3, 3, 3, 3, 3, 3, 3, 3, 3, 3, 3, 3, 3, 3, 3, 3, 3, 3, 3, 3, 3, 3, 3, 3, 3, 3, 3, 3, 3]
    int[] faceVertexIndices = [751, 194, 503, 503, 194, 108, 201, 202, 205, 202, 203, 205, 202, 204, 203, 203, 204, 206, 204, 207, 206, 206, 207, 216, 209, 210, 211, 209, 208, 210, 199, 200, 208, 199, 201, 200, 201, 205, 200, 208, 200, 241, 241, 200, 242, 200, 205, 242, 205, 203, 242, 242, 203, 243, 203, 206, 243, 206, 216, 246, 243, 206, 246, 259, 241, 262, 241, 242, 262, 242, 243, 262, 243, 246, 268, 229, 231, 222, 231, 223, 222, 223, 232, 227, 231, 232, 223, 227, 233, 226, 232, 233, 227, 220, 229, 221, 229, 222, 221, 225, 212, 224, 225, 220, 212, 220, 221, 199, 221, 201, 199, 221, 222, 201, 201, 222, 202, 222, 223, 202, 223, 227, 204, 204, 227, 226, 207, 226, 234, 226, 238, 234, 238, 239, 237, 224, 214, 217, 224, 212, 214, 212, 220, 209, 220, 199, 209, 238, 237, 234, 217, 214, 215, 207, 234, 216, 234, 237, 236, 218, 217, 215, 219, 217, 218, 215, 214, 213, 214, 212, 213, 213, 212, 211, 212, 209, 211, 216, 234, 235, 234, 236, 235, 245, 215, 213, 213, 211, 240, 211, 210, 240, 208, 241, 210, 216, 235, 248, 235, 236, 248, 249, 218, 245, 218, 215, 245, 245, 213, 240, 240, 210, 244, 244, 210, 241, 216, 247, 246, 247, 216, 248, 248, 236, 250, 249, 245, 258, 248, 250, 266, 245, 240, 258, 258, 240, 261, 240, 244, 261, 244, 260, 261, 244, 259, 260, 244, 241, 259, 247, 248, 270, 259, 262, 267, 262, 268, 267, 262, 243, 268, 268, 246, 269, 246, 247, 269, 247, 270, 269, 270, 248, 266, 258, 271, 276, 258, 261, 271, 271, 261, 272, 261, 260, 272, 260, 259, 272, 259, 267, 277, 268, 273, 267, 268, 269, 273, 272, 259, 277, 267, 278, 277, 267, 273, 278, 278, 273, 288, 273, 269, 288, 305, 326, 232, 326, 233, 232, 302, 225, 230, 302, 299, 225, 225, 299, 298, 298, 229, 220, 298, 300, 229, 300, 301, 229, 301, 231, 229, 301, 305, 231, 226, 233, 238, 228, 230, 224, 230, 225, 224, 228, 224, 219, 224, 217, 219, 237, 239, 255, 251, 219, 218, 236, 255, 256, 237, 255, 236, 251, 218, 252, 252, 218, 249, 236, 257, 250, 236, 256, 257, 249, 258, 264, 266, 250, 279, 250, 257, 279, 264, 258, 276, 270, 266, 280, 266, 279, 280, 269, 270, 289, 289, 270, 294, 276, 271, 290, 290, 271, 285, 271, 272, 285, 285, 272, 284, 272, 277, 284, 277, 286, 284, 277, 278, 286, 286, 278, 287, 278, 288, 287, 269, 289, 288, 284, 286, 316, 327, 328, 298, 328, 329, 298, 298, 329, 300, 329, 330, 300, 330, 331, 301, 301, 331, 305, 331, 326, 305, 335, 324, 233, 302, 327, 299, 324, 306, 238, 303, 302, 230, 238, 306, 239, 306, 321, 239, 239, 321, 297, 253, 303, 228, 303, 230, 228, 228, 219, 253, 255, 297, 332, 251, 253, 219, 255, 332, 256, 256, 336, 257, 256, 338, 336, 254, 252, 249, 254, 249, 265, 265, 249, 264, 257, 336, 293, 257, 293, 279, 265, 264, 282, 264, 276, 282, 280, 279, 295, 282, 276, 290, 270, 280, 294, 280, 295, 294, 290, 314, 342, 290, 285, 314, 285, 284, 314, 284, 316, 314, 316, 286, 317, 286, 315, 317, 286, 287, 315, 287, 288, 315, 288, 289, 343, 289, 345, 343, 289, 294, 345, 315, 288, 343, 358, 335, 326, 358, 324, 335, 303, 339, 302, 339, 327, 302, 303, 253, 325, 321, 333, 297, 333, 349, 297, 296, 253, 251, 297, 349, 332, 296, 251, 274, 274, 251, 263, 251, 252, 263, 275, 263, 254, 263, 252, 254, 275, 254, 281, 281, 254, 265, 281, 265, 283, 283, 265, 282, 347, 352, 293, 283, 282, 340, 279, 341, 295, 279, 293, 341, 293, 352, 341, 282, 290, 342, 282, 342, 346, 295, 186, 294, 179, 294, 180, 345, 294, 179, 316, 317, 177, 317, 315, 177, 315, 178, 177, 315, 176, 178, 315, 343, 176, 176, 343, 179, 343, 345, 179, 368, 362, 327, 367, 368, 327, 362, 328, 327, 358, 357, 324, 357, 306, 324, 357, 356, 306, 354, 339, 303, 306, 356, 321, 354, 303, 325, 321, 369, 333, 356, 369, 321, 369, 370, 333, 325, 253, 296, 333, 370, 349, 332, 349, 372, 332, 372, 338, 292, 263, 291, 292, 274, 263, 291, 263, 275, 338, 351, 336, 336, 351, 347, 347, 351, 738, 281, 283, 313, 313, 283, 340, 340, 282, 346, 295, 341, 186, 346, 342, 159, 342, 314, 159, 159, 314, 185, 294, 186, 180, 185, 314, 177, 185, 177, 150, 150, 177, 137, 314, 316, 177, 177, 178, 137, 918, 909, 363, 909, 359, 363, 909, 910, 359, 910, 360, 359, 361, 913, 358, 913, 912, 358, 358, 912, 357, 354, 905, 339, 905, 367, 339, 355, 354, 325, 325, 296, 319, 319, 274, 292, 319, 296, 274, 291, 275, 304, 304, 275, 308, 308, 275, 281, 308, 281, 313, 347, 738, 740, 347, 740, 352, 313, 340, 348, 340, 175, 184, 341, 352, 743, 352, 740, 743, 340, 346, 175, 341, 187, 186, 341, 743, 187, 175, 346, 162, 346, 159, 162, 159, 185, 150, 180, 186, 115, 137, 119, 150, 178, 126, 137, 178, 176, 126, 126, 176, 117, 176, 118, 117, 176, 179, 118, 179, 124, 118, 909, 918, 908, 905, 876, 367, 876, 368, 367, 912, 870, 357, 870, 904, 356, 356, 903, 369, 907, 355, 371, 371, 355, 325, 364, 325, 319, 351, 734, 738, 348, 308, 313, 740, 738, 731, 348, 340, 184, 175, 162, 122, 161, 187, 743, 162, 159, 116, 186, 187, 115, 116, 159, 112, 159, 150, 112, 150, 119, 112, 179, 180, 125, 179, 125, 124, 125, 180, 115, 364, 319, 350, 350, 319, 320, 320, 292, 311, 320, 319, 292, 292, 291, 307, 737, 727, 734, 309, 291, 304, 323, 304, 308, 734, 731, 738, 323, 308, 348, 348, 184, 191, 184, 175, 123, 743, 741, 742, 175, 122, 123, 162, 116, 122, 112, 119, 79, 119, 85, 79, 119, 111, 85, 119, 137, 111, 111, 137, 126, 126, 110, 111, 126, 117, 110, 118, 124, 76, 76, 124, 125, 903, 746, 376, 906, 371, 364, 311, 292, 307, 323, 348, 353, 353, 348, 191, 731, 736, 741, 191, 184, 155, 155, 184, 127, 184, 123, 127, 743, 742, 171, 161, 743, 171, 122, 116, 86, 115, 161, 103, 116, 112, 80, 112, 79, 80, 125, 115, 84, 111, 68, 85, 68, 111, 69, 111, 110, 69, 110, 78, 69, 110, 117, 78, 117, 118, 78, 118, 77, 78, 118, 76, 77, 857, 871, 906, 375, 906, 364, 309, 307, 291, 322, 304, 323, 734, 726, 731, 322, 323, 353, 181, 191, 155, 123, 122, 75, 122, 86, 75, 103, 161, 120, 161, 171, 120, 86, 80, 62, 86, 116, 80, 84, 115, 63, 115, 103, 63, 79, 85, 66, 85, 68, 66, 125, 84, 76, 851, 796, 858, 857, 846, 871, 854, 857, 906, 746, 747, 745, 366, 375, 350, 320, 311, 337, 322, 309, 304, 197, 353, 181, 181, 353, 191, 736, 733, 742, 127, 123, 75, 171, 742, 156, 86, 62, 75, 171, 156, 120, 80, 54, 62, 63, 103, 72, 72, 103, 120, 80, 79, 54, 79, 59, 54, 60, 76, 64, 76, 84, 64, 64, 84, 63, 79, 66, 59, 66, 68, 67, 68, 69, 67, 67, 69, 65, 69, 78, 65, 77, 65, 78, 77, 76, 65, 65, 76, 60, 791, 790, 800, 911, 877, 375, 366, 320, 337, 311, 307, 310, 310, 307, 309, 318, 309, 322, 322, 353, 197, 197, 181, 182, 736, 725, 733, 155, 127, 113, 156, 742, 733, 127, 75, 113, 59, 66, 56, 56, 66, 55, 66, 67, 55, 55, 67, 57, 67, 65, 57, 65, 60, 57, 337, 311, 334, 334, 311, 310, 318, 322, 197, 182, 181, 114, 114, 181, 155, 155, 113, 114, 156, 733, 732, 113, 75, 81, 75, 62, 61, 120, 156, 100, 156, 151, 100, 72, 120, 100, 62, 54, 40, 63, 72, 48, 48, 72, 58, 54, 59, 31, 59, 39, 31, 59, 56, 39, 39, 56, 38, 56, 55, 38, 37, 55, 36, 55, 57, 36, 36, 57, 35, 57, 60, 33, 33, 60, 34, 34, 64, 46, 60, 64, 34, 64, 63, 46, 334, 366, 337, 641, 662, 661, 659, 664, 666, 664, 656, 665, 665, 656, 663, 660, 662, 663, 660, 661, 662, 310, 309, 312, 666, 664, 669, 664, 667, 669, 664, 665, 667, 665, 668, 667, 665, 663, 668, 663, 662, 668, 668, 662, 603, 312, 309, 318, 312, 318, 344, 666, 669, 598, 669, 667, 598, 667, 602, 598, 602, 667, 600, 667, 601, 600, 667, 668, 601, 668, 599, 601, 668, 603, 599, 599, 603, 593, 599, 593, 590, 182, 114, 136, 114, 113, 81, 156, 732, 151, 81, 75, 61, 61, 62, 40, 72, 100, 58, 54, 31, 40, 38, 55, 37, 57, 33, 35, 63, 48, 46, 785, 776, 791, 911, 374, 872, 374, 377, 334, 628, 629, 645, 637, 635, 641, 628, 645, 659, 645, 658, 659, 645, 629, 658, 629, 657, 658, 658, 657, 656, 657, 625, 656, 656, 625, 646, 637, 660, 646, 637, 641, 660, 641, 661, 660, 344, 318, 183, 598, 597, 583, 598, 602, 597, 602, 589, 597, 602, 600, 589, 600, 596, 589, 600, 601, 596, 601, 599, 596, 599, 590, 596, 318, 197, 183, 597, 582, 583, 597, 589, 582, 582, 589, 577, 596, 580, 589, 589, 580, 577, 580, 596, 590, 590, 585, 580, 590, 593, 585, 183, 197, 182, 183, 182, 136, 114, 109, 136, 114, 81, 109, 634, 635, 633, 373, 374, 365, 627, 624, 625, 624, 626, 625, 626, 633, 637, 365, 334, 310, 312, 344, 153, 153, 344, 183, 153, 183, 121, 583, 584, 586, 583, 581, 584, 583, 582, 581, 582, 577, 581, 581, 577, 578, 577, 579, 578, 577, 580, 579, 580, 585, 579, 183, 136, 121, 585, 588, 587, 136, 109, 121, 109, 81, 102, 81, 61, 74, 61, 52, 74, 61, 41, 52, 61, 40, 41, 48, 58, 47, 58, 100, 70, 40, 14, 17, 40, 31, 14, 31, 39, 9, 39, 38, 9, 9, 38, 8, 38, 37, 8, 773, 785, 793, 642, 639, 630, 630, 639, 631, 639, 636, 631, 636, 640, 632, 640, 634, 632, 373, 310, 194, 373, 194, 751, 373, 365, 310, 194, 310, 312, 194, 312, 153, 194, 153, 108, 153, 107, 108, 153, 121, 107, 121, 105, 107, 586, 584, 594, 581, 591, 584, 584, 591, 594, 581, 578, 591, 591, 578, 595, 579, 587, 578, 578, 587, 595, 595, 587, 592, 579, 585, 587, 587, 588, 592, 121, 109, 105, 105, 109, 102, 81, 74, 102, 128, 151, 172, 100, 151, 128, 100, 128, 70, 41, 40, 17, 47, 58, 70, 31, 9, 14, 33, 34, 12, 12, 34, 43, 34, 46, 43, 46, 44, 43, 46, 48, 44, 48, 47, 44, 37, 36, 8, 8, 36, 2, 36, 35, 2, 2, 35, 3, 35, 10, 3, 35, 33, 10, 10, 33, 12, 108, 107, 106, 107, 105, 106, 608, 586, 607, 586, 594, 607, 607, 594, 604, 594, 591, 604, 591, 605, 604, 591, 595, 605, 595, 592, 605, 605, 592, 606, 592, 609, 606, 592, 588, 609, 106, 105, 101, 105, 102, 101, 102, 74, 101, 752, 751, 502, 503, 108, 480, 108, 144, 480, 108, 106, 144, 144, 106, 131, 608, 607, 615, 607, 604, 611, 604, 612, 611, 612, 604, 614, 604, 605, 614, 614, 605, 610, 605, 606, 610, 610, 606, 613, 606, 609, 613, 106, 101, 131, 101, 74, 82, 172, 735, 173, 82, 74, 53, 128, 172, 129, 74, 52, 53, 42, 41, 16, 70, 128, 71, 41, 17, 16, 47, 70, 45, 17, 14, 16, 14, 9, 13, 13, 9, 6, 6, 9, 8, 12, 32, 15, 12, 43, 32, 8, 2, 0, 2, 3, 1, 3, 10, 5, 10, 12, 11, 144, 131, 157, 621, 615, 620, 615, 611, 620, 620, 611, 619, 611, 612, 619, 612, 618, 619, 612, 614, 618, 614, 613, 618, 613, 617, 618, 613, 616, 617, 131, 101, 132, 132, 101, 104, 101, 82, 104, 129, 172, 173, 52, 42, 53, 52, 41, 42, 71, 128, 129, 45, 70, 71, 14, 13, 16, 6, 8, 7, 43, 44, 32, 32, 44, 45, 44, 47, 45, 0, 2, 1, 3, 4, 1, 3, 5, 4, 5, 10, 11, 621, 620, 700, 618, 622, 619, 618, 617, 622, 617, 616, 623, 131, 132, 157, 753, 518, 562, 696, 699, 697, 477, 192, 476, 702, 623, 698, 192, 157, 195, 157, 132, 149, 149, 132, 138, 132, 104, 138, 138, 104, 83, 104, 82, 83, 83, 53, 73, 82, 53, 83, 53, 42, 73, 73, 42, 51, 129, 160, 130, 42, 16, 51, 71, 129, 87, 16, 13, 22, 45, 71, 87, 13, 6, 19, 21, 6, 18, 6, 7, 18, 7, 0, 18, 0, 1, 20, 20, 1, 26, 32, 49, 50, 32, 45, 49, 676, 694, 680, 157, 190, 195, 157, 149, 190, 51, 16, 28, 87, 129, 130, 16, 22, 28, 45, 87, 49, 19, 6, 21, 18, 0, 20, 1, 25, 26, 25, 1, 24, 11, 15, 23, 15, 50, 27, 15, 32, 50, 189, 721, 198, 138, 83, 73, 28, 22, 29, 22, 19, 29, 18, 20, 21, 23, 15, 27, 149, 138, 154, 160, 189, 174, 51, 28, 96, 28, 29, 96, 49, 87, 133, 29, 19, 88, 21, 20, 30, 30, 20, 26, 23, 27, 89, 493, 474, 481, 190, 154, 193, 146, 73, 134, 73, 51, 134, 134, 51, 96, 130, 160, 174, 87, 130, 133, 96, 29, 88, 50, 49, 98, 49, 99, 98, 49, 133, 99, 19, 21, 88, 88, 21, 95, 21, 30, 95, 30, 94, 95, 94, 26, 90, 26, 25, 90, 90, 25, 91, 25, 92, 91, 92, 24, 93, 24, 23, 93, 93, 23, 89, 902, 917, 552, 475, 190, 438, 99, 133, 147, 96, 88, 97, 553, 902, 552, 888, 902, 553, 198, 546, 538, 193, 146, 437, 146, 134, 170, 174, 196, 188, 134, 96, 148, 133, 174, 188, 96, 97, 148, 98, 152, 143, 152, 98, 147, 97, 88, 135, 88, 95, 135, 94, 139, 135, 94, 140, 139, 94, 90, 140, 90, 91, 140, 91, 141, 140, 91, 92, 141, 141, 92, 142, 92, 93, 142, 93, 143, 142, 93, 89, 143, 89, 98, 143, 535, 516, 543, 571, 566, 542, 134, 148, 170, 148, 97, 163, 163, 97, 145, 147, 133, 188, 97, 135, 145, 145, 135, 158, 135, 139, 158, 139, 164, 158, 188, 196, 538, 170, 148, 434, 163, 145, 436, 436, 145, 158, 164, 139, 140, 140, 141, 167, 141, 142, 168, 142, 169, 168, 142, 143, 169, 538, 534, 472, 188, 447, 442, 158, 164, 436, 140, 166, 165, 529, 515, 511, 439, 427, 428, 421, 433, 422, 422, 434, 429, 169, 435, 168, 165, 166, 430, 430, 166, 431, 431, 167, 432, 417, 408, 404, 440, 423, 418, 440, 441, 423, 416, 431, 411, 431, 432, 411, 406, 405, 392, 403, 415, 407, 223, 204, 202, 204, 226, 207, 209, 199, 208, 225, 298, 220, 231, 305, 232, 327, 298, 299, 330, 301, 300, 326, 335, 233, 324, 238, 233, 297, 255, 239, 328, 362, 329, 330, 359, 331, 332, 338, 256, 336, 347, 293, 362, 363, 329, 363, 330, 329, 363, 359, 330, 359, 360, 331, 331, 360, 326, 360, 361, 326, 361, 358, 326, 339, 367, 327, 368, 908, 362, 362, 908, 363, 908, 918, 363, 360, 913, 361, 376, 370, 369, 372, 737, 338, 737, 351, 338, 910, 913, 360, 870, 356, 357, 907, 354, 355, 370, 739, 349, 739, 372, 349, 908, 863, 909, 909, 864, 910, 864, 869, 910, 869, 868, 910, 910, 868, 913, 868, 912, 913, 876, 908, 368, 871, 867, 354, 867, 905, 354, 904, 903, 356, 907, 871, 354, 903, 376, 369, 364, 371, 325, 376, 744, 370, 744, 739, 370, 737, 734, 351, 740, 741, 743, 161, 115, 187, 876, 863, 908, 855, 863, 876, 863, 864, 909, 868, 858, 912, 867, 845, 905, 845, 876, 905, 858, 870, 912, 870, 862, 904, 906, 907, 371, 746, 744, 376, 739, 728, 372, 372, 727, 737, 728, 727, 372, 731, 741, 740, 855, 847, 863, 847, 848, 863, 863, 852, 864, 848, 852, 863, 852, 853, 864, 864, 853, 869, 853, 850, 869, 869, 850, 868, 850, 851, 868, 851, 858, 868, 845, 855, 876, 858, 834, 870, 834, 849, 870, 849, 862, 870, 871, 846, 867, 846, 845, 867, 862, 903, 904, 906, 871, 907, 746, 745, 744, 350, 375, 364, 729, 739, 744, 729, 728, 739, 727, 726, 734, 736, 742, 741, 801, 853, 852, 845, 800, 855, 800, 847, 855, 796, 834, 858, 914, 746, 903, 745, 729, 744, 729, 712, 728, 728, 713, 727, 712, 713, 728, 713, 726, 727, 713, 715, 726, 726, 725, 731, 725, 736, 731, 800, 799, 847, 799, 848, 847, 799, 801, 848, 801, 852, 848, 801, 795, 853, 795, 850, 853, 795, 794, 850, 794, 851, 850, 794, 796, 851, 792, 791, 845, 791, 800, 845, 792, 845, 846, 849, 833, 862, 833, 856, 862, 862, 856, 903, 856, 914, 903, 877, 854, 906, 914, 747, 746, 375, 877, 906, 366, 919, 375, 366, 350, 320, 715, 719, 726, 719, 725, 726, 790, 788, 800, 800, 788, 799, 788, 789, 799, 789, 801, 799, 789, 787, 801, 787, 786, 801, 801, 786, 795, 834, 833, 849, 832, 792, 846, 854, 832, 857, 857, 832, 846, 919, 911, 375, 747, 730, 745, 745, 730, 729, 730, 707, 729, 729, 707, 712, 713, 598, 715, 786, 780, 795, 780, 781, 795, 781, 794, 795, 781, 782, 794, 791, 783, 790, 794, 782, 796, 782, 784, 796, 796, 823, 834, 832, 785, 792, 831, 856, 833, 831, 899, 856, 899, 914, 856, 877, 860, 854, 866, 860, 877, 911, 866, 877, 749, 730, 747, 377, 919, 366, 707, 659, 712, 712, 659, 713, 659, 666, 713, 666, 598, 713, 598, 719, 715, 719, 718, 725, 718, 724, 725, 724, 733, 725, 788, 777, 789, 777, 787, 789, 777, 778, 787, 787, 778, 786, 778, 779, 786, 779, 780, 786, 791, 776, 783, 783, 775, 790, 790, 775, 788, 784, 823, 796, 823, 833, 834, 823, 822, 833, 785, 791, 792, 822, 831, 833, 797, 785, 832, 835, 797, 854, 854, 797, 832, 860, 835, 854, 899, 920, 914, 920, 747, 914, 920, 749, 747, 374, 911, 377, 911, 919, 377, 730, 706, 707, 334, 377, 366, 707, 628, 659, 659, 658, 664, 664, 658, 656, 646, 663, 656, 646, 660, 663, 641, 593, 662, 662, 593, 603, 598, 583, 719, 724, 732, 733, 775, 777, 788, 866, 835, 860, 911, 872, 866, 749, 706, 730, 706, 630, 707, 365, 374, 334, 707, 630, 628, 627, 629, 628, 633, 635, 637, 629, 625, 657, 627, 625, 629, 625, 626, 646, 626, 637, 646, 583, 586, 719, 586, 718, 719, 754, 777, 775, 754, 755, 777, 755, 778, 777, 760, 779, 778, 779, 762, 780, 785, 773, 776, 776, 768, 783, 768, 775, 783, 784, 798, 823, 798, 822, 823, 821, 831, 822, 821, 827, 831, 793, 785, 797, 898, 899, 831, 835, 817, 797, 817, 793, 797, 898, 920, 899, 859, 835, 866, 872, 859, 866, 873, 872, 374, 634, 638, 635, 373, 873, 374, 630, 627, 628, 630, 631, 627, 631, 636, 627, 636, 632, 627, 632, 624, 627, 624, 632, 626, 626, 632, 633, 632, 634, 633, 641, 635, 593, 635, 585, 593, 718, 722, 724, 722, 732, 724, 732, 172, 151, 758, 754, 775, 755, 760, 778, 760, 762, 779, 780, 762, 781, 762, 764, 781, 781, 766, 782, 764, 766, 781, 766, 784, 782, 773, 771, 776, 771, 768, 776, 768, 758, 775, 766, 798, 784, 798, 821, 822, 827, 898, 831, 898, 921, 920, 844, 817, 835, 859, 844, 835, 920, 921, 749, 921, 748, 749, 865, 859, 872, 749, 748, 706, 873, 865, 872, 874, 865, 873, 706, 642, 630, 705, 642, 706, 644, 636, 639, 644, 640, 636, 640, 643, 634, 643, 638, 634, 373, 874, 873, 751, 874, 373, 608, 718, 586, 608, 717, 718, 717, 722, 718, 722, 735, 732, 735, 172, 732, 865, 844, 859, 748, 705, 706, 875, 865, 874, 650, 638, 643, 651, 639, 642, 651, 647, 639, 647, 644, 639, 647, 649, 644, 649, 640, 644, 649, 648, 640, 648, 643, 640, 650, 635, 638, 650, 688, 635, 751, 875, 874, 635, 703, 585, 757, 754, 758, 759, 760, 755, 760, 761, 762, 764, 763, 766, 772, 771, 773, 793, 802, 773, 827, 893, 898, 814, 793, 817, 843, 817, 844, 843, 814, 817, 898, 922, 921, 922, 748, 921, 878, 844, 865, 881, 865, 875, 881, 878, 865, 705, 704, 642, 704, 651, 642, 651, 654, 647, 654, 655, 647, 647, 655, 649, 655, 653, 649, 653, 648, 649, 653, 652, 648, 652, 643, 648, 652, 650, 643, 752, 881, 875, 752, 875, 751, 503, 502, 751, 688, 703, 635, 616, 588, 585, 616, 613, 588, 615, 716, 608, 613, 609, 588, 716, 717, 608, 716, 722, 717, 754, 756, 755, 756, 759, 755, 759, 761, 760, 761, 763, 762, 763, 764, 762, 767, 766, 763, 767, 770, 766, 771, 769, 768, 772, 769, 771, 768, 765, 758, 769, 765, 768, 765, 757, 758, 770, 798, 766, 770, 819, 798, 819, 820, 798, 820, 821, 798, 802, 774, 773, 774, 772, 773, 821, 826, 827, 820, 826, 821, 814, 802, 793, 826, 893, 827, 893, 922, 898, 878, 843, 844, 922, 750, 748, 750, 705, 748, 750, 704, 705, 884, 878, 881, 688, 650, 652, 752, 753, 881, 683, 654, 651, 683, 690, 654, 690, 655, 654, 690, 691, 655, 655, 691, 653, 691, 689, 653, 653, 689, 652, 689, 688, 652, 503, 480, 502, 703, 616, 585, 607, 611, 615, 610, 613, 614, 716, 723, 722, 722, 723, 735, 723, 173, 735, 8, 0, 7, 11, 12, 15, 757, 756, 754, 884, 883, 878, 753, 562, 884, 881, 753, 884, 704, 683, 651, 683, 685, 690, 685, 686, 690, 690, 686, 691, 686, 689, 691, 686, 687, 689, 687, 688, 689, 684, 682, 686, 502, 518, 752, 752, 518, 753, 681, 703, 688, 144, 477, 480, 144, 192, 477, 703, 623, 616, 144, 157, 192, 621, 716, 615, 804, 756, 757, 810, 767, 763, 809, 770, 767, 772, 803, 769, 893, 923, 922, 879, 843, 878, 879, 861, 843, 923, 750, 922, 883, 879, 878, 750, 708, 704, 708, 683, 704, 684, 686, 685, 686, 682, 687, 682, 681, 687, 687, 681, 688, 678, 673, 683, 673, 685, 683, 673, 684, 685, 673, 671, 684, 673, 670, 671, 670, 672, 671, 671, 682, 684, 671, 672, 682, 672, 677, 682, 682, 677, 681, 681, 680, 703, 502, 492, 518, 502, 480, 492, 695, 700, 696, 680, 694, 703, 621, 700, 695, 700, 699, 696, 699, 701, 697, 701, 702, 697, 702, 698, 697, 694, 623, 703, 695, 714, 621, 620, 699, 700, 620, 619, 699, 699, 619, 701, 619, 622, 701, 622, 702, 701, 622, 617, 702, 617, 623, 702, 714, 716, 621, 723, 189, 173, 173, 160, 129, 804, 805, 756, 805, 759, 756, 805, 813, 759, 759, 813, 761, 813, 812, 761, 812, 811, 761, 761, 811, 763, 811, 810, 763, 810, 809, 767, 803, 808, 769, 808, 806, 769, 806, 765, 769, 765, 806, 757, 806, 807, 757, 757, 807, 804, 809, 819, 770, 824, 820, 819, 824, 825, 820, 815, 774, 802, 815, 772, 774, 815, 803, 772, 825, 826, 820, 816, 815, 802, 836, 816, 814, 816, 802, 814, 826, 915, 893, 861, 814, 843, 861, 836, 814, 893, 915, 923, 570, 883, 884, 562, 570, 884, 576, 708, 750, 708, 709, 683, 518, 521, 562, 709, 678, 683, 677, 680, 681, 679, 674, 678, 678, 674, 673, 674, 670, 673, 670, 675, 672, 675, 676, 672, 672, 676, 677, 676, 680, 677, 480, 474, 492, 679, 693, 674, 695, 693, 679, 693, 670, 674, 693, 692, 670, 692, 675, 670, 675, 692, 676, 692, 694, 676, 477, 474, 480, 696, 693, 695, 696, 697, 693, 697, 692, 693, 697, 698, 692, 698, 694, 692, 698, 623, 694, 192, 195, 476, 714, 721, 716, 716, 721, 723, 721, 189, 723, 4, 24, 1, 4, 23, 24, 4, 5, 23, 5, 11, 23, 809, 824, 819, 815, 818, 803, 818, 808, 803, 825, 882, 826, 826, 882, 915, 879, 836, 861, 915, 925, 923, 883, 917, 879, 925, 750, 923, 925, 576, 750, 548, 570, 562, 562, 521, 548, 518, 493, 521, 709, 710, 678, 492, 493, 518, 678, 710, 679, 492, 474, 493, 679, 711, 695, 710, 711, 679, 476, 474, 477, 711, 714, 695, 720, 721, 714, 160, 173, 189, 22, 13, 19, 828, 804, 807, 828, 805, 804, 829, 812, 813, 829, 811, 812, 811, 830, 810, 810, 830, 809, 830, 839, 809, 839, 824, 809, 882, 924, 915, 879, 902, 836, 924, 925, 915, 883, 570, 917, 925, 575, 576, 576, 573, 708, 520, 535, 548, 521, 520, 548, 573, 709, 708, 476, 471, 474, 476, 475, 471, 711, 720, 714, 195, 475, 476, 195, 190, 475, 720, 574, 721, 574, 198, 721, 842, 828, 807, 828, 837, 805, 837, 813, 805, 837, 838, 813, 813, 838, 829, 829, 840, 811, 840, 830, 811, 841, 808, 818, 841, 806, 808, 841, 842, 806, 842, 807, 806, 839, 886, 824, 880, 818, 815, 824, 886, 825, 886, 887, 825, 887, 882, 825, 888, 815, 816, 836, 888, 816, 902, 888, 836, 917, 902, 879, 572, 925, 924, 572, 575, 925, 548, 535, 570, 575, 573, 576, 573, 567, 709, 521, 493, 520, 567, 710, 709, 567, 566, 710, 710, 566, 711, 566, 571, 711, 571, 720, 711, 149, 154, 190, 174, 189, 198, 138, 146, 154, 138, 73, 146, 174, 133, 130, 27, 50, 98, 98, 89, 27, 30, 26, 94, 25, 24, 92, 895, 829, 838, 830, 897, 839, 880, 885, 818, 885, 841, 818, 888, 889, 815, 815, 889, 880, 889, 900, 880, 887, 916, 882, 916, 924, 882, 570, 552, 917, 575, 569, 573, 475, 454, 471, 571, 574, 720, 546, 198, 574, 198, 196, 174, 891, 828, 842, 891, 890, 828, 890, 837, 828, 890, 894, 837, 894, 838, 837, 894, 895, 838, 829, 895, 840, 895, 896, 840, 896, 830, 840, 896, 897, 830, 897, 901, 839, 885, 892, 841, 892, 891, 841, 891, 842, 841, 901, 886, 839, 900, 885, 880, 886, 549, 887, 553, 889, 888, 916, 572, 924, 570, 543, 552, 572, 569, 575, 570, 535, 543, 567, 573, 569, 493, 501, 520, 493, 481, 501, 474, 473, 481, 471, 473, 474, 471, 455, 473, 475, 438, 454, 190, 193, 438, 154, 146, 193, 538, 196, 198, 98, 99, 147, 95, 94, 135, 549, 551, 887, 551, 916, 887, 916, 551, 572, 565, 569, 572, 520, 501, 535, 535, 501, 516, 454, 455, 471, 546, 571, 542, 546, 574, 571, 146, 170, 437, 561, 563, 892, 563, 891, 892, 563, 564, 891, 891, 564, 890, 564, 894, 890, 560, 555, 894, 555, 895, 894, 895, 555, 896, 555, 556, 896, 896, 557, 897, 557, 558, 897, 897, 558, 901, 547, 885, 900, 885, 561, 892, 558, 886, 901, 558, 550, 886, 550, 549, 886, 554, 889, 553, 889, 547, 900, 554, 547, 889, 551, 568, 572, 515, 553, 552, 531, 515, 552, 568, 565, 572, 543, 531, 552, 543, 516, 531, 545, 569, 565, 545, 567, 569, 566, 567, 545, 545, 537, 566, 473, 453, 481, 566, 537, 542, 455, 453, 473, 454, 439, 455, 438, 439, 454, 193, 437, 438, 534, 538, 546, 564, 560, 894, 559, 560, 564, 556, 557, 896, 547, 561, 885, 536, 561, 547, 529, 547, 554, 553, 529, 554, 544, 568, 551, 553, 515, 529, 497, 515, 531, 516, 497, 531, 501, 482, 516, 516, 482, 497, 481, 482, 501, 537, 545, 509, 481, 457, 482, 481, 453, 457, 513, 542, 537, 455, 439, 453, 534, 546, 542, 542, 513, 534, 438, 427, 439, 438, 437, 427, 437, 433, 427, 170, 433, 437, 170, 434, 433, 188, 538, 447, 442, 445, 188, 148, 163, 434, 147, 188, 445, 152, 147, 445, 164, 140, 165, 166, 140, 167, 141, 168, 167, 169, 143, 152, 536, 539, 561, 561, 539, 563, 563, 539, 564, 539, 559, 564, 559, 541, 560, 541, 555, 560, 541, 526, 555, 526, 528, 555, 528, 556, 555, 557, 533, 558, 533, 550, 558, 530, 536, 547, 524, 549, 550, 524, 519, 549, 529, 530, 547, 519, 551, 549, 519, 544, 551, 544, 522, 568, 522, 565, 568, 523, 565, 522, 523, 545, 565, 482, 470, 497, 509, 545, 523, 508, 537, 509, 453, 428, 457, 513, 537, 508, 439, 428, 453, 433, 421, 427, 447, 538, 472, 434, 422, 433, 434, 163, 429, 163, 436, 429, 436, 426, 429, 169, 152, 424, 424, 152, 440, 152, 445, 440, 539, 540, 559, 540, 541, 559, 528, 557, 556, 528, 532, 557, 532, 533, 557, 533, 524, 550, 512, 530, 529, 511, 512, 529, 519, 522, 544, 497, 490, 515, 515, 490, 511, 470, 490, 497, 482, 457, 470, 457, 452, 470, 428, 452, 457, 428, 420, 452, 450, 513, 508, 472, 513, 450, 428, 427, 420, 427, 421, 420, 472, 534, 513, 422, 417, 421, 442, 447, 446, 446, 447, 472, 422, 419, 417, 429, 419, 422, 429, 410, 419, 440, 445, 442, 429, 426, 410, 436, 430, 426, 424, 435, 169, 436, 164, 430, 164, 165, 430, 166, 167, 431, 167, 168, 432, 168, 435, 432, 536, 517, 539, 539, 517, 540, 517, 525, 540, 525, 527, 540, 540, 527, 541, 527, 526, 541, 530, 514, 536, 514, 517, 536, 506, 524, 533, 512, 514, 530, 506, 496, 524, 496, 519, 524, 511, 491, 512, 496, 494, 519, 494, 522, 519, 490, 491, 511, 494, 504, 522, 504, 523, 522, 504, 509, 523, 470, 468, 490, 488, 509, 504, 470, 452, 468, 488, 508, 509, 451, 508, 488, 450, 508, 451, 421, 404, 420, 446, 472, 450, 421, 417, 404, 442, 446, 441, 417, 419, 408, 419, 410, 408, 418, 424, 440, 440, 442, 441, 426, 415, 410, 426, 430, 415, 415, 430, 414, 430, 413, 414, 432, 425, 411, 435, 424, 412, 430, 416, 413, 430, 431, 416, 432, 435, 412, 525, 505, 527, 510, 526, 527, 499, 528, 526, 528, 498, 532, 517, 507, 525, 507, 505, 525, 505, 510, 527, 510, 499, 526, 499, 498, 528, 498, 506, 532, 506, 533, 532, 512, 495, 514, 514, 495, 517, 495, 507, 517, 495, 479, 507, 491, 483, 512, 483, 495, 512, 489, 496, 506, 467, 494, 496, 490, 466, 491, 466, 483, 491, 494, 469, 504, 468, 466, 490, 469, 488, 504, 452, 406, 468, 451, 488, 469, 420, 406, 452, 405, 406, 420, 443, 450, 451, 404, 405, 420, 404, 392, 405, 443, 446, 450, 404, 399, 392, 441, 446, 443, 408, 399, 404, 408, 410, 399, 410, 403, 399, 410, 415, 403, 415, 414, 407, 425, 412, 411, 412, 424, 418, 432, 412, 425, 500, 510, 505, 500, 499, 510, 507, 479, 505, 479, 484, 505, 484, 500, 505, 484, 485, 500, 485, 487, 500, 487, 499, 500, 487, 486, 499, 486, 498, 499, 486, 489, 498, 498, 489, 506, 483, 478, 495, 495, 478, 479, 483, 456, 478, 456, 458, 478, 458, 479, 478, 458, 459, 479, 489, 467, 496, 466, 456, 483, 464, 467, 489, 467, 469, 494, 406, 466, 468, 389, 458, 456, 464, 448, 467, 449, 469, 467, 449, 451, 469, 406, 394, 466, 394, 456, 466, 394, 389, 456, 448, 449, 467, 448, 443, 449, 449, 443, 451, 392, 394, 406, 394, 392, 389, 392, 387, 389, 448, 390, 444, 444, 443, 448, 392, 395, 387, 399, 395, 392, 444, 423, 443, 423, 441, 443, 399, 403, 395, 395, 403, 398, 400, 423, 390, 390, 423, 444, 407, 398, 403, 407, 397, 398, 409, 396, 397, 400, 418, 423, 396, 409, 402, 409, 411, 402, 411, 401, 402, 401, 412, 400, 412, 418, 400, 414, 397, 407, 414, 413, 397, 413, 409, 397, 413, 416, 409, 416, 411, 409, 412, 401, 411, 460, 485, 484, 461, 487, 485, 486, 463, 489, 479, 459, 484, 459, 460, 484, 460, 461, 485, 461, 465, 487, 487, 465, 486, 465, 462, 486, 462, 463, 486, 463, 464, 489, 380, 461, 460, 388, 459, 458, 459, 379, 460, 379, 380, 460, 380, 382, 461, 461, 382, 465, 465, 382, 462, 462, 383, 463, 383, 464, 463, 383, 391, 464, 391, 448, 464, 389, 388, 458, 388, 379, 459, 382, 383, 462, 387, 388, 389, 387, 379, 388, 378, 380, 379, 385, 382, 380, 385, 381, 382, 381, 383, 382, 383, 390, 391, 384, 390, 383, 391, 390, 448, 386, 379, 387, 386, 378, 379, 378, 385, 380, 381, 384, 383, 393, 381, 385, 395, 386, 387, 395, 398, 386, 398, 397, 386, 386, 397, 378, 396, 385, 378, 396, 393, 385, 401, 400, 384, 397, 396, 378, 396, 402, 393, 402, 381, 393, 402, 401, 381, 381, 401, 384, 400, 390, 384]
    point3f[] points = [(-0.017852, -0.002796, 0.167666), (-0.017921, -0.002885, 0.140028), (-0.018114, 0.000183, 0.149997), (-0.018207, 0.000097, 0.124456), (-0.018016, -0.002865, 0.114818), (-0.018070, -0.003040, 0.104099), (-0.017713, -0.002546, 0.199217), (-0.017762, -0.002620, 0.181231), (-0.018021, 0.000352, 0.176372), (-0.017942, 0.000333, 0.197645), (-0.018309, 0.000061, 0.097796), (-0.018045, -0.002973, 0.095409), (-0.018162, -0.000145, 0.092905), (-0.017360, -0.002597, 0.208453), (-0.017480, 0.000308, 0.209598), (-0.017887, -0.003569, 0.093291), (-0.016506, -0.002633, 0.216235), (-0.016771, 0.000334, 0.215723), (-0.017222, -0.004979, 0.180914), (-0.016791, -0.005705, 0.204496), (-0.017157, -0.005711, 0.161739), (-0.016916, -0.005841, 0.196927), (-0.016630, -0.004670, 0.211304), (-0.017323, -0.005940, 0.102629), (-0.017219, -0.005959, 0.115900), (-0.017109, -0.006127, 0.135171), (-0.017046, -0.006094, 0.148675), (-0.017126, -0.006091, 0.092952), (-0.015833, -0.005524, 0.216002), (-0.016111, -0.006396, 0.210735), (-0.016736, -0.006720, 0.167427), (-0.017441, 0.003051, 0.206891), (-0.017583, -0.003125, 0.091643), (-0.018053, 0.003157, 0.095517), (-0.017942, 0.003187, 0.093011), (-0.017977, 0.002949, 0.124818), (-0.017892, 0.002952, 0.148928), (-0.017876, 0.002893, 0.165331), (-0.017780, 0.002921, 0.181209), (-0.017696, 0.003141, 0.196999), (-0.016471, 0.003216, 0.216513), (-0.015639, 0.000354, 0.220901), (-0.015433, -0.002469, 0.220955), (-0.017870, -0.000069, 0.091621), (-0.017597, 0.000133, 0.088451), (-0.016965, -0.002766, 0.086238), (-0.017665, 0.003287, 0.091597), (-0.017115, 0.000102, 0.085815), (-0.017152, 0.003207, 0.087102), (-0.016190, -0.006022, 0.086831), (-0.016796, -0.005829, 0.091745), (-0.014608, -0.005815, 0.220952), (-0.014660, 0.000209, 0.224269), (-0.014441, -0.002440, 0.224305), (-0.016634, 0.005900, 0.209143), (-0.017287, 0.005473, 0.165626), (-0.017164, 0.005541, 0.183505), (-0.017348, 0.005623, 0.120423), (-0.016573, 0.003250, 0.084840), (-0.016938, 0.006062, 0.199076), (-0.017380, 0.005665, 0.093596), (-0.014640, 0.003277, 0.223442), (-0.015701, 0.006170, 0.216680), (-0.016412, 0.006326, 0.088079), (-0.016921, 0.006005, 0.091835), (-0.017023, 0.006687, 0.107965), (-0.016658, 0.007008, 0.179015), (-0.016914, 0.006586, 0.160179), (-0.016411, 0.007846, 0.166190), (-0.016446, 0.007888, 0.139222), (-0.016397, 0.000020, 0.083683), (-0.016207, -0.002575, 0.083766), (-0.015938, 0.006044, 0.085315), (-0.013676, -0.005796, 0.223967), (-0.013281, 0.000257, 0.227736), (-0.013737, 0.006232, 0.223549), (-0.016346, 0.008218, 0.093578), (-0.016489, 0.008081, 0.102966), (-0.016473, 0.007906, 0.119624), (-0.016069, 0.008174, 0.198197), (-0.015771, 0.007996, 0.209100), (-0.012574, 0.003128, 0.228565), (-0.012844, -0.002282, 0.228211), (-0.012421, -0.004738, 0.227633), (-0.015994, 0.008130, 0.091795), (-0.015793, 0.008854, 0.180599), (-0.014735, 0.008267, 0.216839), (-0.015381, -0.005936, 0.084006), (-0.015722, -0.008048, 0.205885), (-0.016219, -0.008171, 0.093141), (-0.015928, -0.008463, 0.149861), (-0.015947, -0.008563, 0.135012), (-0.015945, -0.008590, 0.121457), (-0.016014, -0.008656, 0.103860), (-0.015953, -0.008442, 0.163958), (-0.015760, -0.008381, 0.196952), (-0.014542, -0.008446, 0.216142), (-0.014513, -0.009707, 0.209676), (-0.015355, -0.008912, 0.091874), (-0.015028, -0.008516, 0.087173), (-0.015476, 0.003161, 0.082371), (-0.008466, -0.000671, 0.236863), (-0.009693, 0.001115, 0.234595), (-0.015090, 0.008050, 0.085470), (-0.011441, -0.002702, 0.230752), (-0.006160, 0.000663, 0.240947), (-0.003827, -0.000240, 0.245181), (-0.002916, 0.000623, 0.246781), (-0.000570, 0.000026, 0.250957), (-0.008546, 0.002221, 0.236324), (-0.015450, 0.009743, 0.136004), (-0.015340, 0.009795, 0.167381), (-0.014752, 0.010097, 0.205729), (-0.011759, 0.005340, 0.228656), (-0.008304, 0.003993, 0.235678), (-0.014397, 0.009896, 0.086937), (-0.014228, 0.010240, 0.211902), (-0.014839, 0.010746, 0.122856), (-0.014931, 0.010713, 0.107813), (-0.014693, 0.010571, 0.192994), (-0.014997, 0.006684, 0.083632), (-0.003421, 0.001704, 0.245410), (-0.013681, 0.009881, 0.217338), (-0.012455, 0.008472, 0.223841), (-0.014665, 0.010877, 0.093478), (-0.014723, 0.010177, 0.091725), (-0.014664, 0.010971, 0.138571), (-0.011896, 0.007720, 0.226051), (-0.014601, 0.000008, 0.080511), (-0.014575, -0.002812, 0.080847), (-0.014357, -0.005874, 0.082039), (-0.004406, -0.001413, 0.243703), (-0.007340, -0.002475, 0.238103), (-0.014321, -0.008432, 0.084382), (-0.012961, -0.008897, 0.220990), (-0.014678, -0.010139, 0.199194), (-0.005478, 0.002657, 0.241245), (-0.014213, 0.011447, 0.168252), (-0.011258, -0.005550, 0.229237), (-0.014716, -0.010433, 0.166449), (-0.014577, -0.010634, 0.149644), (-0.014748, -0.010478, 0.132586), (-0.014868, -0.010452, 0.104823), (-0.014731, -0.010515, 0.093109), (-0.002259, -0.001129, 0.247330), (-0.013778, -0.011090, 0.205264), (-0.011653, -0.008937, 0.224420), (-0.013712, -0.010474, 0.087149), (-0.012694, -0.011012, 0.216256), (-0.008097, -0.004734, 0.235125), (-0.013677, 0.011783, 0.200247), (-0.013499, 0.003151, 0.079415), (-0.013061, -0.012112, 0.091883), (-0.001644, 0.001373, 0.248280), (-0.010455, -0.007852, 0.228100), (-0.010545, 0.007269, 0.229008), (-0.013153, 0.006077, 0.080212), (-0.004396, -0.002956, 0.242376), (-0.013699, -0.011419, 0.197220), (-0.012825, 0.012276, 0.209804), (-0.013352, -0.005677, 0.080427), (-0.013350, 0.009925, 0.084001), (-0.012463, 0.011720, 0.216154), (-0.012565, -0.012127, 0.209455), (-0.012998, -0.012475, 0.174438), (-0.012785, -0.012763, 0.162129), (-0.012861, -0.012673, 0.147901), (-0.013066, -0.012529, 0.132344), (-0.012977, -0.012708, 0.116851), (-0.012945, -0.012697, 0.093323), (-0.011272, -0.010895, 0.221087), (-0.013204, 0.008454, 0.082106), (-0.012314, 0.000143, 0.077599), (-0.011727, -0.002628, 0.077259), (-0.012240, -0.008364, 0.080948), (-0.011348, 0.011431, 0.220595), (-0.012940, 0.013063, 0.107787), (-0.012839, 0.013045, 0.166931), (-0.012887, 0.013097, 0.135051), (-0.012896, 0.012964, 0.093449), (-0.012690, 0.012683, 0.091658), (-0.007699, 0.006236, 0.234476), (-0.005765, 0.004471, 0.239086), (-0.003438, 0.002849, 0.244232), (-0.010493, 0.010450, 0.224720), (-0.012760, 0.012799, 0.200487), (-0.011960, 0.012683, 0.086850), (-0.011870, 0.011916, 0.084415), (-0.011865, -0.011228, 0.083918), (-0.010927, -0.005359, 0.077506), (-0.006684, -0.006642, 0.234964), (-0.008272, 0.008587, 0.230707), (-0.002953, -0.002846, 0.244456), (-0.008770, -0.009654, 0.228085), (-0.000240, 0.000495, 0.250892), (-0.004332, -0.004840, 0.240145), (-0.010981, -0.009878, 0.081014), (-0.004200, 0.005173, 0.240264), (-0.009420, -0.007841, 0.077646), (0.002994, 0.017962, 0.163878), (0.000081, 0.018248, 0.145386), (0.003089, 0.017998, 0.139265), (0.003059, 0.018035, 0.123631), (-0.000007, 0.018432, 0.104160), (0.003196, 0.018140, 0.103691), (0.000097, 0.018280, 0.125888), (-0.000097, 0.018322, 0.096627), (0.003065, 0.017965, 0.093157), (0.000013, 0.018153, 0.167798), (0.002371, 0.017858, 0.181444), (-0.000400, 0.018013, 0.180030), (-0.000175, 0.017985, 0.190435), (0.002713, 0.017687, 0.198885), (-0.000417, 0.017881, 0.199954), (0.002669, 0.017454, 0.206852), (-0.000173, 0.017534, 0.209480), (-0.000076, 0.018169, 0.092881), (0.002815, 0.017082, 0.212292), (-0.000204, 0.016934, 0.215862), (0.002833, 0.016686, 0.215849), (0.005845, 0.017076, 0.180522), (0.004982, 0.017466, 0.165285), (0.005857, 0.017278, 0.137796), (0.005876, 0.017309, 0.119562), (0.004792, 0.016864, 0.209708), (0.006047, 0.016806, 0.200776), (0.006072, 0.017145, 0.092856), (0.006113, 0.017309, 0.104070), (0.005752, 0.015924, 0.215941), (0.006465, 0.016996, 0.164066), (0.006352, 0.016250, 0.211143), (0.007006, 0.016840, 0.127393), (0.007392, 0.016775, 0.104831), (0.007792, 0.016442, 0.092915), (0.003070, 0.017589, 0.091509), (-0.000049, 0.017852, 0.091549), (0.000088, 0.017472, 0.087272), (0.003129, 0.017164, 0.087359), (0.006588, 0.016581, 0.091697), (0.006419, 0.016111, 0.087275), (-0.002545, 0.017763, 0.198917), (-0.002653, 0.018000, 0.159587), (-0.002619, 0.018077, 0.126641), (-0.003207, 0.018157, 0.104820), (-0.002765, 0.017816, 0.179702), (-0.002480, 0.017364, 0.209935), (-0.003367, 0.018035, 0.095837), (-0.003346, 0.017897, 0.092955), (-0.003003, 0.017648, 0.091581), (-0.002713, 0.016703, 0.216031), (-0.002780, 0.017137, 0.086795), (0.002624, 0.015014, 0.222568), (-0.000191, 0.015211, 0.222561), (0.005886, 0.014754, 0.220403), (-0.002729, 0.015016, 0.222588), (0.003273, 0.016156, 0.083916), (0.000006, 0.016494, 0.083837), (-0.002771, 0.016331, 0.084004), (-0.005037, 0.016889, 0.209582), (-0.005520, 0.017408, 0.161576), (-0.005305, 0.017295, 0.178837), (-0.005266, 0.017201, 0.196871), (-0.004447, 0.017702, 0.127074), (-0.000275, 0.014280, 0.225402), (-0.005391, 0.016119, 0.215984), (-0.005291, 0.014824, 0.221175), (-0.005005, 0.016814, 0.088306), (-0.005796, 0.017356, 0.132780), (-0.005440, 0.017565, 0.105068), (-0.006485, 0.017096, 0.093365), (-0.006172, 0.016813, 0.091703), (-0.006710, 0.016676, 0.199982), (-0.006821, 0.016780, 0.179402), (-0.006576, 0.017189, 0.104349), (0.002569, 0.013637, 0.226369), (-0.002597, 0.013568, 0.226695), (-0.007030, 0.016102, 0.210736), (-0.007042, 0.016848, 0.163432), (-0.007224, 0.016815, 0.133199), (-0.006045, 0.015941, 0.085591), (-0.006705, 0.016073, 0.087275), (-0.005250, 0.013431, 0.225325), (-0.008524, 0.014771, 0.216239), (-0.007184, 0.013949, 0.221664), (-0.008754, 0.015921, 0.180051), (-0.008714, 0.015793, 0.198622), (-0.008837, 0.016050, 0.163423), (-0.008853, 0.016078, 0.130794), (-0.008875, 0.016132, 0.104544), (-0.008795, 0.015997, 0.093014), (-0.008757, 0.015392, 0.209292), (-0.000589, 0.011899, 0.230567), (0.002291, 0.011948, 0.230003), (-0.006317, 0.015179, 0.083735), (-0.009664, 0.015118, 0.091829), (-0.009236, 0.014796, 0.087208), (0.005804, 0.013394, 0.224698), (0.006213, 0.015118, 0.083745), (0.008358, 0.015948, 0.178280), (0.008354, 0.015726, 0.200453), (0.008276, 0.016128, 0.165813), (0.008388, 0.016152, 0.137533), (0.008814, 0.015112, 0.210282), (0.008947, 0.014422, 0.215982), (-0.003069, 0.010491, 0.232484), (0.008292, 0.016205, 0.123224), (0.009074, 0.014924, 0.088140), (0.000469, 0.008166, 0.237343), (-0.005176, 0.011774, 0.228846), (-0.001020, 0.007065, 0.239299), (0.000292, 0.002356, 0.247694), (0.001784, 0.007836, 0.237587), (-0.000637, 0.001925, 0.248380), (-0.007223, 0.012347, 0.225793), (-0.010848, 0.014448, 0.201054), (-0.010873, 0.014839, 0.130741), (-0.010897, 0.014636, 0.176805), (-0.010843, 0.014796, 0.161411), (-0.001958, 0.004404, 0.243589), (0.005778, 0.011747, 0.228213), (0.003838, 0.008169, 0.235770), (0.008717, 0.014882, 0.086818), (-0.003063, 0.006820, 0.238729), (-0.004946, 0.009117, 0.233572), (0.009887, 0.014753, 0.091842), (0.008751, 0.012479, 0.222988), (0.010283, 0.015089, 0.108032), (0.010180, 0.014646, 0.200620), (0.010284, 0.014777, 0.180061), (0.010351, 0.014853, 0.169740), (0.010307, 0.014964, 0.149473), (0.010342, 0.014989, 0.131829), (0.002979, 0.014337, 0.080611), (0.008322, 0.014097, 0.083822), (0.001444, 0.003416, 0.245326), (0.010542, 0.014732, 0.093401), (-0.002839, 0.014607, 0.080991), (0.002241, 0.005518, 0.241294), (0.000012, 0.014450, 0.080345), (0.010759, 0.013672, 0.211466), (-0.009067, 0.012647, 0.222418), (-0.009160, 0.013806, 0.083990), (-0.010821, 0.013990, 0.210310), (-0.010811, 0.014901, 0.105899), (-0.001606, 0.002990, 0.246107), (-0.010638, 0.014797, 0.093198), (-0.010837, 0.013210, 0.216241), (-0.005646, 0.013513, 0.080621), (-0.007645, 0.010929, 0.228008), (0.005997, 0.013134, 0.080369), (0.005482, 0.008294, 0.234138), (-0.002416, 0.012522, 0.078135), (-0.008120, 0.013111, 0.081810), (-0.005613, 0.007681, 0.235159), (0.011566, 0.012315, 0.216244), (0.009908, 0.011962, 0.221903), (0.011975, 0.012615, 0.087561), (0.012361, 0.012825, 0.091961), (0.012521, 0.013054, 0.093039), (0.012578, 0.013138, 0.136045), (0.012715, 0.012990, 0.126527), (0.012565, 0.013185, 0.109598), (0.012401, 0.013018, 0.178609), (0.012404, 0.013175, 0.161794), (0.008816, 0.010098, 0.227479), (0.001580, 0.002278, 0.246845), (0.004515, 0.005574, 0.239068), (0.012315, 0.012643, 0.205299), (0.012582, 0.012590, 0.198718), (0.011077, 0.012017, 0.083784), (0.007843, 0.012057, 0.080319), (0.010011, 0.010481, 0.224910), (0.002942, 0.011645, 0.077267), (0.001681, 0.001345, 0.247772), (0.004212, 0.002584, 0.242889), (0.008340, 0.007884, 0.231198), (0.010163, 0.010563, 0.080768), (0.004343, 0.004087, 0.241162), (-0.002810, -0.018061, 0.152834), (0.000095, -0.018270, 0.171769), (0.000234, -0.018307, 0.142803), (-0.003326, -0.018109, 0.113813), (0.000188, -0.018381, 0.126639), (-0.000164, -0.018432, 0.096953), (-0.003240, -0.018121, 0.096705), (-0.002566, -0.018135, 0.137132), (-0.002534, -0.018016, 0.173679), (-0.002632, -0.017704, 0.199214), (0.000050, -0.017946, 0.197716), (-0.000237, -0.017681, 0.203860), (-0.003495, -0.017912, 0.092784), (-0.000298, -0.018258, 0.093112), (-0.002895, -0.017026, 0.210146), (-0.003658, -0.017962, 0.133550), (-0.000190, -0.017250, 0.209993), (-0.003964, -0.017394, 0.199990), (-0.005362, -0.017437, 0.143474), (-0.005653, -0.017309, 0.166486), (-0.005221, -0.017320, 0.177656), (-0.005466, -0.016551, 0.208480), (-0.005815, -0.017364, 0.093850), (-0.006343, -0.017246, 0.102541), (-0.006107, -0.017233, 0.124865), (-0.005907, -0.016843, 0.199797), (-0.005404, -0.015698, 0.216220), (-0.002797, -0.016258, 0.216278), (-0.000192, -0.016451, 0.216143), (-0.006581, -0.016761, 0.181306), (-0.007036, -0.015680, 0.211257), (-0.006669, -0.016897, 0.143742), (-0.008841, -0.015252, 0.205320), (-0.008255, -0.016273, 0.124953), (-0.008838, -0.016027, 0.096372), (-0.008859, -0.015838, 0.166018), (-0.008652, -0.015801, 0.179445), (-0.008745, -0.015552, 0.197425), (-0.008675, -0.015923, 0.146745), (-0.007667, -0.014730, 0.216372), (-0.007536, -0.016509, 0.092788), (-0.009031, -0.014662, 0.211375), (-0.002641, -0.014976, 0.221340), (-0.006070, -0.014301, 0.220802), (-0.009171, -0.013863, 0.216696), (-0.006004, -0.016684, 0.091639), (-0.009745, -0.015190, 0.092503), (-0.009318, -0.015645, 0.117349), (-0.010761, -0.014199, 0.200264), (-0.006048, -0.013254, 0.224054), (-0.002606, -0.014048, 0.224333), (-0.010998, -0.013515, 0.209703), (-0.010858, -0.014472, 0.167276), (-0.010798, -0.014535, 0.138599), (-0.010892, -0.014548, 0.117923), (-0.008983, -0.012692, 0.221122), (-0.011042, -0.012556, 0.216520), (-0.010956, -0.014487, 0.095726), (-0.012663, -0.012525, 0.201543), (-0.009393, -0.011162, 0.224418), (-0.007126, -0.010663, 0.228364), (-0.004901, -0.012222, 0.227348), (-0.009967, -0.014703, 0.091705), (-0.006108, -0.015977, 0.087033), (-0.009194, -0.014510, 0.087017), (-0.002841, -0.016898, 0.087010), (-0.003239, -0.017459, 0.091696), (-0.011248, -0.013053, 0.087220), (-0.005986, -0.015232, 0.084380), (-0.009043, -0.013513, 0.083985), (-0.000316, -0.017778, 0.091765), (0.000016, -0.017157, 0.087105), (-0.002493, -0.015590, 0.083157), (-0.000093, -0.016356, 0.084315), (0.000243, -0.014949, 0.221963), (-0.001651, -0.012423, 0.228502), (-0.004866, -0.009785, 0.231915), (-0.002990, -0.010896, 0.231073), (0.002811, -0.017374, 0.205488), (0.000351, -0.013797, 0.225499), (0.002859, -0.017724, 0.198137), (0.003305, -0.018034, 0.171859), (0.003357, -0.018005, 0.163203), (0.003608, -0.018022, 0.134983), (0.003298, -0.018129, 0.106991), (0.003248, -0.018116, 0.096090), (0.002956, -0.017970, 0.092693), (0.003543, -0.018019, 0.125342), (0.002778, -0.016793, 0.211707), (0.003318, -0.017502, 0.091725), (0.002753, -0.016163, 0.216151), (0.002930, -0.016750, 0.086423), (0.002985, -0.014458, 0.222718), (-0.002830, -0.007986, 0.236365), (-0.005846, -0.013928, 0.081829), (-0.001072, -0.009654, 0.233990), (-0.001053, -0.005767, 0.241037), (-0.004226, -0.007073, 0.236919), (-0.002632, -0.004583, 0.242209), (-0.001640, -0.002967, 0.245621), (0.005237, -0.017109, 0.199606), (0.005965, -0.017260, 0.178248), (-0.000639, -0.001111, 0.249226), (0.000885, -0.011003, 0.231456), (0.002804, -0.013051, 0.226586), (0.005741, -0.016450, 0.207333), (0.005630, -0.017423, 0.166568), (0.005464, -0.017462, 0.137735), (0.005763, -0.017388, 0.097445), (0.005602, -0.017368, 0.127709), (0.002807, -0.015861, 0.083875), (0.005429, -0.017320, 0.092861), (0.005943, -0.015274, 0.216331), (0.006184, -0.015745, 0.212530), (0.000276, -0.003954, 0.244370), (0.000999, -0.006255, 0.240085), (0.006259, -0.015860, 0.086987), (0.006676, -0.016602, 0.199451), (0.006879, -0.016268, 0.091439), (0.005804, -0.013302, 0.223613), (0.007819, -0.016573, 0.096195), (0.007768, -0.016563, 0.118289), (0.007196, -0.016806, 0.138045), (0.003210, -0.011042, 0.230506), (0.000329, -0.001054, 0.249245), (-0.000055, -0.000204, 0.250960), (0.005257, -0.015544, 0.084705), (0.008093, -0.016435, 0.163164), (0.007676, -0.016421, 0.092710), (0.008046, -0.016347, 0.180836), (-0.000056, -0.014186, 0.080484), (0.003019, -0.014030, 0.080722), (0.008129, -0.016384, 0.132991), (0.007626, -0.014566, 0.216178), (0.008301, -0.014984, 0.210462), (-0.002766, -0.013420, 0.079770), (0.008476, -0.015691, 0.199819), (0.008423, -0.012656, 0.221491), (0.005880, -0.011121, 0.228344), (0.009196, -0.015641, 0.181646), (0.001407, -0.003062, 0.245406), (0.009198, -0.014418, 0.087281), (0.003551, -0.007892, 0.235802), (0.002337, -0.005116, 0.241282), (0.007615, -0.014242, 0.084036), (0.005668, -0.013939, 0.081953), (0.009951, -0.014554, 0.091529), (0.009601, -0.015516, 0.165402), (0.010406, -0.014956, 0.127420), (0.009673, -0.015434, 0.139027), (0.010104, -0.015195, 0.106816), (0.009614, -0.013423, 0.216079), (0.010028, -0.014097, 0.208409), (0.007939, -0.011645, 0.224917), (0.010456, -0.014939, 0.095923), (0.010179, -0.014903, 0.092730), (-0.005850, -0.012570, 0.079905), (0.005626, -0.008426, 0.233148), (0.010628, -0.014246, 0.199359), (-0.000128, -0.012138, 0.077813), (-0.008810, -0.011507, 0.080725), (0.011032, -0.014357, 0.181632), (0.011187, -0.014395, 0.162948), (0.011018, -0.014471, 0.141980), (-0.002652, -0.011413, 0.077312), (0.007949, -0.010365, 0.227358), (0.009472, -0.013374, 0.084918), (0.003238, -0.011515, 0.077618), (-0.005944, -0.010506, 0.077577), (0.011968, -0.012357, 0.209649), (0.004840, -0.005713, 0.237901), (0.012340, -0.012089, 0.088320), (0.012433, -0.012678, 0.091929), (0.011682, -0.011551, 0.085014), (0.010007, -0.009952, 0.225133), (0.011118, -0.010750, 0.220622), (0.011307, -0.011970, 0.216200), (0.012966, -0.012768, 0.125346), (0.012768, -0.012910, 0.107142), (0.012865, -0.012861, 0.095742), (0.012822, -0.012714, 0.092664), (0.012624, -0.013124, 0.165602), (0.012925, -0.012779, 0.140388), (0.012642, -0.012523, 0.198225), (0.004190, -0.004061, 0.240925), (0.012958, -0.012569, 0.183810), (0.013111, -0.012612, 0.168376), (0.007356, -0.011790, 0.080217), (-0.000015, -0.009172, 0.074702), (0.002658, -0.009221, 0.075118), (0.009461, -0.012005, 0.082592), (0.006249, -0.010080, 0.077585), (0.007591, -0.006988, 0.232852), (-0.002521, -0.008900, 0.074785), (0.010375, -0.009902, 0.080832), (0.005215, -0.007677, 0.074903), (-0.005902, -0.008074, 0.075421), (0.008398, -0.008140, 0.077388), (0.006428, -0.005950, 0.074470), (-0.003693, 0.002863, 0.042448), (-0.004348, 0.001658, 0.041980), (-0.004257, 0.001932, 0.020753), (-0.003404, 0.003231, 0.011948), (-0.004315, 0.002088, 0.055725), (-0.003488, 0.003351, 0.057916), (-0.003512, 0.003252, 0.072118), (-0.004428, 0.001660, 0.068949), (-0.003999, 0.002446, 0.001017), (-0.004451, 0.001422, 0.072143), (-0.004387, 0.001526, 0.005030), (-0.004642, 0.001110, 0.001271), (-0.003092, 0.003586, 0.040841), (-0.003063, 0.003581, 0.004131), (-0.004578, 0.001179, 0.050130), (-0.004541, 0.000766, 0.008492), (-0.002631, 0.003854, 0.001018), (-0.004635, 0.000850, 0.063255), (-0.004512, 0.000789, 0.041320), (-0.002688, 0.003825, 0.012089), (-0.002762, 0.003911, 0.063121), (-0.001822, 0.004433, 0.072121), (-0.001649, 0.004402, 0.007436), (-0.001658, 0.004427, 0.039451), (-0.001637, 0.004444, 0.019311), (-0.001703, 0.004466, 0.053144), (-0.000692, 0.004637, 0.001291), (-0.004655, -0.000272, 0.051393), (-0.004525, -0.000325, 0.041554), (-0.004565, -0.000327, 0.009389), (-0.004571, -0.000326, 0.070049), (-0.004606, -0.000117, 0.072159), (-0.004667, -0.000111, 0.001581), (-0.004454, -0.000986, 0.027151), (-0.004438, -0.001300, 0.065309), (-0.004446, -0.001353, 0.052119), (-0.004354, -0.001377, 0.001396), (-0.004328, -0.001287, 0.042866), (-0.004251, -0.001577, 0.072146), (-0.003945, -0.002237, 0.001061), (-0.003508, -0.002794, 0.005262), (-0.003750, -0.002357, 0.042622), (-0.003620, -0.002792, 0.054705), (-0.003501, -0.002757, 0.070037), (-0.003441, -0.003007, 0.072133), (-0.003322, -0.002918, 0.040077), (-0.002797, -0.003508, 0.001171), (0.003389, 0.002862, 0.035853), (0.002819, 0.003530, 0.036387), (0.003156, 0.003268, 0.025429), (0.003378, 0.002938, 0.047883), (0.003174, 0.003329, 0.072138), (0.002822, 0.003622, 0.053490), (0.003997, 0.002001, 0.072193), (0.004009, 0.001904, 0.049902), (0.004005, 0.001863, 0.033000), (0.003381, 0.002882, 0.010086), (0.003986, 0.001887, 0.008420), (0.003543, 0.002724, 0.001016), (0.004093, 0.001593, 0.041977), (0.002823, 0.003537, 0.008804), (0.004314, 0.001106, 0.001229), (0.004293, 0.001188, 0.066496), (0.004231, 0.001136, 0.013075), (0.002372, 0.003855, 0.001030), (0.004264, 0.001038, 0.072180), (0.004375, 0.000291, 0.003049), (0.004219, 0.000858, 0.043490), (0.002564, 0.003820, 0.071930), (0.001938, 0.004161, 0.025348), (0.004351, -0.000240, 0.059776), (0.004291, -0.000273, 0.014343), (0.004244, -0.000263, 0.039902), (0.004315, -0.000621, 0.001217), (0.004184, -0.001016, 0.072173), (0.004126, -0.001251, 0.005802), (0.004149, -0.001182, 0.023730), (0.004193, -0.001243, 0.063594), (0.004100, -0.001139, 0.040517), (0.001346, 0.004399, 0.037722), (0.002498, 0.003766, 0.045270), (0.001538, 0.004354, 0.049373), (0.001511, 0.004444, 0.072138), (0.001279, 0.004407, 0.011183), (0.001591, 0.004333, 0.005469), (0.000431, 0.004632, 0.001311), (0.000778, 0.004559, 0.014102), (0.000698, 0.004626, 0.061042), (0.000420, 0.004578, 0.041608), (0.000283, 0.004663, 0.072114), (-0.000690, 0.004625, 0.045549), (-0.000679, 0.004603, 0.013264), (-0.000823, 0.004642, 0.071893), (0.000721, -0.004159, 0.040310), (0.001545, -0.003874, 0.040412), (0.001442, -0.004020, 0.023802), (0.001555, -0.004061, 0.064281), (0.000410, -0.004307, 0.064320), (0.000425, -0.004257, 0.022935), (0.000387, -0.004298, 0.004307), (0.001547, -0.003994, 0.006193), (0.001399, -0.003998, 0.072109), (0.000436, -0.004170, 0.072104), (0.000584, -0.004421, 0.001214), (0.002364, -0.003589, 0.001116), (0.002605, -0.003265, 0.029596), (0.003096, -0.003000, 0.072146), (0.002517, -0.003290, 0.043898), (0.003028, -0.003125, 0.063939), (0.003046, -0.002808, 0.040497), (0.003122, -0.002881, 0.006133), (0.003587, -0.002303, 0.001024), (0.003531, -0.002327, 0.021230), (0.003586, -0.002416, 0.060930), (0.003433, -0.002317, 0.039468), (-0.000696, -0.004224, 0.038985), (-0.000708, -0.004302, 0.063938), (-0.000810, -0.004357, 0.001337), (-0.001381, -0.004105, 0.072104), (-0.001640, -0.004100, 0.064626), (-0.001656, -0.004009, 0.040034), (-0.001775, -0.004037, 0.005523), (-0.002249, -0.003827, 0.055561), (-0.002433, -0.003565, 0.069672), (-0.002701, -0.003388, 0.041568), (-0.002680, -0.003483, 0.005300), (-0.000145, -0.004120, 0.001000), (0.006167, -0.002371, 0.072933), (0.006768, -0.000295, 0.073009), (0.006963, 0.001962, 0.073253), (0.004981, 0.004594, 0.072928), (0.004898, -0.004928, 0.073148), (0.002582, -0.006213, 0.072975), (0.000573, -0.006667, 0.072934), (-0.001472, -0.006603, 0.072981), (0.002627, 0.006660, 0.073054), (0.000210, 0.006882, 0.072891), (-0.004519, -0.005128, 0.072992), (-0.002561, 0.006710, 0.073054), (-0.006471, -0.002491, 0.072944), (-0.007062, -0.000040, 0.072994), (-0.006659, 0.002981, 0.073109), (-0.004867, 0.005063, 0.072941), (-0.004668, -0.007055, 0.074112), (-0.007493, -0.005161, 0.074492), (-0.008717, 0.000173, 0.074064), (-0.008446, -0.002945, 0.074281), (-0.008017, 0.003563, 0.074113), (-0.006631, 0.006542, 0.074504), (-0.003015, 0.008227, 0.074102), (0.000147, 0.009365, 0.074622), (0.002504, 0.008644, 0.074354), (0.005358, 0.007313, 0.074449), (0.007521, 0.004606, 0.074366), (-0.005545, 0.009325, 0.075959), (-0.010215, 0.002937, 0.075719), (-0.009369, 0.005725, 0.076052), (-0.002669, 0.009982, 0.075496), (-0.010323, 0.000063, 0.075454), (-0.008255, 0.008320, 0.076827), (0.000137, 0.011514, 0.076711), (-0.005104, 0.011511, 0.077944), (0.005671, 0.009990, 0.076706), (-0.008045, 0.011562, 0.079716), (-0.009607, 0.009843, 0.079226), (-0.011694, 0.007951, 0.079711), (-0.010995, 0.011049, 0.081935), (0.007339, 0.009214, 0.077087), (0.008485, 0.007407, 0.076585), (0.011223, 0.008560, 0.080059), (0.010549, 0.005668, 0.077467), (0.008850, -0.000054, 0.074475), (0.010063, 0.003000, 0.075990), (0.008230, -0.003313, 0.074513), (0.000168, 0.000176, 0.250814), (0.001880, -0.001182, 0.247387), (0.003084, -0.002558, 0.244174), (0.018023, 0.000096, 0.170676), (0.018113, 0.000151, 0.149388), (0.017787, -0.003311, 0.165240), (0.017648, -0.003097, 0.183366), (0.017720, -0.000203, 0.195714), (0.017869, -0.003273, 0.140673), (0.018209, 0.000252, 0.133418), (0.017952, -0.003252, 0.120903), (0.018253, 0.000119, 0.117429), (0.018015, -0.003150, 0.101831), (0.018309, 0.000169, 0.103681), (0.017432, -0.003046, 0.197068), (0.018138, -0.000122, 0.093226), (0.017957, -0.003230, 0.095567), (0.017450, -0.000015, 0.204458), (0.017125, -0.003136, 0.205037), (0.017818, -0.003111, 0.092562), (0.016991, -0.000050, 0.211283), (0.016592, -0.002755, 0.212777), (0.016413, 0.000064, 0.216200), (0.016166, -0.002793, 0.216150), (0.017579, 0.002596, 0.195977), (0.016950, 0.002676, 0.210403), (0.017864, 0.002717, 0.167492), (0.017945, 0.002766, 0.140653), (0.017994, 0.002803, 0.123386), (0.018039, 0.003125, 0.112606), (0.018075, 0.002997, 0.102058), (0.017990, 0.003067, 0.095987), (0.017239, 0.002978, 0.205175), (0.017808, 0.002992, 0.092599), (0.016156, 0.003091, 0.216540), (0.017517, 0.004893, 0.135679), (0.017385, 0.004979, 0.150380), (0.017336, 0.004550, 0.181213), (0.017421, 0.004780, 0.167620), (0.016845, 0.005313, 0.201407), (0.016353, 0.005369, 0.210405), (0.015608, 0.005632, 0.216163), (0.015034, 0.000231, 0.222107), (0.017298, 0.005848, 0.098159), (0.017334, 0.005681, 0.119213), (0.016895, 0.006359, 0.092628), (0.014683, 0.002740, 0.222624), (0.017827, 0.000042, 0.091954), (0.016920, 0.006243, 0.170416), (0.016412, 0.006580, 0.201558), (0.016850, 0.006686, 0.142128), (0.015221, -0.002857, 0.220321), (0.016275, -0.004926, 0.210786), (0.017156, -0.005765, 0.168609), (0.017186, -0.005918, 0.149796), (0.016725, -0.005884, 0.197354), (0.016912, -0.005979, 0.185142), (0.016428, -0.005909, 0.204347), (0.017146, -0.005792, 0.092833), (0.017268, -0.005838, 0.096198), (0.017160, -0.005981, 0.112294), (0.017312, -0.005664, 0.120163), (0.017122, -0.006038, 0.132957), (0.014105, -0.002641, 0.224294), (0.015136, -0.006346, 0.216310), (0.014448, -0.005937, 0.219872), (0.013773, 0.000276, 0.225775), (0.015622, -0.006845, 0.210597), (0.017552, -0.003141, 0.091729), (0.016979, -0.002904, 0.087140), (0.017179, 0.000171, 0.086760), (0.017033, 0.002816, 0.087117), (0.017550, 0.003203, 0.091891), (0.016568, -0.006332, 0.091641), (0.015906, -0.006278, 0.087195), (0.015825, -0.003351, 0.083771), (0.016269, 0.000265, 0.083887), (0.016202, -0.008237, 0.167529), (0.016285, -0.008253, 0.122249), (0.016335, -0.008143, 0.095757), (0.015945, 0.003086, 0.083843), (0.014403, 0.005188, 0.221600), (0.016137, 0.005546, 0.086602), (0.016501, 0.006596, 0.091835), (0.012897, 0.002518, 0.227458), (0.013303, -0.006000, 0.223656), (0.016151, -0.008365, 0.147980), (0.016150, -0.008362, 0.129951), (0.016195, -0.008036, 0.092686), (0.016104, -0.008446, 0.111897), (0.015541, -0.008435, 0.199625), (0.015912, -0.008314, 0.184585), (0.012230, -0.002551, 0.228690), (0.011175, -0.000631, 0.231340), (0.015151, 0.008337, 0.210708), (0.014840, 0.007454, 0.216555), (0.016135, 0.007764, 0.184652), (0.016300, 0.007802, 0.166958), (0.015700, 0.007309, 0.088193), (0.016393, 0.007968, 0.116193), (0.016419, 0.007913, 0.097968), (0.016270, 0.007911, 0.151088), (0.016292, 0.008044, 0.132799), (0.012996, 0.005695, 0.225179), (0.015305, 0.008825, 0.202915), (0.014966, 0.006087, 0.083723), (0.013297, 0.007214, 0.222619), (0.015498, 0.009286, 0.092960), (0.009720, 0.001072, 0.233995), (0.012080, 0.004063, 0.228348), (0.012082, -0.004853, 0.227548), (0.014811, 0.008613, 0.086938), (0.015370, 0.009421, 0.172337), (0.015312, 0.009629, 0.150314), (0.006813, 0.000160, 0.239360), (0.009753, 0.003354, 0.233131), (0.013558, 0.009847, 0.216249), (0.015304, 0.009874, 0.106233), (0.015288, 0.009771, 0.131667), (0.014519, 0.010142, 0.091670), (0.012855, 0.009412, 0.220105), (0.007564, 0.002018, 0.237619), (0.003853, 0.001604, 0.244179), (0.003243, 0.000651, 0.245629), (0.003315, -0.000258, 0.245524), (0.014340, 0.010382, 0.202671), (0.011212, 0.006035, 0.228560), (0.009052, -0.002114, 0.234775), (0.010910, -0.005524, 0.229246), (0.014630, -0.008591, 0.211405), (0.003875, -0.001243, 0.244153), (0.014554, -0.006662, 0.083747), (0.008040, -0.004133, 0.235193), (0.005488, -0.002599, 0.240504), (0.014009, -0.010443, 0.204971), (0.014981, -0.009353, 0.091490), (0.014589, -0.008871, 0.087247), (0.012787, -0.008431, 0.221198), (0.013086, -0.009924, 0.216466), (0.014974, -0.010332, 0.166338), (0.014568, -0.010616, 0.182869), (0.014323, -0.010455, 0.198894), (0.014252, -0.002836, 0.080800), (0.014888, -0.010435, 0.141972), (0.014975, -0.010365, 0.122467), (0.014988, -0.010247, 0.107703), (0.014833, -0.010526, 0.095862), (0.014359, 0.000426, 0.080546), (0.014044, 0.003036, 0.080520), (0.013510, -0.010246, 0.211875), (0.014510, -0.010615, 0.092626), (0.011559, -0.008262, 0.224770), (0.013371, 0.009359, 0.083920), (0.013794, 0.010353, 0.087381), (0.013261, 0.011132, 0.211446), (0.011184, 0.008198, 0.226291), (0.011312, 0.010424, 0.222255), (0.014186, 0.011077, 0.178688), (0.014295, 0.011109, 0.156020), (0.014264, 0.011238, 0.134571), (0.008079, 0.004373, 0.235284), (0.014228, 0.011089, 0.093042), (0.014151, 0.011456, 0.110220), (0.012786, 0.006371, 0.080337), (0.012989, -0.005690, 0.080474), (0.013525, -0.008748, 0.084175), (0.010206, -0.006862, 0.229063), (0.013554, 0.011945, 0.164431), (0.007294, 0.005553, 0.235408), (0.012272, 0.002734, 0.078251), (0.011647, 0.000201, 0.077209), (0.011528, -0.002514, 0.077373), (0.011277, -0.004678, 0.077944), (0.011879, -0.007945, 0.080754), (0.009936, -0.006293, 0.077463)]
    texCoord2f[] primvars:st = [(0.507225, 0.499023), (0.654895, 0.497956), (0.601654, 0.519364), (0.738102, 0.518596), (0.789473, 0.498157), (0.846434, 0.497127), (0.339071, 0.501380), (0.434846, 0.500446), (0.460791, 0.520917), (0.347486, 0.521066), (0.879677, 0.518397), (0.892193, 0.497944), (0.905142, 0.517013), (0.290489, 0.501630), (0.284696, 0.521310), (0.903250, 0.494047), (0.249818, 0.501892), (0.252752, 0.521700), (0.436479, 0.483746), (0.310900, 0.479587), (0.538817, 0.478189), (0.351022, 0.477940), (0.275211, 0.487509), (0.854360, 0.476745), (0.783740, 0.476132), (0.680817, 0.474788), (0.608625, 0.475126), (0.905336, 0.476415), (0.250295, 0.481942), (0.277811, 0.475183), (0.508419, 0.470819), (0.298820, 0.539823), (0.911973, 0.496774), (0.891711, 0.539313), (0.904761, 0.539413), (0.736164, 0.538328), (0.607380, 0.538569), (0.519782, 0.538372), (0.435019, 0.538761), (0.350930, 0.540339), (0.248538, 0.540971), (0.225403, 0.522030), (0.224778, 0.503133), (0.911931, 0.517501), (0.928382, 0.518834), (0.940178, 0.499480), (0.912222, 0.540199), (0.942158, 0.518566), (0.935733, 0.539352), (0.938009, 0.476832), (0.911930, 0.477639), (0.223605, 0.479971), (0.207298, 0.521228), (0.206688, 0.503460), (0.286745, 0.559613), (0.518228, 0.556651), (0.422773, 0.557316), (0.759557, 0.557229), (0.947806, 0.539636), (0.339863, 0.560933), (0.902062, 0.556658), (0.211472, 0.541797), (0.247031, 0.561372), (0.931480, 0.561273), (0.911477, 0.559408), (0.825896, 0.564708), (0.446717, 0.568071), (0.547323, 0.564782), (0.515221, 0.574159), (0.659146, 0.574199), (0.953716, 0.517903), (0.953464, 0.500543), (0.946253, 0.559267), (0.207065, 0.480103), (0.187932, 0.521761), (0.209659, 0.562510), (0.902577, 0.575291), (0.852575, 0.574765), (0.763733, 0.574159), (0.344410, 0.576628), (0.286573, 0.575065), (0.182634, 0.541427), (0.184660, 0.504484), (0.186568, 0.487240), (0.912195, 0.575314), (0.438241, 0.582111), (0.245311, 0.576899), (0.953393, 0.477209), (0.303096, 0.462262), (0.904813, 0.461004), (0.602229, 0.457045), (0.681637, 0.456098), (0.754084, 0.455935), (0.848024, 0.456031), (0.526899, 0.457652), (0.350650, 0.458706), (0.248268, 0.460319), (0.282335, 0.449569), (0.912125, 0.454169), (0.937523, 0.457764), (0.962011, 0.539288), (0.132849, 0.515770), (0.146795, 0.528170), (0.946492, 0.574333), (0.169294, 0.501552), (0.107292, 0.525308), (0.080839, 0.518967), (0.070726, 0.525149), (0.044283, 0.521024), (0.135713, 0.536224), (0.676314, 0.588715), (0.508844, 0.589519), (0.304094, 0.591768), (0.180645, 0.557352), (0.138279, 0.549195), (0.939388, 0.588934), (0.270926, 0.592722), (0.746513, 0.596795), (0.826834, 0.596129), (0.372037, 0.595909), (0.956342, 0.564552), (0.078672, 0.532975), (0.241639, 0.589716), (0.206202, 0.579712), (0.903713, 0.596916), (0.913247, 0.592031), (0.662607, 0.598776), (0.194000, 0.574516), (0.972935, 0.517489), (0.970887, 0.498060), (0.965110, 0.476717), (0.089444, 0.510459), (0.123978, 0.502777), (0.952962, 0.458488), (0.221081, 0.456155), (0.338459, 0.444652), (0.104070, 0.539929), (0.504175, 0.603331), (0.176193, 0.480981), (0.513512, 0.441568), (0.603333, 0.439360), (0.694578, 0.440393), (0.843034, 0.441364), (0.905630, 0.441884), (0.066258, 0.512347), (0.305604, 0.437202), (0.201047, 0.455108), (0.939223, 0.440950), (0.245803, 0.438568), (0.140116, 0.486004), (0.333219, 0.606394), (0.981480, 0.539834), (0.913364, 0.426152), (0.060064, 0.531045), (0.179948, 0.462978), (0.176383, 0.572334), (0.977997, 0.561770), (0.095698, 0.498484), (0.348871, 0.433248), (0.281513, 0.610854), (0.975345, 0.476964), (0.956753, 0.590882), (0.246693, 0.605994), (0.282331, 0.427903), (0.470701, 0.423457), (0.536506, 0.420569), (0.612589, 0.420887), (0.695836, 0.422058), (0.778721, 0.420663), (0.905037, 0.421978), (0.218103, 0.438141), (0.967686, 0.579780), (0.993357, 0.517668), (0.996051, 0.497137), (0.974831, 0.455974), (0.221428, 0.604617), (0.827063, 0.617477), (0.511203, 0.617893), (0.681406, 0.617893), (0.904436, 0.616113), (0.914789, 0.614940), (0.142607, 0.566827), (0.115172, 0.554024), (0.084282, 0.542080), (0.198220, 0.597500), (0.331801, 0.615854), (0.942027, 0.615274), (0.955825, 0.609417), (0.959825, 0.433249), (0.996440, 0.476201), (0.137091, 0.469674), (0.162643, 0.585437), (0.081770, 0.498554), (0.175845, 0.446424), (0.043620, 0.525055), (0.105996, 0.482662), (0.977450, 0.442151), (0.105182, 0.561192), (0.999349, 0.455241), (0.500933, 0.696859), (0.401764, 0.716636), (0.368989, 0.695735), (0.285235, 0.695726), (0.181379, 0.716555), (0.178916, 0.694692), (0.297259, 0.716221), (0.141883, 0.716921), (0.123775, 0.695782), (0.521890, 0.717504), (0.595030, 0.701486), (0.587414, 0.720573), (0.642942, 0.719276), (0.688078, 0.699806), (0.693609, 0.721216), (0.730104, 0.700657), (0.743661, 0.719921), (0.122421, 0.716668), (0.758512, 0.700135), (0.776674, 0.720424), (0.776957, 0.700396), (0.590214, 0.676933), (0.508528, 0.682796), (0.361155, 0.675999), (0.263521, 0.675659), (0.745415, 0.686284), (0.698402, 0.676476), (0.121876, 0.675046), (0.180849, 0.674070), (0.778256, 0.680474), (0.502039, 0.672045), (0.753322, 0.675417), (0.305421, 0.667284), (0.184843, 0.664590), (0.121823, 0.662659), (0.115053, 0.695471), (0.115353, 0.716435), (0.093170, 0.715390), (0.093432, 0.695187), (0.115446, 0.670787), (0.092140, 0.672193), (0.688108, 0.735698), (0.477855, 0.735768), (0.301250, 0.734984), (0.184762, 0.738448), (0.585634, 0.736908), (0.746045, 0.735369), (0.137569, 0.738808), (0.122572, 0.738463), (0.115304, 0.736270), (0.777643, 0.736974), (0.090338, 0.734395), (0.812582, 0.702079), (0.812151, 0.720752), (0.802268, 0.679551), (0.812441, 0.737594), (0.074843, 0.693677), (0.074722, 0.715736), (0.075271, 0.734358), (0.744407, 0.752834), (0.488492, 0.755950), (0.580986, 0.754759), (0.677301, 0.754680), (0.303551, 0.747854), (0.827521, 0.721482), (0.777841, 0.755072), (0.805563, 0.754965), (0.097667, 0.749816), (0.334079, 0.757578), (0.185952, 0.754221), (0.124181, 0.760218), (0.115337, 0.758395), (0.693887, 0.765043), (0.584005, 0.765793), (0.182062, 0.762332), (0.833498, 0.702553), (0.834948, 0.737069), (0.750799, 0.766996), (0.498440, 0.767124), (0.336306, 0.768124), (0.082740, 0.757032), (0.091566, 0.761836), (0.828350, 0.755160), (0.780320, 0.777706), (0.809151, 0.768592), (0.587483, 0.780344), (0.686786, 0.780137), (0.498399, 0.780648), (0.323398, 0.780422), (0.182911, 0.779650), (0.121732, 0.777370), (0.743579, 0.779992), (0.857159, 0.723991), (0.854470, 0.704422), (0.072174, 0.759482), (0.114850, 0.784978), (0.089967, 0.781187), (0.825848, 0.680113), (0.072844, 0.672694), (0.578341, 0.657814), (0.696998, 0.659001), (0.511472, 0.658290), (0.359806, 0.656867), (0.749606, 0.656665), (0.780083, 0.656846), (0.869446, 0.741347), (0.283115, 0.657334), (0.095612, 0.652164), (0.898553, 0.717091), (0.848819, 0.755506), (0.910659, 0.727655), (0.963353, 0.718710), (0.900594, 0.707803), (0.967771, 0.725314), (0.832506, 0.769735), (0.699993, 0.797241), (0.323084, 0.796768), (0.570130, 0.797612), (0.487630, 0.796955), (0.938223, 0.734566), (0.846330, 0.679883), (0.891133, 0.692918), (0.088692, 0.654928), (0.908521, 0.742374), (0.877889, 0.755364), (0.115190, 0.644941), (0.818883, 0.657677), (0.201746, 0.641486), (0.698181, 0.644465), (0.588009, 0.642387), (0.532624, 0.641692), (0.423895, 0.641650), (0.329260, 0.641044), (0.054394, 0.694165), (0.072091, 0.656702), (0.949249, 0.710307), (0.123674, 0.640550), (0.056761, 0.735610), (0.924416, 0.704410), (0.052905, 0.715455), (0.756883, 0.640472), (0.814827, 0.783340), (0.071517, 0.781845), (0.749685, 0.796663), (0.189943, 0.795551), (0.954036, 0.732189), (0.122052, 0.792409), (0.781813, 0.796678), (0.052616, 0.756461), (0.846343, 0.774079), (0.051517, 0.671102), (0.883066, 0.680646), (0.037164, 0.733829), (0.058348, 0.775063), (0.889105, 0.761331), (0.783928, 0.634141), (0.814181, 0.647778), (0.090387, 0.626711), (0.114693, 0.622860), (0.121090, 0.622632), (0.351931, 0.621153), (0.300879, 0.619565), (0.210011, 0.620943), (0.580389, 0.623266), (0.490068, 0.623064), (0.846473, 0.655463), (0.959609, 0.708930), (0.913761, 0.686686), (0.724015, 0.625574), (0.688405, 0.622316), (0.069079, 0.632705), (0.049725, 0.655802), (0.832650, 0.645899), (0.030599, 0.690288), (0.966754, 0.707364), (0.940406, 0.686255), (0.870108, 0.657257), (0.049887, 0.635789), (0.927861, 0.687037), (0.547302, 0.121883), (0.446172, 0.101405), (0.600951, 0.101070), (0.754889, 0.126059), (0.687108, 0.101665), (0.843601, 0.105037), (0.844818, 0.125427), (0.631202, 0.120517), (0.435929, 0.119538), (0.299736, 0.119846), (0.307734, 0.101480), (0.275270, 0.103497), (0.864710, 0.127046), (0.863030, 0.106160), (0.242109, 0.121584), (0.650215, 0.128245), (0.243002, 0.103310), (0.295555, 0.129120), (0.597264, 0.140220), (0.474295, 0.141769), (0.414628, 0.138490), (0.250557, 0.139508), (0.859668, 0.142800), (0.814446, 0.147171), (0.696345, 0.146032), (0.296449, 0.142909), (0.209727, 0.138817), (0.209924, 0.120928), (0.210747, 0.103483), (0.395084, 0.148430), (0.235527, 0.150881), (0.595786, 0.149965), (0.266714, 0.164803), (0.695864, 0.162216), (0.847199, 0.165409), (0.476692, 0.166085), (0.404943, 0.164235), (0.308824, 0.164504), (0.579694, 0.165249), (0.208023, 0.155347), (0.865494, 0.155103), (0.234282, 0.166158), (0.182748, 0.120168), (0.184685, 0.143923), (0.205475, 0.166980), (0.871384, 0.144861), (0.867865, 0.172159), (0.736194, 0.170598), (0.293418, 0.180864), (0.166640, 0.144123), (0.166378, 0.120112), (0.242538, 0.182649), (0.469893, 0.182723), (0.623105, 0.182964), (0.733197, 0.183848), (0.180893, 0.166412), (0.205124, 0.182849), (0.851218, 0.182990), (0.286193, 0.198141), (0.161325, 0.170723), (0.139982, 0.154037), (0.148179, 0.136660), (0.872502, 0.174755), (0.895325, 0.145252), (0.897070, 0.167830), (0.894505, 0.123219), (0.870660, 0.125821), (0.897921, 0.184996), (0.909328, 0.144647), (0.913841, 0.167538), (0.870215, 0.106431), (0.893969, 0.104768), (0.914902, 0.121543), (0.908373, 0.105816), (0.179483, 0.100799), (0.142707, 0.113979), (0.120146, 0.137496), (0.126811, 0.123605), (0.266547, 0.082823), (0.160069, 0.100207), (0.305445, 0.082226), (0.445716, 0.079250), (0.491989, 0.079015), (0.642718, 0.077903), (0.791038, 0.081253), (0.848303, 0.082401), (0.865540, 0.084916), (0.694030, 0.078551), (0.233759, 0.083294), (0.870917, 0.082363), (0.210354, 0.083684), (0.898090, 0.086032), (0.174911, 0.082308), (0.093797, 0.123109), (0.924072, 0.144813), (0.109541, 0.110329), (0.065212, 0.110231), (0.088735, 0.133830), (0.056262, 0.122105), (0.035122, 0.114654), (0.297482, 0.065524), (0.411557, 0.060228), (0.012357, 0.107335), (0.125136, 0.096587), (0.153296, 0.083463), (0.256340, 0.062315), (0.474036, 0.062772), (0.628069, 0.064492), (0.841739, 0.064637), (0.681511, 0.063633), (0.911598, 0.087084), (0.865369, 0.068093), (0.208434, 0.061422), (0.228625, 0.059403), (0.043956, 0.100669), (0.071138, 0.095497), (0.896845, 0.063244), (0.298158, 0.055042), (0.873772, 0.057320), (0.168558, 0.062376), (0.848815, 0.050102), (0.731578, 0.048229), (0.626459, 0.051726), (0.129892, 0.080208), (0.012101, 0.100293), (0.001271, 0.103134), (0.908391, 0.070544), (0.492263, 0.044525), (0.867007, 0.052092), (0.397663, 0.044608), (0.930619, 0.106209), (0.930159, 0.085684), (0.653404, 0.044829), (0.208447, 0.048937), (0.238932, 0.043194), (0.935378, 0.124604), (0.295922, 0.041259), (0.178337, 0.042507), (0.140792, 0.060938), (0.393271, 0.035308), (0.036437, 0.092279), (0.897783, 0.041118), (0.096261, 0.076969), (0.062223, 0.085401), (0.914164, 0.053594), (0.924751, 0.067335), (0.875198, 0.033046), (0.480303, 0.032333), (0.683132, 0.026580), (0.621226, 0.032198), (0.792726, 0.030480), (0.207712, 0.033079), (0.249306, 0.028938), (0.159061, 0.045724), (0.851117, 0.029088), (0.868301, 0.032176), (0.936276, 0.146217), (0.110673, 0.061324), (0.297983, 0.023278), (0.948254, 0.107306), (0.934365, 0.168671), (0.393260, 0.019808), (0.493440, 0.018960), (0.605500, 0.020734), (0.952245, 0.125108), (0.144124, 0.044630), (0.911615, 0.038672), (0.951369, 0.083826), (0.952860, 0.149044), (0.241553, 0.011367), (0.080273, 0.065790), (0.895893, 0.012356), (0.875076, 0.010482), (0.914857, 0.018340), (0.154652, 0.027524), (0.179912, 0.018522), (0.205466, 0.017627), (0.694296, 0.003561), (0.791258, 0.006200), (0.852968, 0.006873), (0.870402, 0.007876), (0.479241, 0.005697), (0.614065, 0.003245), (0.303640, 0.004605), (0.061020, 0.069914), (0.381414, 0.001738), (0.464355, 0.000836), (0.938554, 0.053932), (0.971965, 0.107349), (0.970299, 0.087493), (0.926461, 0.037613), (0.956034, 0.061038), (0.108421, 0.044038), (0.972009, 0.126061), (0.941070, 0.027971), (0.976659, 0.066973), (0.970779, 0.152018), (0.963442, 0.042199), (0.985026, 0.055199), (0.560934, 0.863899), (0.558397, 0.854465), (0.444816, 0.857540), (0.397768, 0.868712), (0.631746, 0.856886), (0.643461, 0.867148), (0.719213, 0.866198), (0.702261, 0.853678), (0.339226, 0.862550), (0.719305, 0.852025), (0.360664, 0.855411), (0.340490, 0.852362), (0.552375, 0.870439), (0.355960, 0.872471), (0.601884, 0.850584), (0.379183, 0.849862), (0.339319, 0.876079), (0.671877, 0.848083), (0.554835, 0.848390), (0.398556, 0.875106), (0.671237, 0.873290), (0.719277, 0.880388), (0.373708, 0.883545), (0.544988, 0.881912), (0.437246, 0.883124), (0.618029, 0.881623), (0.340833, 0.890468), (0.608585, 0.840598), (0.556041, 0.840693), (0.383956, 0.842265), (0.708122, 0.839962), (0.719401, 0.841388), (0.342263, 0.844062), (0.478958, 0.836817), (0.682815, 0.833268), (0.612431, 0.833051), (0.341213, 0.835193), (0.563009, 0.833839), (0.719312, 0.831062), (0.339193, 0.828769), (0.361812, 0.823621), (0.561644, 0.825473), (0.626192, 0.821567), (0.708068, 0.821416), (0.719277, 0.819767), (0.548008, 0.820764), (0.339705, 0.816890), (0.367741, 0.926255), (0.370610, 0.932316), (0.312063, 0.929644), (0.432009, 0.926371), (0.561589, 0.928676), (0.461982, 0.932276), (0.561849, 0.917915), (0.442771, 0.917984), (0.352480, 0.918205), (0.230096, 0.926980), (0.221168, 0.919002), (0.181641, 0.925745), (0.400426, 0.916025), (0.223265, 0.932964), (0.182736, 0.913413), (0.531390, 0.912174), (0.246024, 0.913451), (0.181756, 0.936948), (0.561747, 0.911002), (0.192456, 0.907790), (0.408492, 0.910838), (0.560469, 0.934069), (0.311655, 0.940031), (0.495453, 0.902607), (0.252770, 0.903707), (0.389303, 0.903219), (0.182663, 0.901531), (0.561665, 0.896819), (0.207141, 0.897010), (0.302900, 0.897194), (0.515824, 0.895485), (0.392565, 0.897079), (0.377776, 0.944094), (0.418077, 0.934868), (0.440012, 0.942528), (0.561620, 0.942484), (0.236005, 0.945121), (0.205482, 0.943103), (0.183285, 0.951369), (0.251600, 0.948685), (0.502354, 0.948383), (0.398548, 0.950528), (0.561514, 0.951090), (0.419619, 0.958119), (0.247151, 0.958746), (0.560308, 0.958708), (0.801825, 0.918374), (0.802342, 0.924478), (0.713581, 0.922680), (0.929791, 0.925045), (0.930032, 0.916926), (0.708984, 0.915353), (0.609444, 0.914123), (0.619477, 0.922618), (0.971599, 0.924418), (0.971601, 0.917534), (0.592899, 0.915178), (0.592334, 0.928824), (0.744501, 0.932582), (0.971765, 0.938212), (0.820920, 0.932568), (0.927923, 0.937162), (0.802724, 0.937408), (0.619113, 0.936218), (0.591797, 0.941217), (0.699760, 0.941511), (0.911820, 0.943287), (0.797204, 0.941729), (0.794794, 0.908397), (0.928024, 0.909157), (0.593652, 0.905527), (0.971667, 0.904797), (0.931734, 0.902584), (0.800428, 0.901567), (0.616066, 0.898707), (0.883349, 0.897664), (0.958739, 0.896279), (0.808659, 0.893146), (0.614925, 0.891296), (0.228952, 0.872659), (0.045582, 0.943185), (0.044223, 0.928541), (0.045218, 0.913301), (0.058312, 0.899346), (0.050214, 0.962182), (0.062152, 0.972540), (0.072577, 0.977045), (0.083368, 0.978068), (0.071874, 0.889160), (0.083734, 0.890738), (0.099858, 0.970069), (0.096943, 0.894267), (0.110616, 0.953987), (0.114636, 0.939135), (0.114266, 0.920321), (0.106681, 0.906489), (0.100962, 0.985101), (0.116814, 0.973577), (0.124479, 0.938905), (0.122122, 0.958975), (0.122588, 0.917044), (0.118003, 0.896888), (0.101102, 0.883519), (0.086679, 0.871735), (0.074057, 0.874097), (0.058082, 0.878788), (0.043815, 0.893554), (0.116692, 0.875490), (0.136303, 0.921521), (0.133898, 0.902249), (0.102077, 0.868929), (0.135365, 0.940670), (0.131220, 0.883115), (0.089632, 0.851740), (0.119278, 0.855413), (0.057695, 0.854690), (0.138257, 0.854664), (0.144201, 0.869493), (0.155500, 0.883604), (0.159109, 0.856231), (0.047298, 0.856512), (0.039299, 0.868465), (0.020182, 0.845068), (0.023710, 0.874544), (0.030375, 0.923427), (0.024957, 0.897505), (0.030536, 0.948364), (0.983281, 0.311904), (0.961910, 0.302187), (0.943105, 0.291416), (0.533974, 0.312905), (0.419834, 0.314436), (0.504693, 0.289537), (0.601917, 0.290228), (0.668098, 0.309935), (0.372991, 0.291160), (0.334331, 0.316049), (0.267237, 0.292604), (0.249005, 0.316193), (0.166308, 0.295558), (0.176292, 0.317741), (0.675334, 0.290295), (0.122285, 0.316923), (0.133783, 0.296076), (0.714522, 0.311142), (0.717677, 0.289798), (0.118502, 0.297476), (0.750400, 0.310884), (0.758401, 0.292644), (0.776061, 0.311668), (0.776049, 0.292577), (0.669564, 0.329206), (0.745886, 0.329262), (0.517010, 0.331238), (0.373131, 0.333087), (0.280933, 0.334352), (0.223619, 0.337174), (0.167967, 0.336921), (0.136517, 0.337725), (0.718420, 0.331546), (0.119223, 0.337367), (0.778027, 0.331885), (0.346615, 0.348392), (0.425362, 0.348301), (0.590598, 0.343594), (0.517795, 0.345831), (0.698695, 0.348170), (0.746289, 0.347862), (0.776632, 0.349367), (0.807379, 0.312841), (0.147591, 0.356885), (0.258811, 0.355014), (0.118958, 0.360285), (0.810417, 0.329663), (0.115746, 0.318157), (0.532858, 0.356362), (0.699658, 0.357363), (0.381210, 0.361216), (0.798212, 0.292104), (0.748299, 0.277455), (0.522686, 0.271869), (0.421785, 0.271785), (0.676989, 0.270164), (0.611442, 0.269607), (0.714273, 0.270187), (0.119109, 0.279272), (0.136378, 0.277956), (0.221285, 0.273922), (0.263155, 0.275516), (0.331550, 0.271796), (0.819649, 0.293572), (0.777880, 0.267856), (0.796924, 0.270553), (0.827505, 0.313199), (0.747762, 0.263592), (0.114110, 0.297260), (0.090880, 0.299858), (0.089576, 0.319641), (0.091335, 0.336566), (0.115502, 0.338980), (0.112482, 0.275230), (0.089392, 0.276945), (0.073152, 0.297359), (0.074744, 0.320574), (0.516824, 0.253550), (0.274114, 0.256163), (0.133370, 0.261434), (0.074218, 0.338715), (0.805659, 0.346467), (0.087911, 0.354945), (0.114613, 0.362473), (0.837352, 0.328484), (0.817742, 0.269935), (0.411948, 0.253492), (0.315326, 0.254562), (0.117406, 0.263215), (0.218866, 0.255551), (0.689404, 0.250932), (0.608473, 0.251970), (0.844709, 0.293851), (0.859977, 0.306945), (0.748634, 0.369506), (0.779384, 0.362477), (0.609218, 0.367013), (0.514404, 0.368220), (0.095351, 0.367529), (0.242894, 0.372121), (0.146462, 0.371905), (0.429296, 0.370029), (0.331398, 0.371988), (0.825794, 0.350434), (0.707243, 0.374363), (0.072231, 0.359095), (0.812347, 0.361220), (0.119940, 0.382135), (0.876343, 0.318825), (0.843322, 0.339410), (0.839376, 0.277655), (0.087994, 0.377173), (0.543346, 0.380732), (0.425254, 0.383691), (0.909745, 0.312312), (0.872036, 0.334945), (0.779020, 0.381131), (0.190058, 0.387518), (0.325429, 0.385863), (0.112483, 0.389950), (0.800026, 0.378060), (0.899360, 0.325622), (0.941030, 0.322774), (0.949684, 0.315738), (0.948942, 0.309202), (0.706254, 0.387103), (0.846105, 0.353938), (0.881749, 0.296191), (0.850229, 0.272172), (0.752658, 0.250170), (0.940763, 0.302005), (0.070488, 0.274501), (0.886272, 0.281063), (0.918829, 0.291959), (0.718576, 0.234917), (0.109911, 0.252296), (0.087519, 0.257766), (0.805959, 0.251288), (0.780743, 0.239774), (0.510375, 0.236762), (0.599301, 0.233402), (0.685763, 0.234465), (0.056272, 0.300552), (0.379624, 0.237031), (0.275113, 0.239001), (0.196269, 0.241609), (0.132978, 0.242241), (0.055479, 0.322046), (0.054823, 0.339343), (0.755902, 0.236647), (0.115504, 0.242346), (0.826420, 0.251958), (0.070721, 0.383429), (0.089085, 0.391132), (0.753753, 0.392349), (0.834655, 0.370103), (0.813531, 0.387556), (0.577564, 0.394269), (0.455941, 0.395723), (0.341021, 0.398051), (0.886672, 0.342996), (0.119692, 0.397159), (0.211268, 0.401056), (0.051407, 0.363078), (0.051660, 0.280576), (0.070442, 0.258690), (0.850825, 0.261652), (0.501120, 0.402807), (0.889305, 0.352422), (0.039671, 0.338155), (0.033065, 0.320819), (0.033508, 0.302087), (0.035341, 0.286740), (0.050100, 0.263349), (0.029030, 0.274036)] (
        interpolation = "vertex"
    )
    rel material:binding = <Material>

    def Material "Material"
    {
        token outputs:surface.connect = <PBRShader.outputs:surface>

        def Shader "PBRShader"
        {
            uniform token info:id = "UsdPreviewSurface"
            color3f inputs:diffuseColor.connect = <../DiffuseTexture.outputs:rgb>
            float inputs:metallic = 0.0
            float inputs:roughness = 0.5
            token outputs:surface
        }

        def Shader "DiffuseTexture"
        {
            uniform token info:id = "UsdUVTexture"
            asset inputs:file = @../textures/67ac28df_texture.png@
            float2 inputs:st.connect = <../PrimvarReader.outputs:result>
            token inputs:wrapS = "repeat"
            token inputs:wrapT = "repeat"
            float3 outputs:rgb
        }

        def Shader "PrimvarReader"
        {
            uniform token info:id = "UsdPrimvarReader_float2"
            token inputs:varname = "st"
            float2 outputs:result
        }
    }
}
