#usda 1.0
(
    defaultPrim = "Mesh"
    metersPerUnit = 1
    upAxis = "Z"
)

def Mesh "Mesh"
{
    int[] faceVertexCounts = [3, 3, 3, 3, 3, 3, 3, 3, 3, 3, 3, 3, 3, 3, 3, 3, 3, 3, 3, 3, 3, 3, 3, 3, 3, 3, 3, 3, 3, 3, 3, 3, 3, 3, 3, 3, 3, 3, 3, 3, 3, 3, 3, 3, 3, 3, 3, 3, 3, 3, 3, 3, 3, 3, 3, 3, 3, 3, 3, 3, 3, 3, 3, 3, 3, 3, 3, 3, 3, 3, 3, 3, 3, 3, 3, 3, 3, 3, 3, 3, 3, 3, 3, 3, 3, 3, 3, 3, 3, 3, 3, 3, 3, 3, 3, 3, 3, 3, 3, 3, 3, 3, 3, 3, 3, 3, 3, 3, 3, 3, 3, 3, 3, 3, 3, 3, 3, 3, 3, 3, 3, 3, 3, 3, 3, 3, 3, 3, 3, 3, 3, 3, 3, 3, 3, 3, 3, 3, 3, 3, 3, 3, 3, 3, 3, 3, 3, 3, 3, 3, 3, 3, 3, 3, 3, 3, 3, 3, 3, 3, 3, 3, 3, 3, 3, 3, 3, 3, 3, 3, 3, 3, 3, 3, 3, 3, 3, 3, 3, 3, 3, 3, 3, 3, 3, 3, 3, 3, 3, 3, 3, 3, 3, 3, 3, 3, 3, 3, 3, 3, 3, 3, 3, 3, 3, 3, 3, 3, 3, 3, 3, 3, 3, 3, 3, 3, 3, 3, 3, 3, 3, 3, 3, 3, 3, 3, 3, 3, 3, 3, 3, 3, 3, 3, 3, 3, 3, 3, 3, 3, 3, 3, 3, 3, 3, 3, 3, 3, 3, 3, 3, 3, 3, 3, 3, 3, 3, 3, 3, 3, 3, 3, 3, 3, 3, 3, 3, 3, 3, 3, 3, 3, 3, 3, 3, 3, 3, 3, 3, 3, 3, 3, 3, 3, 3, 3, 3, 3, 3, 3, 3, 3, 3, 3, 3, 3, 3, 3, 3, 3, 3, 3, 3, 3, 3, 3, 3, 3, 3, 3, 3, 3, 3, 3, 3, 3, 3, 3, 3, 3, 3, 3, 3, 3, 3, 3, 3, 3, 3, 3, 3, 3, 3, 3, 3, 3, 3, 3, 3, 3, 3, 3, 3, 3, 3, 3, 3, 3, 3, 3, 3, 3, 3, 3, 3, 3, 3, 3, 3, 3, 3, 3, 3, 3, 3, 3, 3, 3, 3, 3, 3, 3, 3, 3, 3, 3, 3, 3, 3, 3, 3, 3, 3, 3, 3, 3, 3, 3, 3, 3, 3, 3, 3, 3, 3, 3, 3, 3, 3, 3, 3, 3, 3, 3, 3, 3, 3, 3, 3, 3, 3, 3, 3, 3, 3, 3, 3, 3, 3, 3, 3, 3, 3, 3, 3, 3, 3, 3, 3, 3, 3, 3, 3, 3, 3, 3, 3, 3, 3, 3, 3, 3, 3, 3, 3, 3, 3, 3, 3, 3, 3, 3, 3, 3, 3, 3, 3, 3, 3, 3, 3, 3, 3, 3, 3, 3, 3, 3, 3, 3, 3, 3, 3, 3, 3, 3, 3, 3, 3, 3, 3, 3, 3, 3, 3, 3, 3, 3, 3, 3, 3, 3, 3, 3, 3, 3, 3, 3, 3, 3, 3, 3, 3, 3, 3, 3, 3, 3, 3, 3, 3, 3, 3, 3, 3, 3, 3, 3, 3, 3, 3, 3, 3, 3, 3, 3, 3, 3, 3, 3, 3, 3, 3, 3, 3, 3, 3, 3, 3, 3, 3, 3, 3, 3, 3, 3, 3, 3, 3, 3, 3, 3, 3, 3, 3, 3, 3, 3, 3, 3, 3, 3, 3, 3, 3, 3, 3, 3, 3, 3, 3, 3, 3, 3, 3, 3, 3, 3, 3, 3, 3, 3, 3, 3, 3, 3, 3, 3, 3, 3, 3, 3, 3, 3, 3, 3, 3, 3, 3, 3, 3, 3, 3, 3, 3, 3, 3, 3, 3, 3, 3, 3, 3, 3, 3, 3, 3, 3, 3, 3, 3, 3, 3, 3, 3, 3, 3, 3, 3, 3, 3, 3, 3, 3, 3, 3, 3, 3, 3, 3, 3, 3, 3, 3, 3, 3, 3, 3, 3, 3, 3, 3, 3, 3, 3, 3, 3, 3, 3, 3, 3, 3, 3, 3, 3, 3, 3, 3, 3, 3, 3, 3, 3, 3, 3, 3, 3, 3, 3, 3, 3, 3, 3, 3, 3, 3, 3, 3, 3, 3, 3, 3, 3, 3, 3, 3, 3, 3, 3, 3, 3, 3, 3, 3, 3, 3, 3, 3, 3, 3, 3, 3, 3, 3, 3, 3, 3, 3, 3, 3, 3, 3, 3, 3, 3, 3, 3, 3, 3, 3, 3, 3, 3, 3, 3, 3, 3, 3, 3, 3, 3, 3, 3, 3, 3, 3, 3, 3, 3, 3, 3, 3, 3, 3, 3, 3, 3, 3, 3, 3, 3, 3, 3, 3, 3, 3, 3, 3, 3, 3, 3, 3, 3, 3, 3, 3, 3, 3, 3, 3, 3, 3, 3, 3, 3, 3, 3, 3, 3, 3, 3, 3, 3, 3, 3, 3, 3, 3, 3, 3, 3, 3, 3, 3, 3, 3, 3, 3, 3, 3, 3, 3, 3, 3, 3, 3, 3, 3, 3, 3, 3, 3, 3, 3, 3, 3, 3, 3, 3, 3, 3, 3, 3, 3, 3, 3, 3, 3, 3, 3, 3, 3, 3, 3, 3, 3, 3, 3, 3, 3, 3, 3, 3, 3, 3, 3, 3, 3, 3, 3, 3, 3, 3, 3, 3, 3, 3, 3, 3, 3, 3, 3, 3, 3, 3, 3, 3, 3, 3, 3, 3, 3, 3, 3, 3, 3, 3, 3, 3, 3, 3, 3, 3, 3, 3, 3, 3, 3, 3, 3, 3, 3, 3, 3, 3, 3, 3, 3, 3, 3, 3, 3, 3, 3, 3, 3, 3, 3, 3, 3, 3, 3, 3, 3, 3, 3, 3, 3, 3, 3, 3, 3, 3, 3, 3, 3, 3, 3, 3, 3, 3, 3, 3, 3, 3, 3, 3, 3, 3, 3, 3, 3, 3, 3, 3, 3, 3, 3, 3, 3, 3, 3, 3, 3, 3, 3, 3, 3, 3, 3, 3, 3, 3, 3, 3, 3, 3, 3, 3, 3, 3, 3, 3, 3, 3, 3, 3, 3, 3, 3, 3, 3, 3, 3, 3, 3, 3, 3, 3, 3, 3, 3, 3, 3, 3, 3, 3, 3, 3, 3, 3, 3, 3, 3, 3, 3, 3, 3, 3, 3, 3, 3, 3, 3, 3, 3, 3, 3, 3, 3, 3, 3, 3, 3, 3, 3, 3, 3, 3, 3, 3, 3, 3, 3, 3, 3, 3, 3, 3, 3, 3, 3, 3, 3, 3, 3, 3, 3, 3, 3, 3, 3, 3, 3, 3, 3, 3, 3, 3, 3, 3, 3, 3, 3, 3, 3, 3, 3, 3, 3, 3, 3, 3, 3, 3, 3, 3, 3, 3, 3, 3, 3, 3, 3, 3, 3, 3, 3, 3, 3, 3, 3, 3, 3, 3, 3, 3, 3, 3, 3, 3, 3, 3, 3, 3, 3, 3, 3, 3, 3, 3, 3, 3, 3, 3, 3, 3, 3, 3, 3, 3, 3, 3, 3, 3, 3, 3, 3, 3, 3, 3, 3, 3, 3, 3, 3, 3, 3, 3, 3, 3, 3, 3, 3, 3, 3, 3, 3, 3, 3, 3, 3, 3, 3, 3, 3, 3, 3, 3, 3, 3, 3, 3, 3, 3, 3, 3, 3, 3, 3, 3, 3, 3, 3, 3, 3, 3, 3, 3, 3, 3, 3, 3, 3, 3, 3, 3, 3, 3, 3, 3, 3, 3, 3, 3, 3, 3, 3, 3, 3, 3, 3, 3, 3, 3, 3, 3, 3, 3, 3, 3, 3, 3, 3, 3, 3, 3, 3, 3, 3, 3, 3, 3, 3, 3, 3, 3, 3, 3, 3, 3, 3, 3, 3, 3, 3, 3, 3, 3, 3, 3, 3, 3, 3, 3, 3, 3, 3, 3, 3, 3, 3, 3, 3, 3, 3, 3, 3, 3, 3, 3, 3, 3, 3, 3, 3, 3, 3, 3, 3, 3, 3, 3, 3, 3, 3, 3, 3, 3, 3, 3, 3, 3, 3, 3, 3, 3, 3, 3, 3, 3, 3, 3, 3, 3, 3, 3, 3, 3, 3, 3, 3, 3, 3, 3, 3, 3, 3, 3, 3, 3, 3, 3, 3, 3, 3, 3, 3, 3, 3, 3, 3, 3, 3, 3, 3, 3, 3, 3, 3, 3, 3, 3, 3]
    int[] faceVertexIndices = [577, 658, 71, 71, 658, 67, 566, 576, 577, 577, 576, 658, 576, 651, 658, 658, 651, 67, 651, 66, 67, 576, 574, 651, 574, 650, 651, 651, 650, 66, 650, 65, 66, 574, 648, 650, 650, 648, 65, 648, 68, 65, 574, 575, 648, 575, 646, 648, 648, 60, 68, 646, 645, 648, 648, 645, 60, 646, 644, 645, 645, 61, 60, 644, 642, 645, 645, 62, 61, 645, 642, 62, 568, 643, 644, 644, 643, 642, 573, 640, 643, 643, 640, 642, 640, 641, 642, 642, 641, 62, 573, 632, 640, 640, 631, 641, 640, 632, 631, 573, 572, 632, 572, 569, 632, 569, 630, 632, 632, 630, 631, 630, 72, 631, 630, 160, 72, 236, 176, 243, 176, 175, 243, 243, 175, 663, 175, 174, 663, 663, 173, 662, 663, 174, 173, 662, 173, 177, 655, 172, 160, 176, 168, 175, 175, 168, 167, 175, 167, 174, 167, 164, 174, 174, 164, 173, 173, 164, 162, 173, 169, 177, 173, 162, 169, 177, 169, 170, 168, 161, 167, 167, 161, 164, 161, 155, 164, 164, 155, 162, 162, 163, 169, 145, 153, 161, 160, 629, 72, 160, 633, 629, 483, 634, 633, 633, 634, 629, 634, 635, 629, 629, 635, 74, 483, 484, 634, 634, 636, 635, 484, 637, 634, 634, 637, 636, 637, 638, 636, 636, 638, 136, 484, 639, 637, 637, 639, 638, 638, 127, 136, 484, 478, 639, 639, 647, 638, 638, 647, 127, 639, 482, 647, 482, 649, 647, 647, 649, 127, 649, 126, 127, 482, 481, 649, 481, 652, 649, 649, 652, 126, 481, 480, 652, 480, 653, 652, 653, 654, 652, 652, 654, 126, 654, 664, 126, 653, 657, 654, 653, 479, 657, 654, 657, 664, 657, 671, 664, 479, 659, 657, 657, 659, 671, 578, 71, 673, 673, 71, 59, 563, 577, 578, 578, 577, 71, 563, 566, 577, 71, 40, 59, 566, 564, 576, 576, 564, 574, 565, 574, 564, 565, 575, 574, 575, 567, 646, 565, 567, 575, 567, 568, 646, 568, 573, 643, 62, 64, 63, 70, 45, 64, 569, 655, 630, 238, 655, 569, 236, 225, 237, 236, 243, 231, 243, 241, 231, 231, 241, 232, 232, 241, 235, 241, 242, 235, 235, 242, 234, 242, 240, 234, 630, 655, 160, 70, 46, 45, 236, 237, 176, 243, 663, 241, 663, 662, 241, 241, 662, 242, 662, 661, 242, 242, 661, 240, 661, 244, 240, 240, 244, 239, 244, 656, 239, 239, 656, 238, 238, 656, 655, 176, 237, 168, 237, 145, 168, 661, 177, 244, 244, 177, 170, 170, 171, 244, 244, 171, 656, 171, 172, 656, 656, 172, 655, 170, 165, 171, 171, 165, 166, 171, 166, 172, 168, 145, 161, 163, 156, 157, 169, 163, 170, 163, 165, 170, 163, 157, 165, 157, 158, 165, 165, 158, 166, 166, 158, 159, 172, 159, 160, 172, 166, 159, 46, 72, 73, 153, 155, 161, 153, 149, 155, 155, 149, 154, 155, 154, 162, 154, 149, 151, 162, 154, 163, 163, 154, 156, 154, 151, 156, 156, 151, 150, 156, 150, 157, 157, 147, 158, 157, 150, 147, 158, 147, 159, 147, 152, 159, 159, 152, 160, 153, 145, 144, 153, 144, 149, 149, 144, 137, 149, 137, 151, 151, 137, 138, 160, 152, 483, 72, 74, 73, 74, 76, 73, 145, 146, 143, 160, 483, 633, 74, 124, 123, 484, 483, 461, 74, 136, 124, 461, 460, 484, 484, 460, 478, 478, 476, 639, 639, 476, 482, 476, 475, 482, 482, 475, 481, 475, 474, 481, 481, 474, 480, 474, 473, 480, 480, 473, 653, 473, 479, 653, 470, 479, 473, 470, 477, 479, 479, 477, 659, 659, 670, 671, 659, 660, 670, 570, 673, 69, 570, 578, 673, 673, 59, 69, 563, 538, 566, 566, 538, 564, 538, 536, 564, 564, 536, 565, 536, 524, 565, 565, 524, 567, 567, 524, 525, 567, 525, 568, 568, 525, 559, 531, 559, 525, 568, 559, 573, 531, 558, 559, 573, 559, 558, 573, 558, 572, 558, 535, 572, 572, 535, 569, 535, 226, 569, 225, 231, 217, 569, 226, 238, 228, 234, 227, 227, 234, 233, 227, 233, 226, 588, 606, 586, 41, 598, 592, 41, 46, 598, 592, 598, 589, 598, 599, 589, 599, 600, 589, 589, 600, 582, 582, 600, 601, 582, 601, 581, 601, 605, 581, 581, 605, 603, 581, 603, 583, 583, 603, 602, 583, 602, 587, 587, 602, 588, 588, 602, 604, 588, 604, 606, 46, 611, 598, 598, 611, 610, 598, 610, 599, 599, 610, 608, 599, 608, 600, 600, 608, 607, 600, 607, 601, 607, 609, 601, 601, 609, 605, 605, 609, 613, 605, 613, 603, 603, 613, 612, 603, 612, 602, 602, 612, 614, 602, 614, 604, 604, 506, 606, 604, 614, 506, 46, 507, 611, 46, 73, 507, 611, 507, 610, 507, 508, 610, 610, 508, 608, 608, 508, 505, 608, 505, 607, 607, 505, 609, 609, 505, 613, 505, 503, 613, 613, 504, 612, 613, 503, 504, 504, 502, 612, 612, 502, 506, 612, 506, 614, 151, 138, 150, 150, 138, 140, 138, 139, 140, 140, 139, 141, 150, 140, 147, 140, 141, 147, 147, 148, 152, 147, 141, 148, 145, 143, 144, 144, 143, 137, 143, 142, 137, 137, 142, 139, 137, 139, 138, 152, 148, 483, 483, 148, 462, 483, 462, 461, 460, 439, 478, 478, 439, 476, 439, 429, 476, 429, 434, 476, 476, 434, 475, 475, 434, 435, 475, 435, 474, 474, 435, 436, 474, 436, 473, 473, 436, 470, 436, 437, 470, 470, 456, 477, 470, 437, 456, 659, 477, 660, 477, 485, 660, 660, 485, 670, 560, 69, 37, 560, 570, 69, 570, 563, 578, 541, 563, 570, 563, 541, 538, 541, 539, 538, 538, 539, 537, 538, 537, 536, 537, 532, 536, 29, 28, 17, 536, 532, 524, 524, 532, 526, 524, 526, 525, 526, 527, 525, 525, 527, 531, 531, 534, 558, 558, 534, 535, 535, 534, 224, 535, 224, 226, 218, 237, 225, 220, 219, 221, 26, 591, 596, 591, 590, 596, 590, 584, 596, 596, 584, 595, 595, 584, 579, 595, 579, 593, 593, 579, 580, 593, 580, 594, 580, 585, 594, 585, 586, 594, 594, 586, 597, 145, 237, 146, 73, 103, 507, 103, 499, 507, 499, 103, 491, 499, 500, 507, 499, 491, 500, 507, 500, 508, 500, 491, 489, 508, 500, 505, 500, 501, 505, 500, 489, 501, 501, 489, 487, 501, 487, 505, 505, 487, 503, 503, 487, 494, 503, 494, 504, 504, 494, 502, 502, 494, 495, 506, 502, 495, 506, 495, 498, 143, 181, 142, 143, 182, 181, 181, 178, 142, 178, 181, 190, 142, 178, 139, 139, 178, 179, 179, 180, 139, 139, 180, 141, 141, 180, 183, 183, 184, 141, 141, 184, 148, 184, 185, 148, 148, 185, 463, 186, 182, 146, 444, 446, 462, 462, 446, 443, 462, 443, 461, 443, 440, 461, 461, 440, 460, 460, 440, 439, 434, 429, 423, 423, 424, 434, 434, 424, 435, 435, 424, 431, 435, 431, 436, 431, 432, 436, 436, 432, 437, 437, 432, 456, 98, 113, 95, 456, 459, 477, 459, 485, 477, 485, 672, 670, 472, 672, 485, 375, 560, 37, 374, 542, 560, 542, 539, 541, 539, 540, 537, 540, 532, 537, 28, 13, 14, 526, 528, 527, 528, 529, 527, 529, 530, 527, 527, 530, 531, 531, 530, 533, 531, 533, 534, 533, 223, 534, 534, 223, 224, 218, 246, 237, 88, 492, 103, 103, 492, 491, 491, 492, 490, 491, 490, 489, 490, 486, 489, 489, 486, 487, 486, 488, 487, 487, 488, 493, 487, 493, 494, 494, 493, 495, 493, 496, 495, 496, 497, 495, 495, 497, 498, 497, 515, 498, 146, 209, 186, 178, 191, 179, 178, 190, 191, 179, 189, 180, 179, 191, 189, 189, 188, 180, 180, 188, 183, 183, 188, 184, 188, 187, 184, 184, 187, 185, 192, 193, 182, 182, 193, 181, 193, 190, 181, 182, 186, 192, 446, 444, 443, 440, 428, 439, 439, 428, 429, 429, 428, 423, 423, 425, 424, 424, 430, 431, 431, 430, 432, 430, 433, 432, 433, 438, 432, 432, 438, 456, 456, 438, 459, 485, 459, 472, 370, 472, 459, 472, 366, 672, 672, 366, 116, 375, 374, 560, 542, 545, 539, 539, 545, 540, 540, 544, 532, 544, 543, 532, 532, 543, 526, 526, 543, 528, 533, 245, 223, 88, 102, 492, 492, 102, 509, 492, 509, 490, 490, 509, 486, 509, 511, 486, 486, 511, 510, 486, 510, 488, 488, 510, 493, 510, 512, 493, 493, 512, 513, 493, 513, 496, 496, 513, 514, 496, 514, 497, 497, 514, 515, 189, 201, 188, 201, 200, 188, 200, 195, 188, 188, 195, 187, 192, 197, 193, 193, 197, 198, 193, 198, 190, 198, 196, 190, 190, 196, 191, 191, 196, 189, 187, 194, 185, 185, 194, 463, 463, 194, 444, 194, 448, 444, 186, 199, 192, 448, 445, 444, 445, 442, 444, 444, 442, 443, 443, 442, 440, 442, 441, 440, 440, 441, 428, 428, 427, 423, 427, 425, 423, 425, 426, 424, 424, 426, 430, 459, 438, 370, 472, 370, 366, 357, 356, 374, 374, 553, 542, 542, 553, 545, 545, 546, 540, 540, 546, 544, 543, 548, 528, 528, 548, 529, 548, 547, 529, 529, 547, 530, 530, 547, 549, 530, 549, 533, 533, 549, 245, 549, 260, 245, 246, 372, 237, 246, 258, 372, 237, 372, 146, 146, 372, 209, 520, 418, 519, 418, 417, 519, 519, 417, 517, 517, 416, 518, 416, 413, 518, 105, 516, 102, 102, 516, 509, 516, 522, 509, 509, 522, 521, 509, 521, 511, 511, 521, 520, 511, 520, 510, 512, 517, 513, 518, 422, 514, 514, 422, 515, 209, 199, 186, 207, 205, 196, 196, 205, 201, 205, 204, 201, 201, 204, 200, 200, 204, 195, 204, 206, 195, 195, 206, 194, 197, 199, 203, 197, 203, 202, 197, 202, 198, 202, 196, 198, 445, 448, 442, 442, 448, 447, 442, 447, 441, 428, 441, 452, 428, 452, 427, 427, 451, 425, 425, 451, 426, 426, 449, 430, 449, 450, 430, 430, 450, 433, 433, 450, 438, 450, 455, 438, 455, 367, 438, 438, 367, 370, 370, 367, 365, 553, 550, 545, 545, 550, 546, 550, 552, 546, 546, 552, 544, 544, 552, 551, 544, 551, 543, 543, 551, 548, 551, 555, 548, 547, 548, 554, 554, 556, 547, 547, 556, 549, 556, 557, 549, 549, 557, 260, 557, 269, 260, 258, 263, 372, 372, 308, 209, 418, 406, 409, 418, 409, 417, 409, 410, 417, 105, 117, 421, 105, 420, 523, 105, 421, 420, 523, 420, 522, 522, 420, 419, 522, 419, 521, 521, 419, 520, 520, 419, 418, 417, 416, 517, 413, 415, 422, 422, 415, 515, 203, 208, 377, 203, 377, 202, 377, 376, 202, 202, 376, 207, 207, 376, 205, 205, 376, 359, 205, 359, 378, 205, 378, 204, 378, 371, 204, 204, 371, 206, 206, 371, 210, 199, 209, 208, 199, 208, 203, 448, 210, 458, 458, 457, 448, 448, 457, 447, 447, 457, 454, 447, 454, 441, 454, 452, 441, 427, 452, 451, 426, 451, 453, 426, 453, 449, 367, 363, 364, 553, 373, 550, 553, 355, 373, 550, 373, 562, 550, 562, 552, 552, 562, 571, 552, 571, 551, 551, 571, 369, 551, 369, 555, 369, 353, 555, 555, 353, 554, 353, 556, 554, 556, 561, 557, 561, 346, 557, 557, 289, 269, 557, 346, 289, 269, 289, 337, 359, 345, 354, 345, 339, 354, 354, 339, 371, 371, 339, 340, 208, 360, 377, 377, 360, 368, 377, 368, 376, 376, 368, 352, 376, 352, 359, 210, 465, 458, 210, 340, 465, 458, 465, 457, 457, 465, 464, 457, 464, 454, 454, 349, 471, 454, 471, 452, 452, 471, 451, 451, 471, 468, 451, 468, 453, 453, 468, 449, 449, 468, 469, 449, 469, 467, 449, 467, 450, 450, 467, 466, 450, 466, 455, 455, 466, 367, 367, 362, 363, 562, 328, 327, 327, 323, 571, 571, 323, 369, 323, 317, 369, 369, 317, 353, 353, 347, 556, 556, 347, 561, 347, 346, 561, 263, 297, 372, 372, 297, 286, 372, 286, 308, 286, 287, 308, 273, 275, 274, 307, 304, 306, 304, 303, 306, 305, 299, 273, 209, 308, 360, 340, 301, 465, 301, 338, 465, 134, 135, 125, 134, 311, 135, 465, 338, 464, 338, 349, 464, 468, 325, 332, 468, 332, 469, 348, 361, 466, 71, 67, 40, 40, 67, 66, 40, 66, 43, 43, 66, 65, 43, 65, 47, 65, 68, 47, 47, 68, 60, 568, 644, 646, 62, 641, 64, 64, 641, 631, 64, 631, 70, 70, 631, 72, 70, 72, 46, 662, 177, 661, 74, 72, 629, 76, 74, 123, 74, 635, 136, 136, 635, 636, 124, 136, 119, 136, 127, 119, 119, 127, 118, 127, 126, 118, 118, 126, 115, 115, 126, 664, 664, 671, 115, 59, 40, 30, 30, 40, 29, 40, 43, 29, 29, 43, 33, 43, 47, 33, 33, 47, 32, 32, 47, 60, 32, 60, 61, 61, 62, 32, 32, 63, 34, 32, 62, 63, 63, 64, 34, 34, 64, 31, 64, 45, 31, 31, 45, 41, 225, 236, 231, 230, 231, 232, 230, 232, 229, 232, 235, 229, 229, 235, 228, 235, 234, 228, 45, 46, 41, 234, 240, 233, 240, 239, 233, 233, 239, 238, 233, 238, 226, 73, 76, 77, 77, 76, 123, 77, 123, 79, 123, 124, 79, 79, 124, 104, 104, 124, 119, 104, 119, 83, 83, 119, 89, 89, 119, 118, 89, 118, 92, 92, 118, 115, 92, 115, 94, 94, 115, 98, 115, 671, 98, 98, 671, 113, 113, 671, 670, 69, 59, 35, 35, 59, 30, 18, 30, 29, 29, 33, 28, 33, 32, 28, 28, 32, 27, 27, 32, 24, 32, 34, 24, 24, 34, 25, 34, 31, 25, 25, 31, 26, 31, 41, 26, 218, 225, 217, 217, 231, 215, 215, 231, 230, 215, 229, 213, 215, 230, 229, 229, 228, 213, 213, 228, 219, 219, 228, 221, 228, 227, 221, 221, 227, 226, 221, 226, 224, 26, 41, 591, 597, 586, 628, 628, 586, 668, 586, 606, 668, 591, 41, 592, 591, 592, 589, 591, 589, 590, 590, 589, 584, 584, 589, 582, 584, 582, 579, 579, 582, 581, 579, 581, 580, 580, 581, 583, 580, 583, 585, 583, 587, 585, 585, 587, 586, 587, 588, 586, 668, 606, 667, 606, 506, 667, 182, 143, 146, 103, 73, 78, 73, 77, 78, 444, 462, 463, 462, 148, 463, 77, 79, 78, 78, 79, 80, 80, 79, 104, 80, 104, 83, 89, 92, 91, 91, 92, 93, 92, 94, 93, 113, 670, 672, 37, 69, 35, 542, 541, 560, 541, 570, 560, 23, 35, 30, 23, 30, 18, 18, 29, 17, 17, 28, 14, 13, 28, 11, 11, 28, 27, 11, 27, 10, 10, 27, 8, 27, 24, 8, 8, 24, 5, 5, 24, 0, 24, 25, 0, 0, 26, 2, 0, 25, 26, 216, 218, 217, 217, 215, 216, 216, 215, 214, 215, 213, 214, 214, 213, 211, 211, 213, 212, 213, 219, 212, 219, 220, 212, 220, 221, 222, 222, 221, 223, 223, 221, 224, 2, 26, 623, 623, 26, 596, 623, 596, 621, 621, 596, 620, 620, 596, 595, 620, 595, 615, 615, 595, 593, 615, 593, 617, 593, 594, 617, 617, 594, 625, 594, 597, 625, 625, 597, 627, 627, 597, 628, 668, 667, 665, 665, 667, 666, 666, 667, 669, 667, 506, 669, 669, 498, 515, 669, 506, 498, 88, 78, 84, 88, 103, 78, 84, 78, 81, 78, 80, 81, 81, 80, 82, 82, 83, 86, 82, 80, 83, 83, 89, 86, 86, 89, 90, 90, 89, 91, 96, 91, 93, 93, 94, 95, 94, 98, 95, 95, 113, 108, 113, 672, 108, 374, 375, 37, 37, 35, 36, 35, 23, 36, 13, 12, 14, 0, 2, 1, 246, 218, 216, 246, 216, 247, 247, 216, 249, 216, 214, 249, 249, 214, 211, 249, 211, 251, 211, 212, 251, 251, 212, 250, 250, 212, 248, 212, 220, 248, 248, 222, 252, 248, 220, 222, 252, 222, 245, 222, 223, 245, 1, 2, 623, 1, 623, 622, 623, 621, 622, 622, 621, 619, 621, 620, 619, 620, 615, 619, 619, 615, 616, 615, 617, 616, 616, 617, 618, 618, 617, 624, 624, 617, 625, 624, 625, 626, 626, 625, 627, 626, 627, 628, 628, 668, 665, 510, 520, 519, 510, 519, 512, 512, 519, 517, 517, 518, 513, 513, 518, 514, 196, 201, 189, 195, 194, 187, 102, 88, 84, 197, 192, 199, 99, 93, 95, 106, 95, 107, 95, 108, 107, 107, 108, 116, 116, 108, 672, 366, 370, 365, 366, 365, 116, 357, 374, 37, 357, 37, 57, 37, 36, 57, 356, 357, 57, 553, 374, 356, 57, 36, 38, 36, 23, 38, 19, 38, 23, 23, 18, 19, 19, 18, 15, 15, 18, 17, 15, 17, 16, 16, 17, 12, 12, 17, 14, 12, 11, 9, 12, 13, 11, 9, 11, 10, 9, 10, 8, 9, 8, 7, 7, 8, 5, 7, 5, 4, 5, 0, 4, 4, 0, 3, 3, 0, 1, 258, 246, 256, 246, 247, 256, 262, 256, 261, 256, 247, 255, 261, 256, 255, 255, 247, 249, 255, 249, 257, 261, 255, 257, 257, 249, 251, 257, 251, 254, 251, 250, 254, 254, 250, 248, 254, 248, 253, 253, 248, 252, 259, 253, 252, 259, 245, 260, 259, 252, 245, 3, 1, 403, 3, 403, 39, 1, 622, 403, 39, 403, 395, 403, 622, 402, 395, 403, 402, 622, 619, 402, 395, 402, 396, 402, 619, 400, 402, 400, 396, 619, 616, 400, 396, 400, 397, 400, 616, 401, 400, 401, 397, 401, 616, 618, 401, 618, 399, 397, 399, 398, 397, 401, 399, 618, 624, 399, 398, 399, 386, 399, 624, 626, 386, 399, 394, 399, 626, 394, 626, 628, 394, 394, 665, 404, 394, 628, 665, 404, 665, 666, 666, 669, 515, 105, 523, 516, 516, 523, 522, 518, 413, 422, 202, 207, 196, 194, 210, 448, 194, 206, 210, 105, 84, 87, 105, 102, 84, 87, 84, 81, 87, 81, 85, 85, 81, 82, 85, 82, 86, 85, 86, 100, 100, 86, 97, 86, 90, 97, 90, 91, 97, 97, 91, 96, 96, 93, 99, 99, 95, 106, 367, 364, 365, 122, 107, 116, 365, 364, 116, 364, 122, 116, 355, 553, 356, 355, 356, 58, 356, 57, 58, 57, 38, 58, 15, 16, 12, 15, 12, 22, 22, 12, 21, 12, 9, 21, 548, 555, 554, 9, 7, 21, 21, 7, 20, 7, 4, 20, 20, 4, 6, 6, 4, 3, 263, 258, 262, 258, 256, 262, 6, 3, 39, 268, 261, 257, 257, 254, 268, 268, 254, 266, 254, 253, 266, 266, 253, 267, 267, 253, 259, 267, 259, 265, 265, 259, 264, 264, 259, 260, 264, 260, 269, 264, 269, 337, 56, 393, 392, 56, 39, 393, 393, 39, 391, 392, 393, 391, 39, 395, 391, 392, 391, 390, 391, 395, 388, 390, 391, 388, 390, 388, 389, 388, 395, 396, 389, 388, 383, 388, 396, 381, 388, 381, 383, 383, 381, 379, 381, 396, 397, 379, 381, 380, 381, 397, 382, 381, 382, 380, 380, 382, 384, 397, 398, 382, 384, 382, 385, 382, 398, 386, 382, 386, 385, 385, 386, 387, 386, 394, 387, 387, 394, 404, 56, 392, 412, 412, 392, 407, 392, 390, 407, 407, 389, 408, 407, 390, 389, 408, 389, 405, 405, 389, 383, 383, 379, 405, 405, 379, 406, 406, 379, 409, 409, 379, 380, 380, 384, 409, 409, 384, 410, 384, 385, 410, 410, 385, 411, 411, 385, 413, 385, 387, 413, 413, 387, 414, 404, 666, 415, 414, 387, 415, 387, 404, 415, 117, 56, 421, 56, 412, 421, 412, 407, 421, 421, 407, 420, 407, 408, 420, 420, 408, 419, 419, 408, 405, 405, 406, 419, 419, 406, 418, 417, 410, 416, 410, 411, 416, 411, 413, 416, 413, 414, 415, 666, 515, 415, 378, 359, 354, 378, 354, 371, 371, 340, 210, 117, 105, 112, 105, 87, 112, 112, 87, 111, 87, 85, 111, 111, 85, 109, 109, 85, 100, 100, 97, 101, 101, 97, 96, 101, 96, 99, 110, 99, 106, 110, 106, 122, 106, 107, 122, 364, 363, 122, 355, 58, 350, 58, 38, 55, 350, 58, 55, 55, 38, 42, 38, 19, 42, 42, 19, 15, 42, 15, 44, 571, 562, 327, 15, 22, 44, 44, 22, 48, 22, 21, 48, 48, 21, 51, 51, 21, 52, 21, 20, 52, 52, 6, 49, 52, 20, 6, 6, 39, 49, 297, 263, 270, 263, 262, 270, 270, 262, 261, 297, 270, 271, 270, 261, 271, 271, 261, 272, 271, 272, 343, 261, 268, 272, 272, 268, 266, 343, 266, 342, 343, 272, 266, 342, 266, 358, 358, 266, 267, 342, 358, 341, 358, 267, 265, 341, 358, 265, 49, 39, 50, 294, 297, 271, 294, 271, 295, 295, 271, 292, 292, 271, 343, 292, 343, 293, 293, 343, 290, 290, 343, 342, 290, 342, 291, 291, 342, 341, 291, 341, 296, 341, 265, 336, 296, 341, 336, 265, 264, 336, 296, 336, 288, 336, 264, 337, 288, 336, 337, 288, 337, 289, 290, 291, 279, 279, 291, 275, 275, 291, 277, 277, 291, 296, 277, 296, 288, 288, 289, 278, 50, 39, 56, 274, 275, 276, 275, 277, 276, 276, 277, 278, 277, 288, 278, 50, 56, 117, 305, 273, 298, 273, 274, 298, 274, 276, 298, 298, 276, 300, 276, 278, 300, 300, 278, 301, 307, 306, 351, 306, 303, 351, 351, 303, 352, 303, 299, 352, 352, 299, 345, 299, 305, 345, 345, 305, 298, 345, 298, 339, 339, 298, 300, 339, 300, 340, 340, 300, 301, 307, 351, 360, 360, 351, 368, 368, 351, 352, 352, 345, 359, 117, 112, 128, 135, 117, 128, 209, 360, 208, 128, 112, 111, 128, 111, 125, 125, 111, 109, 125, 109, 121, 454, 464, 349, 109, 100, 121, 100, 101, 121, 121, 101, 120, 120, 101, 114, 101, 99, 114, 114, 99, 110, 114, 110, 132, 367, 466, 362, 132, 110, 122, 363, 362, 132, 363, 132, 122, 373, 355, 350, 373, 350, 333, 333, 350, 330, 330, 350, 55, 562, 373, 333, 562, 333, 328, 328, 330, 329, 328, 333, 330, 42, 44, 55, 329, 330, 55, 55, 44, 54, 329, 55, 54, 54, 44, 53, 329, 54, 53, 328, 329, 326, 326, 329, 53, 327, 328, 326, 44, 48, 53, 323, 327, 326, 323, 326, 322, 322, 326, 53, 48, 51, 53, 53, 51, 75, 322, 53, 75, 317, 323, 322, 317, 322, 316, 316, 322, 75, 347, 353, 317, 347, 317, 315, 315, 317, 316, 75, 51, 52, 315, 316, 313, 313, 316, 75, 347, 315, 314, 314, 315, 313, 75, 52, 50, 313, 75, 50, 52, 49, 50, 346, 347, 314, 346, 314, 302, 313, 50, 312, 302, 313, 312, 302, 314, 313, 289, 346, 302, 286, 294, 284, 284, 294, 295, 284, 295, 283, 295, 292, 283, 283, 292, 281, 292, 293, 281, 293, 290, 281, 281, 290, 279, 278, 289, 302, 287, 286, 285, 286, 284, 285, 285, 284, 282, 284, 283, 282, 282, 281, 280, 282, 283, 281, 280, 281, 273, 273, 281, 279, 273, 279, 275, 50, 117, 312, 287, 285, 304, 304, 285, 303, 285, 282, 303, 303, 282, 299, 299, 282, 280, 280, 273, 299, 301, 278, 302, 308, 287, 307, 287, 304, 307, 312, 117, 135, 307, 360, 308, 338, 301, 309, 301, 302, 309, 312, 135, 310, 309, 302, 310, 302, 312, 310, 135, 128, 125, 309, 310, 311, 311, 310, 135, 338, 309, 318, 318, 309, 311, 318, 311, 319, 319, 311, 134, 134, 125, 121, 349, 338, 318, 134, 121, 133, 319, 134, 133, 349, 318, 320, 320, 318, 319, 471, 349, 320, 471, 320, 324, 324, 320, 321, 320, 319, 321, 321, 319, 133, 468, 471, 324, 468, 324, 325, 325, 324, 321, 133, 121, 130, 321, 133, 130, 325, 321, 331, 331, 321, 130, 130, 121, 120, 332, 325, 331, 130, 120, 129, 331, 130, 129, 332, 331, 334, 334, 331, 129, 129, 120, 114, 469, 332, 344, 344, 332, 335, 332, 334, 335, 335, 334, 129, 467, 469, 344, 344, 335, 348, 348, 335, 129, 466, 467, 348, 467, 344, 348, 129, 114, 131, 348, 129, 131, 361, 348, 131, 466, 361, 362, 131, 114, 132, 361, 131, 132, 362, 361, 132, 286, 297, 294]
    point3f[] points = [(-0.000013, 0.006124, 0.066189), (0.000294, 0.001567, 0.066169), (-0.000327, 0.001582, 0.066169), (0.000831, 0.001339, 0.066127), (0.000914, 0.008957, 0.066139), (0.000008, 0.016965, 0.066184), (0.001381, 0.003223, 0.066071), (0.000920, 0.018441, 0.066151), (0.000006, 0.024639, 0.066158), (0.000844, 0.027102, 0.066099), (-0.000113, 0.027924, 0.066186), (-0.000059, 0.032207, 0.066142), (0.000928, 0.041646, 0.066082), (-0.000021, 0.037712, 0.066131), (-0.000025, 0.041068, 0.066152), (0.001344, 0.054912, 0.066041), (0.001027, 0.050513, 0.066094), (-0.000081, 0.051735, 0.066171), (-0.000210, 0.059139, 0.066187), (0.001274, 0.058829, 0.066066), (0.001424, 0.014730, 0.066064), (0.001410, 0.026033, 0.066016), (0.001359, 0.040585, 0.066019), (-0.000089, 0.060628, 0.066046), (-0.000894, 0.018443, 0.066140), (-0.000878, 0.006208, 0.066147), (-0.000828, 0.001382, 0.066114), (-0.000811, 0.026042, 0.066112), (-0.000948, 0.038879, 0.066069), (-0.001325, 0.056034, 0.066053), (-0.001202, 0.059499, 0.066070), (-0.001370, 0.004833, 0.066064), (-0.001421, 0.025015, 0.066014), (-0.001384, 0.040333, 0.066005), (-0.001395, 0.017374, 0.066043), (-0.000227, 0.062318, 0.065759), (0.000255, 0.062018, 0.065794), (-0.000005, 0.064010, 0.065449), (0.001130, 0.060291, 0.065867), (0.001211, 0.001050, 0.066014), (-0.001948, 0.058652, 0.065856), (-0.001403, 0.001052, 0.065926), (0.001954, 0.058729, 0.065846), (-0.001908, 0.050591, 0.065810), (0.001846, 0.053759, 0.065819), (-0.001831, 0.002913, 0.065797), (-0.001745, 0.000121, 0.065782), (-0.001858, 0.038326, 0.065784), (0.001759, 0.038954, 0.065823), (0.001855, 0.002747, 0.065790), (0.002149, 0.000726, 0.065516), (0.001852, 0.025620, 0.065784), (0.001869, 0.014297, 0.065803), (0.002159, 0.040073, 0.065585), (0.002231, 0.054582, 0.065604), (0.002331, 0.058726, 0.065621), (0.001666, 0.000025, 0.065917), (0.000792, 0.062095, 0.065471), (0.001427, 0.060849, 0.065490), (-0.001436, 0.060568, 0.065645), (-0.002063, 0.027506, 0.065641), (-0.002112, 0.025294, 0.065687), (-0.002078, 0.023158, 0.065639), (-0.001866, 0.017479, 0.065766), (-0.002067, 0.010241, 0.065611), (-0.002247, 0.042603, 0.065575), (-0.002285, 0.053803, 0.065598), (-0.002355, 0.058512, 0.065623), (-0.002188, 0.037411, 0.065564), (-0.000669, 0.062425, 0.065451), (-0.002127, 0.003468, 0.065577), (-0.002019, 0.059756, 0.065408), (-0.002270, -0.000100, 0.065356), (-0.001587, -0.000730, 0.065859), (-0.002140, -0.002572, 0.065572), (0.002136, 0.025138, 0.065567), (-0.001820, -0.002001, 0.065819), (-0.001362, -0.002291, 0.066096), (-0.000870, -0.002192, 0.066180), (-0.001387, -0.008845, 0.066069), (-0.000952, -0.020104, 0.066129), (-0.000054, -0.007074, 0.066186), (-0.000098, -0.020195, 0.066146), (-0.001396, -0.025485, 0.066025), (-0.000018, -0.002164, 0.066232), (0.000970, -0.018797, 0.066137), (-0.000064, -0.025559, 0.066082), (0.000893, -0.002498, 0.066174), (-0.000238, -0.001377, 0.066184), (-0.001376, -0.031628, 0.066013), (-0.000019, -0.031670, 0.066070), (-0.000503, -0.039825, 0.066055), (-0.001411, -0.042707, 0.066015), (-0.000486, -0.054022, 0.066067), (-0.001388, -0.054910, 0.066040), (-0.000266, -0.059697, 0.066111), (0.000499, -0.049452, 0.066059), (0.000880, -0.032247, 0.066041), (-0.001285, -0.058959, 0.066046), (0.001383, -0.057339, 0.066023), (0.001401, -0.025604, 0.066012), (0.001355, -0.042226, 0.066008), (0.000413, -0.001349, 0.066168), (-0.000733, -0.001263, 0.066136), (-0.001416, -0.019821, 0.066064), (0.000877, -0.001179, 0.066098), (0.000412, -0.060155, 0.066027), (0.000380, -0.061318, 0.065891), (-0.000195, -0.062085, 0.065834), (0.001397, -0.019741, 0.066069), (0.001309, -0.059240, 0.065939), (0.001422, -0.011100, 0.066069), (0.001396, -0.002471, 0.066084), (-0.001061, -0.060578, 0.065863), (0.001846, -0.058186, 0.065880), (-0.001941, -0.058362, 0.065869), (0.000015, -0.063852, 0.065468), (0.001643, -0.000735, 0.065819), (-0.001823, -0.037970, 0.065850), (-0.001848, -0.024815, 0.065814), (0.001749, -0.040969, 0.065856), (0.001835, -0.024888, 0.065825), (0.001197, -0.060856, 0.065586), (-0.001885, -0.007974, 0.065785), (-0.001877, -0.016588, 0.065789), (0.001880, -0.011528, 0.065791), (-0.002226, -0.039934, 0.065609), (-0.002145, -0.025154, 0.065590), (0.001834, -0.002236, 0.065808), (0.002216, -0.055136, 0.065637), (0.002150, -0.038811, 0.065606), (0.002322, -0.058081, 0.065640), (0.002012, -0.059384, 0.065462), (0.002136, -0.024975, 0.065607), (0.002126, -0.013634, 0.065571), (0.002137, -0.002447, 0.065554), (-0.002163, -0.019376, 0.065569), (-0.001588, -0.001614, 0.025276), (-0.001556, -0.001600, 0.037490), (-0.001312, -0.001813, 0.032799), (-0.001520, -0.001578, 0.055150), (-0.001232, -0.001783, 0.062258), (-0.001302, -0.001841, 0.022261), (-0.001280, -0.001894, 0.003114), (-0.001604, -0.001643, 0.003171), (-0.001879, -0.001367, 0.001000), (-0.001239, -0.001940, 0.001004), (-0.001713, -0.001331, 0.062492), (-0.001387, -0.001753, 0.064232), (-0.001853, -0.001336, 0.015760), (-0.001778, -0.001327, 0.040685), (-0.001793, -0.001348, 0.030823), (-0.001859, -0.001209, 0.064497), (-0.002031, -0.001113, 0.002501), (-0.002108, -0.000870, 0.029544), (-0.002182, -0.000819, 0.015978), (-0.002092, -0.000831, 0.039461), (-0.002056, -0.000830, 0.051081), (-0.002040, -0.000832, 0.059242), (-0.002013, -0.000816, 0.064590), (-0.002287, -0.000167, 0.065088), (-0.002228, -0.000689, 0.001153), (-0.002259, -0.000449, 0.029426), (-0.002195, -0.000513, 0.040654), (-0.002312, -0.000281, 0.019366), (-0.002190, -0.000258, 0.052473), (-0.002138, -0.000256, 0.064167), (-0.002309, -0.000293, 0.005909), (-0.002394, -0.000131, 0.001078), (-0.002242, -0.000235, 0.039521), (-0.002213, 0.000172, 0.052128), (-0.002160, 0.000335, 0.059207), (-0.002144, 0.000239, 0.064528), (-0.002295, 0.000301, 0.028114), (-0.002319, 0.000304, 0.014540), (-0.002336, 0.000278, 0.004158), (-0.002384, 0.000445, 0.001181), (-0.002237, 0.000388, 0.040490), (-0.000784, -0.002119, 0.025174), (-0.000770, -0.002116, 0.032384), (-0.000787, -0.002075, 0.042090), (-0.000683, -0.002178, 0.016357), (-0.000720, -0.002187, 0.003042), (-0.000759, -0.002080, 0.050813), (-0.000727, -0.002043, 0.062220), (-0.000526, -0.002225, 0.063820), (-0.000317, -0.002327, 0.001081), (-0.000128, -0.002176, 0.061368), (-0.000179, -0.002209, 0.050166), (-0.000112, -0.002221, 0.041316), (-0.000399, -0.002233, 0.025754), (-0.000353, -0.002230, 0.031891), (-0.000274, -0.002268, 0.003859), (-0.000271, -0.002244, 0.017696), (0.000415, -0.002258, 0.063977), (0.000313, -0.002161, 0.060891), (0.000416, -0.002229, 0.028541), (0.000275, -0.002263, 0.003615), (0.000270, -0.002235, 0.020185), (0.000443, -0.002309, 0.001181), (0.000261, -0.002202, 0.050953), (0.000323, -0.002191, 0.041077), (0.000657, -0.002178, 0.016035), (0.000773, -0.002159, 0.004360), (0.000821, -0.002068, 0.052912), (0.000812, -0.002076, 0.037725), (0.000781, -0.002074, 0.063893), (0.000801, -0.002098, 0.023208), (0.001227, -0.001919, 0.002470), (0.001333, -0.001896, 0.001001), (0.001343, -0.001762, 0.064205), (-0.000281, 0.002347, 0.029476), (-0.000274, 0.002303, 0.039703), (-0.000865, 0.002209, 0.029271), (-0.000284, 0.002339, 0.016513), (-0.000879, 0.002189, 0.015327), (-0.000247, 0.002374, 0.003795), (-0.000936, 0.002200, 0.003675), (-0.000416, 0.002418, 0.001208), (-0.000793, 0.002189, 0.040262), (-0.000414, 0.002228, 0.054373), (-0.000815, 0.002078, 0.057144), (-0.000162, 0.002209, 0.058394), (-0.000248, 0.002163, 0.064084), (-0.000799, 0.001990, 0.064172), (-0.001363, 0.001992, 0.001090), (-0.001197, 0.001798, 0.064265), (-0.001300, 0.001825, 0.054802), (-0.001348, 0.001864, 0.040037), (-0.001348, 0.001929, 0.029186), (-0.001363, 0.001909, 0.015362), (-0.001636, 0.001738, 0.003439), (-0.001670, 0.001676, 0.016217), (-0.001549, 0.001591, 0.058639), (-0.001624, 0.001645, 0.040524), (-0.001664, 0.001678, 0.029344), (-0.001972, 0.001375, 0.001214), (-0.001656, 0.001704, 0.001002), (-0.001742, 0.001220, 0.064464), (-0.001766, 0.001344, 0.057445), (-0.001820, 0.001378, 0.040999), (-0.001923, 0.001337, 0.015685), (-0.001898, 0.001356, 0.029490), (-0.002154, 0.001005, 0.003778), (-0.002052, 0.000867, 0.054676), (0.000266, 0.002176, 0.064090), (0.000268, 0.002435, 0.001086), (0.000292, 0.002359, 0.005689), (0.000292, 0.002245, 0.053717), (0.000277, 0.002338, 0.016686), (0.000311, 0.002294, 0.040231), (0.000285, 0.002345, 0.029642), (0.000365, 0.002191, 0.058300), (0.000804, 0.002144, 0.052491), (0.000846, 0.002167, 0.040415), (0.000794, 0.002210, 0.016050), (0.000847, 0.002218, 0.005334), (0.000906, 0.002181, 0.029713), (0.000675, 0.002349, 0.001181), (0.000842, 0.002073, 0.057491), (0.000835, 0.002018, 0.064155), (0.001139, 0.002064, 0.015339), (0.001203, 0.002061, 0.004943), (0.001409, 0.001936, 0.001163), (0.001394, 0.001715, 0.061568), (0.001542, 0.001644, 0.056050), (0.001619, 0.001651, 0.040442), (0.001367, 0.001791, 0.052567), (0.001350, 0.001901, 0.029896), (0.001325, 0.001703, 0.064249), (0.001734, 0.001653, 0.004834), (0.001790, 0.001549, 0.015660), (0.001699, 0.001621, 0.029414), (0.002228, -0.000350, 0.039887), (0.002186, -0.000234, 0.052039), (0.002212, 0.000189, 0.051771), (0.002151, -0.000228, 0.059617), (0.002144, 0.000313, 0.060513), (0.002109, -0.000237, 0.064323), (0.002242, 0.000317, 0.040432), (0.002287, -0.000239, 0.027638), (0.002304, 0.000283, 0.027874), (0.002321, -0.000221, 0.018309), (0.002343, 0.000284, 0.019438), (0.002335, 0.000279, 0.011516), (0.002328, -0.000253, 0.009520), (0.002377, 0.000218, 0.001083), (0.002349, -0.000380, 0.001174), (0.002072, 0.000457, 0.064082), (0.002067, 0.000978, 0.064645), (0.002181, 0.000725, 0.039578), (0.002092, 0.000815, 0.051374), (0.002199, 0.000865, 0.022149), (0.002207, 0.000805, 0.029729), (0.002221, 0.000902, 0.003306), (0.002202, 0.000853, 0.015338), (0.002023, 0.000819, 0.060777), (0.001999, 0.001315, 0.001142), (0.002072, -0.000776, 0.052740), (0.002184, -0.000721, 0.028677), (0.001996, -0.000797, 0.063966), (0.002140, -0.000737, 0.064669), (0.002288, 0.000449, 0.064983), (0.002174, -0.000800, 0.016776), (0.002235, -0.000676, 0.004425), (0.002119, -0.000758, 0.037947), (0.002139, -0.000908, 0.010182), (0.002056, -0.001105, 0.002828), (0.001941, -0.001300, 0.001007), (0.002278, -0.005403, 0.064998), (0.002243, -0.003820, 0.065368), (0.002222, -0.010814, 0.065382), (0.002275, 0.000367, 0.065326), (0.002237, 0.005505, 0.065370), (0.002265, 0.005704, 0.065009), (0.002263, 0.017806, 0.065010), (0.002254, 0.020911, 0.065356), (0.002215, 0.025927, 0.065032), (0.002262, -0.014559, 0.064991), (0.002269, -0.024109, 0.065358), (0.002251, -0.024635, 0.065012), (0.002339, -0.028820, 0.065340), (0.002277, 0.026204, 0.065350), (0.002202, 0.038412, 0.065082), (0.002224, -0.028396, 0.065006), (0.002199, -0.036059, 0.065048), (0.002339, 0.042295, 0.065371), (0.002243, 0.046279, 0.065056), (0.002279, 0.054818, 0.065087), (0.002395, 0.054467, 0.065388), (0.002514, 0.058611, 0.065385), (0.002332, -0.036357, 0.065357), (0.002241, -0.048919, 0.065080), (0.002374, 0.058621, 0.065096), (0.002389, -0.048695, 0.065377), (0.002410, -0.054285, 0.065392), (0.001772, 0.001268, 0.061369), (0.001722, 0.001266, 0.064299), (0.002160, -0.005024, 0.064767), (0.001770, -0.001255, 0.062022), (0.001807, -0.001300, 0.064410), (0.001824, 0.001318, 0.052442), (0.001879, 0.001299, 0.040619), (0.001955, 0.001280, 0.028788), (0.002248, -0.054446, 0.065090), (0.001833, -0.001264, 0.036375), (0.002132, 0.002797, 0.064739), (0.002131, 0.017181, 0.064780), (0.002577, -0.057699, 0.065322), (0.002110, -0.023749, 0.064785), (0.002096, 0.059570, 0.065250), (0.001896, -0.001281, 0.012538), (0.001706, -0.001495, 0.027736), (0.002057, 0.025240, 0.064798), (0.001581, -0.001534, 0.057265), (0.001395, 0.060643, 0.064965), (0.000755, 0.062138, 0.065149), (0.000356, 0.063382, 0.065242), (0.001639, 0.001563, 0.044939), (0.001547, -0.001610, 0.036172), (0.001660, -0.001583, 0.002223), (0.002553, -0.058163, 0.065302), (0.001976, -0.059213, 0.065082), (0.001365, -0.060820, 0.065266), (0.000879, -0.061891, 0.065307), (0.000310, -0.063399, 0.065260), (0.000020, -0.064075, 0.065188), (0.000663, -0.061820, 0.064954), (0.001638, -0.001569, 0.016091), (0.001827, 0.027308, 0.064686), (0.000045, -0.063504, 0.064996), (0.001327, -0.001721, 0.061922), (0.001743, 0.001595, 0.001009), (0.002002, 0.058769, 0.064807), (0.000069, 0.063510, 0.065017), (0.000031, 0.064075, 0.065197), (0.001340, -0.001796, 0.026356), (0.001323, -0.001833, 0.012824), (0.001327, -0.001759, 0.043010), (0.001384, 0.000181, 0.094224), (0.001384, 0.000172, 0.105196), (0.001283, 0.000636, 0.090635), (0.001270, 0.000569, 0.109688), (0.001443, 0.000194, 0.087555), (0.001360, 0.000174, 0.110195), (0.001372, 0.000193, 0.123674), (0.001245, 0.000635, 0.127110), (0.001361, 0.000159, 0.128755), (0.001290, 0.000626, 0.083327), (0.001423, 0.000190, 0.083127), (0.001478, 0.000205, 0.075967), (0.001315, 0.000725, 0.073678), (0.001547, 0.000219, 0.066345), (0.001359, 0.000769, 0.066354), (0.001058, 0.000949, 0.129145), (0.001143, 0.000990, 0.077950), (0.001102, 0.000938, 0.086342), (0.001064, 0.000895, 0.108735), (0.001055, 0.000903, 0.122952), (0.000769, 0.001197, 0.125901), (0.000814, 0.001224, 0.089957), (0.000769, 0.001203, 0.108573), (0.000817, 0.001219, 0.081817), (0.000845, 0.001296, 0.072007), (0.001100, 0.000363, 0.129343), (0.001392, -0.000337, 0.087443), (0.001303, -0.000391, 0.096139), (0.001439, -0.000319, 0.074293), (0.001373, -0.000351, 0.082719), (0.001305, -0.000393, 0.106468), (0.001299, -0.000375, 0.112142), (0.001319, -0.000359, 0.121652), (0.001479, -0.000342, 0.066322), (0.001230, -0.000601, 0.126405), (0.001322, -0.000298, 0.128761), (0.001159, -0.000606, 0.129170), (0.001209, -0.000673, 0.123351), (0.001197, -0.000670, 0.108081), (0.001193, -0.000675, 0.098196), (0.001235, -0.000692, 0.088822), (0.001253, -0.000756, 0.075749), (0.001300, -0.000766, 0.066327), (0.000847, -0.001050, 0.128738), (-0.000696, -0.029274, 0.064408), (-0.000786, -0.038299, 0.064475), (0.000072, -0.033055, 0.064387), (0.000588, -0.039455, 0.064479), (0.000540, -0.029097, 0.064405), (0.000207, -0.026074, 0.064334), (-0.001296, -0.025846, 0.064417), (0.000013, -0.051537, 0.064489), (-0.000842, -0.046830, 0.064505), (-0.000900, -0.058554, 0.064520), (0.000042, -0.058704, 0.064482), (-0.001378, -0.029655, 0.064490), (-0.001369, -0.039657, 0.064559), (-0.001374, -0.049497, 0.064572), (-0.001400, -0.058090, 0.064572), (0.000091, -0.061129, 0.064642), (-0.001374, -0.025167, 0.064361), (-0.000802, -0.021550, 0.064164), (0.000664, -0.022795, 0.064192), (0.000275, -0.015361, 0.064099), (-0.000673, -0.014456, 0.064096), (-0.000298, -0.002742, 0.064062), (0.000265, -0.004753, 0.064073), (-0.000844, -0.004186, 0.064126), (0.000904, -0.018521, 0.064157), (0.000686, -0.002668, 0.064106), (0.001307, -0.048392, 0.064547), (0.001361, -0.058433, 0.064578), (0.001358, -0.032487, 0.064482), (0.001354, -0.026280, 0.064449), (0.001371, -0.040037, 0.064566), (0.001610, -0.023734, 0.064361), (0.001094, -0.059664, 0.064646), (-0.001042, -0.059925, 0.064679), (0.001395, -0.016859, 0.064244), (0.001484, -0.003380, 0.064267), (-0.000212, -0.062508, 0.064869), (-0.001483, -0.021718, 0.064310), (-0.001530, -0.014696, 0.064298), (-0.001524, -0.005132, 0.064309), (-0.000739, -0.002308, 0.064025), (0.001689, -0.015837, 0.064344), (0.001711, -0.003922, 0.064362), (0.001967, -0.058369, 0.064793), (0.001891, -0.054889, 0.064808), (0.001849, -0.037252, 0.064781), (0.001902, -0.049308, 0.064812), (-0.002035, -0.058341, 0.064826), (0.001904, -0.026025, 0.064718), (-0.000200, -0.063570, 0.065104), (-0.001858, -0.053038, 0.064770), (-0.001855, -0.045136, 0.064802), (-0.001831, -0.036950, 0.064752), (-0.001840, -0.026251, 0.064707), (-0.001191, -0.060746, 0.064923), (-0.002041, -0.025115, 0.064755), (-0.002365, -0.058236, 0.065030), (-0.002287, -0.049274, 0.065059), (-0.002253, -0.039457, 0.065071), (-0.002257, -0.032584, 0.065031), (-0.002124, -0.002552, 0.064742), (-0.002120, -0.017886, 0.064755), (-0.000768, -0.062385, 0.065272), (-0.000212, -0.001378, 0.088309), (-0.000580, -0.001218, 0.101498), (-0.000218, -0.001327, 0.096736), (-0.000634, -0.001267, 0.088376), (-0.000222, -0.001382, 0.080131), (-0.000668, -0.001257, 0.078969), (-0.000199, -0.001443, 0.070206), (-0.000228, -0.001314, 0.111868), (-0.000566, -0.001232, 0.109943), (-0.000559, -0.001233, 0.127272), (-0.000225, -0.001325, 0.121911), (-0.000163, -0.001330, 0.128736), (-0.000759, -0.001096, 0.129040), (-0.000995, -0.001108, 0.066476), (-0.000961, -0.001076, 0.079859), (-0.000946, -0.001061, 0.088729), (-0.001185, -0.000781, 0.122656), (-0.001191, -0.000762, 0.106076), (-0.001185, -0.000759, 0.112849), (-0.001234, -0.000781, 0.090790), (-0.001146, -0.000738, 0.129143), (-0.001300, -0.000808, 0.066327), (-0.001261, -0.000797, 0.079586), (0.000323, -0.001355, 0.078695), (0.000342, -0.001285, 0.097606), (0.000341, -0.001334, 0.089085), (0.000332, -0.001282, 0.114043), (0.000357, -0.001286, 0.121714), (0.000318, -0.001290, 0.128699), (0.000412, -0.001171, 0.129215), (0.000728, -0.001253, 0.070491), (0.000641, -0.001203, 0.121512), (0.000592, -0.001199, 0.126747), (0.000613, -0.001198, 0.107706), (0.000641, -0.001200, 0.094444), (0.000730, -0.001205, 0.086595), (0.000754, -0.001190, 0.081529), (0.000998, -0.001030, 0.073184), (-0.001341, 0.038690, 0.064540), (-0.001343, 0.026231, 0.064442), (-0.000622, 0.036958, 0.064430), (-0.000775, 0.026457, 0.064337), (0.000004, 0.030614, 0.064319), (-0.000077, 0.025999, 0.064273), (0.000133, 0.021729, 0.064115), (-0.001033, 0.021898, 0.064206), (-0.000589, 0.042932, 0.064387), (-0.000119, 0.011148, 0.064032), (-0.000803, 0.009329, 0.064097), (-0.001444, 0.003724, 0.064294), (-0.001366, 0.049196, 0.064534), (-0.000803, 0.050764, 0.064427), (-0.001390, 0.058824, 0.064562), (-0.000637, 0.058902, 0.064443), (0.000021, 0.050849, 0.064366), (-0.000658, 0.060961, 0.064713), (0.000047, 0.061739, 0.064712), (0.000540, 0.036865, 0.064424), (0.000510, 0.043747, 0.064393), (0.000534, 0.058991, 0.064459), (0.000848, 0.051093, 0.064434), (0.000890, 0.022469, 0.064200), (0.000853, 0.026517, 0.064362), (0.000810, 0.012522, 0.064114), (0.001430, 0.058562, 0.064571), (0.001380, 0.037208, 0.064538), (0.001400, 0.050113, 0.064535), (0.001088, 0.060180, 0.064665), (0.001511, 0.023997, 0.064375), (0.001369, 0.026052, 0.064457), (0.001623, 0.019174, 0.064320), (0.001456, 0.003588, 0.064279), (-0.001431, 0.010283, 0.064277), (-0.001536, 0.020841, 0.064343), (-0.000235, 0.063646, 0.065162), (0.001678, 0.005913, 0.064352), (0.001962, 0.055018, 0.064813), (-0.001260, 0.060513, 0.064847), (-0.001856, 0.050783, 0.064757), (-0.001741, 0.039500, 0.064735), (-0.001980, 0.058803, 0.064825), (-0.001831, 0.027258, 0.064700), (-0.002023, 0.025292, 0.064762), (-0.002106, 0.002548, 0.064701), (-0.000680, 0.062252, 0.065129), (0.001799, 0.040100, 0.064754), (-0.002114, 0.008689, 0.064770), (-0.002094, 0.021282, 0.064755), (-0.002299, 0.044212, 0.065104), (-0.002238, 0.038638, 0.065088), (-0.002343, 0.058202, 0.065094), (-0.002122, 0.059491, 0.065136), (-0.001348, 0.060933, 0.065111), (-0.001079, 0.001017, 0.092628), (-0.001033, 0.000973, 0.107196), (-0.001289, 0.000650, 0.103648), (-0.001317, 0.000714, 0.089869), (-0.001288, 0.000648, 0.113505), (-0.001059, 0.001016, 0.083223), (-0.001069, 0.000953, 0.120753), (-0.001062, 0.000997, 0.129122), (-0.001299, 0.000661, 0.122806), (-0.001257, 0.000716, 0.128777), (-0.001326, 0.000719, 0.081119), (-0.001121, 0.001047, 0.078804), (-0.001142, 0.001168, 0.066112), (-0.001364, 0.000843, 0.066480), (-0.000771, 0.001248, 0.104342), (-0.000779, 0.001230, 0.120580), (-0.000801, 0.001271, 0.093335), (-0.000806, 0.001261, 0.081526), (-0.000820, 0.001188, 0.128772), (-0.001599, 0.000295, 0.066273), (-0.001528, 0.000234, 0.079403), (-0.001474, 0.000240, 0.083000), (-0.001486, 0.000223, 0.090574), (-0.001441, 0.000223, 0.121937), (-0.001412, 0.000215, 0.108592), (-0.001445, 0.000164, 0.128816), (-0.001425, 0.000208, 0.101329), (-0.001281, 0.000295, 0.129247), (-0.001452, -0.000351, 0.089504), (-0.001445, -0.000349, 0.082327), (-0.001380, -0.000374, 0.098225), (-0.001497, -0.000340, 0.076358), (-0.001562, -0.000261, 0.066268), (-0.001388, -0.000360, 0.120302), (-0.001364, -0.000384, 0.106083), (-0.001377, -0.000314, 0.128807), (-0.000328, 0.001445, 0.094266), (0.000309, 0.001426, 0.098261), (-0.000345, 0.001368, 0.113056), (0.000305, 0.001364, 0.110882), (0.000317, 0.001428, 0.084474), (-0.000337, 0.001422, 0.084146), (-0.000327, 0.001487, 0.078887), (0.000296, 0.001506, 0.075068), (-0.000298, 0.001567, 0.070630), (0.000315, 0.001378, 0.123033), (-0.000331, 0.001402, 0.124020), (0.000318, 0.001379, 0.128846), (-0.000192, 0.001415, 0.128855), (-0.000151, 0.001280, 0.129271), (-0.002241, -0.004181, 0.065378), (-0.002274, 0.002752, 0.064965), (-0.002250, 0.004715, 0.065362), (-0.002235, 0.009118, 0.064985), (-0.002235, -0.004502, 0.064964), (-0.002229, -0.009228, 0.064961), (-0.002242, -0.008294, 0.065373), (-0.002255, -0.016795, 0.065367), (-0.002258, -0.017577, 0.064972), (-0.002266, -0.023574, 0.065368), (-0.002236, -0.025149, 0.064995), (-0.002245, 0.018141, 0.064989), (-0.002242, 0.017819, 0.065377), (-0.002255, 0.022715, 0.065362), (-0.002209, 0.022672, 0.064962), (-0.002266, 0.025223, 0.065013), (-0.002301, 0.025457, 0.065358), (-0.002220, 0.027028, 0.065032), (-0.002327, -0.025396, 0.065347), (-0.002332, 0.036873, 0.065359), (-0.002380, -0.036573, 0.065346), (-0.002402, 0.043554, 0.065355), (-0.002436, 0.053971, 0.065376), (-0.002455, -0.045417, 0.065362), (-0.002296, -0.055132, 0.065099), (-0.002472, -0.054691, 0.065388), (-0.002088, 0.000760, 0.064737), (-0.001937, 0.000862, 0.064165), (-0.002577, -0.058169, 0.065368), (-0.002541, 0.058450, 0.065373), (-0.002007, -0.059659, 0.065292), (-0.001369, -0.060989, 0.065315), (-0.002120, 0.000835, 0.040107), (-0.002197, 0.000811, 0.028506), (-0.002205, 0.000832, 0.014836), (-0.002299, -0.055451, 0.065644), (0.000238, 0.000716, 0.129464), (0.000541, -0.000459, 0.129472), (-0.000941, -0.000158, 0.129440), (-0.000709, 0.000753, 0.129416), (0.000039, -0.000951, 0.129389), (-0.001244, -0.061030, 0.065570), (-0.002368, -0.058433, 0.065602), (-0.000220, -0.063553, 0.065442), (-0.001277, 0.061231, 0.065385)]
    texCoord2f[] primvars:st = [(0.071904, 0.556347), (0.074430, 0.521504), (0.069453, 0.521606), (0.078763, 0.519774), (0.079240, 0.578007), (0.071950, 0.639167), (0.083062, 0.534216), (0.079219, 0.650447), (0.071973, 0.697812), (0.078707, 0.716637), (0.071040, 0.722929), (0.071457, 0.755702), (0.079336, 0.827937), (0.071756, 0.797829), (0.071712, 0.823513), (0.082639, 0.929403), (0.080083, 0.895763), (0.071217, 0.905114), (0.070156, 0.961648), (0.081989, 0.959337), (0.083286, 0.622096), (0.083282, 0.708461), (0.082820, 0.819813), (0.071093, 0.973026), (0.064766, 0.650459), (0.065009, 0.556984), (0.065401, 0.520070), (0.065443, 0.708538), (0.064328, 0.806758), (0.061214, 0.937967), (0.062258, 0.964394), (0.061058, 0.546469), (0.060499, 0.700690), (0.060801, 0.817879), (0.060706, 0.642292), (0.069868, 0.986176), (0.073796, 0.983876), (0.071591, 0.999521), (0.080989, 0.970635), (0.082019, 0.517568), (0.055997, 0.958008), (0.060546, 0.517537), (0.087697, 0.958656), (0.056215, 0.896328), (0.087038, 0.920584), (0.056904, 0.531768), (0.057599, 0.510386), (0.056636, 0.802526), (0.086374, 0.807342), (0.087424, 0.530577), (0.090571, 0.515109), (0.087282, 0.705308), (0.087383, 0.618791), (0.090090, 0.815899), (0.090567, 0.926890), (0.091220, 0.958757), (0.085640, 0.509618), (0.078777, 0.984970), (0.084181, 0.975431), (0.059617, 0.973018), (0.054589, 0.719751), (0.054405, 0.702830), (0.054433, 0.686498), (0.056360, 0.643097), (0.054357, 0.587780), (0.053053, 0.835226), (0.052708, 0.920898), (0.052220, 0.957023), (0.053473, 0.795525), (0.065647, 0.987471), (0.053938, 0.535998), (0.054115, 0.967042), (0.052195, 0.508683), (0.058951, 0.503809), (0.053836, 0.489702), (0.090148, 0.701623), (0.057086, 0.494044), (0.061327, 0.491807), (0.065279, 0.492599), (0.061078, 0.441813), (0.064623, 0.355867), (0.071783, 0.455337), (0.071414, 0.355173), (0.061037, 0.314773), (0.072073, 0.492834), (0.079912, 0.365846), (0.071684, 0.314203), (0.079346, 0.490263), (0.070281, 0.498896), (0.061149, 0.267734), (0.072004, 0.267412), (0.068104, 0.204973), (0.060831, 0.182908), (0.068174, 0.096276), (0.060962, 0.089481), (0.069938, 0.052864), (0.076066, 0.131262), (0.079184, 0.262991), (0.061757, 0.058478), (0.083093, 0.070895), (0.083399, 0.313853), (0.082951, 0.186581), (0.075542, 0.499115), (0.066234, 0.499759), (0.060905, 0.358026), (0.079341, 0.500392), (0.075378, 0.049347), (0.075160, 0.040380), (0.070616, 0.034438), (0.083325, 0.358634), (0.082576, 0.056352), (0.083609, 0.424598), (0.083402, 0.490458), (0.063490, 0.045933), (0.086935, 0.064391), (0.056323, 0.063057), (0.072696, 0.020594), (0.085876, 0.503841), (0.057321, 0.219189), (0.057046, 0.319891), (0.086332, 0.196203), (0.087188, 0.319317), (0.082317, 0.043618), (0.056504, 0.448457), (0.056601, 0.382704), (0.087882, 0.421328), (0.053554, 0.204155), (0.054084, 0.317300), (0.087505, 0.492306), (0.090473, 0.087744), (0.090115, 0.212718), (0.091220, 0.065115), (0.089288, 0.054799), (0.090153, 0.318650), (0.090491, 0.405241), (0.090689, 0.490730), (0.053762, 0.361417), (0.674656, 0.910986), (0.769896, 0.911000), (0.733317, 0.913556), (0.907561, 0.911002), (0.962985, 0.913718), (0.651159, 0.913864), (0.501867, 0.914430), (0.502316, 0.911224), (0.485366, 0.908164), (0.485390, 0.914884), (0.964778, 0.908524), (0.978320, 0.912512), (0.600457, 0.908062), (0.794806, 0.908250), (0.717907, 0.908327), (0.980353, 0.906976), (0.497091, 0.905901), (0.707932, 0.903859), (0.602160, 0.903277), (0.785261, 0.903662), (0.875835, 0.903807), (0.939432, 0.903882), (0.981066, 0.903741), (0.984878, 0.898355), (0.486604, 0.902229), (0.707007, 0.900360), (0.794565, 0.901063), (0.628571, 0.898964), (0.886694, 0.899238), (0.977765, 0.899298), (0.523667, 0.899058), (0.485966, 0.897699), (0.785736, 0.898850), (0.884006, 0.895873), (0.939142, 0.894649), (0.980588, 0.895445), (0.696785, 0.894484), (0.590954, 0.894388), (0.510017, 0.894576), (0.486786, 0.893199), (0.793298, 0.894000), (0.673875, 0.918412), (0.730084, 0.918409), (0.805757, 0.918055), (0.605134, 0.919440), (0.501308, 0.919371), (0.873752, 0.918161), (0.962705, 0.918200), (0.975177, 0.920068), (0.485993, 0.922697), (0.956085, 0.923073), (0.868716, 0.922797), (0.799729, 0.923467), (0.678408, 0.921539), (0.726248, 0.921783), (0.507683, 0.922908), (0.615582, 0.922685), (0.976394, 0.927319), (0.952355, 0.926575), (0.700145, 0.927844), (0.505796, 0.927211), (0.634998, 0.926864), (0.486808, 0.928625), (0.874858, 0.926214), (0.797878, 0.926887), (0.602648, 0.930008), (0.511627, 0.931158), (0.890145, 0.930662), (0.771755, 0.930888), (0.975723, 0.930425), (0.658580, 0.931140), (0.496941, 0.935339), (0.485495, 0.936303), (0.978036, 0.935339), (0.275349, 0.494241), (0.275408, 0.572495), (0.280092, 0.492667), (0.275253, 0.395044), (0.280093, 0.385961), (0.274798, 0.297680), (0.280425, 0.296764), (0.276040, 0.277876), (0.279613, 0.576769), (0.276698, 0.684733), (0.280080, 0.705934), (0.274833, 0.715508), (0.275706, 0.759054), (0.280276, 0.759715), (0.284228, 0.276994), (0.283766, 0.760428), (0.284407, 0.688016), (0.284699, 0.575049), (0.284501, 0.492017), (0.284514, 0.386223), (0.287064, 0.294973), (0.287563, 0.392763), (0.287048, 0.717379), (0.287480, 0.578780), (0.287694, 0.493223), (0.291059, 0.277980), (0.287480, 0.276341), (0.290048, 0.761973), (0.289683, 0.708250), (0.290092, 0.582421), (0.290905, 0.388692), (0.290840, 0.494343), (0.294146, 0.297584), (0.294146, 0.687079), (0.271639, 0.759116), (0.270641, 0.276958), (0.270561, 0.312184), (0.271113, 0.679722), (0.270818, 0.396371), (0.270789, 0.576539), (0.270879, 0.495515), (0.270653, 0.714807), (0.266954, 0.670360), (0.266448, 0.577955), (0.266602, 0.391508), (0.266017, 0.309490), (0.265807, 0.496071), (0.267363, 0.277706), (0.266736, 0.708634), (0.266980, 0.759640), (0.263629, 0.386079), (0.262920, 0.306519), (0.260715, 0.277638), (0.261793, 0.739880), (0.260148, 0.697650), (0.259099, 0.578192), (0.261707, 0.670970), (0.261663, 0.497478), (0.262381, 0.760398), (0.257620, 0.305720), (0.257073, 0.388544), (0.258114, 0.493800), (0.498173, 0.202388), (0.499271, 0.109212), (0.502573, 0.111268), (0.499446, 0.051099), (0.503678, 0.044245), (0.499527, 0.014935), (0.503399, 0.198220), (0.498895, 0.296314), (0.502978, 0.294512), (0.498886, 0.367832), (0.502842, 0.359183), (0.502702, 0.419912), (0.498519, 0.435215), (0.502110, 0.499909), (0.497435, 0.499199), (0.505037, 0.016813), (0.508897, 0.012374), (0.506614, 0.204775), (0.507543, 0.114317), (0.507534, 0.338404), (0.507138, 0.280300), (0.507569, 0.482859), (0.507367, 0.390619), (0.507738, 0.042239), (0.511194, 0.499458), (0.494968, 0.103822), (0.495063, 0.288343), (0.494984, 0.017696), (0.495643, 0.012263), (0.504728, 0.009482), (0.494195, 0.379572), (0.495037, 0.474271), (0.494826, 0.217256), (0.493180, 0.430120), (0.491367, 0.486501), (0.489575, 0.500455), (0.459555, 0.010318), (0.471717, 0.007232), (0.417626, 0.008354), (0.504050, 0.006886), (0.543810, 0.006134), (0.545371, 0.008873), (0.638999, 0.008080), (0.662992, 0.005289), (0.701787, 0.007559), (0.388728, 0.012036), (0.314784, 0.011001), (0.310789, 0.013747), (0.278218, 0.012256), (0.703924, 0.005099), (0.798404, 0.007368), (0.281592, 0.014857), (0.222060, 0.016012), (0.828457, 0.005011), (0.859258, 0.007600), (0.925304, 0.007491), (0.922652, 0.005036), (0.953862, 0.005393), (0.219678, 0.013502), (0.122138, 0.018486), (0.954111, 0.007718), (0.123809, 0.015912), (0.080350, 0.016974), (0.511730, 0.037696), (0.512005, 0.015279), (0.462531, 0.012219), (0.490878, 0.032609), (0.490772, 0.014377), (0.511980, 0.106128), (0.511679, 0.196791), (0.511338, 0.287512), (0.079237, 0.019652), (0.490232, 0.229301), (0.522902, 0.011383), (0.634182, 0.010133), (0.053794, 0.018670), (0.317694, 0.015611), (0.961436, 0.006288), (0.489755, 0.412045), (0.487937, 0.295530), (0.696490, 0.009725), (0.488102, 0.069087), (0.970960, 0.008709), (0.983302, 0.007422), (0.993282, 0.006904), (0.514441, 0.163661), (0.486720, 0.230835), (0.486502, 0.491127), (0.050183, 0.018751), (0.040681, 0.018697), (0.027850, 0.014556), (0.018811, 0.012519), (0.006265, 0.010588), (0.000488, 0.010050), (0.018060, 0.015684), (0.486833, 0.384797), (0.712477, 0.011490), (0.004281, 0.012864), (0.485831, 0.033371), (0.514151, 0.500479), (0.956255, 0.010721), (0.995387, 0.008939), (0.999512, 0.007078), (0.484197, 0.306097), (0.483525, 0.409831), (0.484913, 0.178390), (0.343460, 0.563313), (0.343078, 0.479410), (0.339822, 0.590776), (0.339589, 0.445077), (0.343683, 0.614311), (0.342837, 0.441188), (0.342014, 0.338138), (0.338113, 0.311902), (0.341995, 0.299369), (0.340177, 0.646662), (0.343885, 0.648174), (0.344059, 0.702946), (0.339729, 0.720471), (0.344406, 0.776617), (0.339701, 0.776510), (0.335271, 0.296248), (0.337134, 0.687803), (0.337137, 0.623618), (0.336517, 0.452382), (0.335666, 0.343707), (0.332195, 0.321178), (0.333775, 0.595983), (0.333085, 0.453637), (0.333949, 0.658225), (0.333655, 0.733239), (0.340144, 0.294540), (0.347964, 0.615143), (0.348035, 0.548644), (0.348373, 0.715734), (0.348303, 0.651275), (0.347605, 0.469659), (0.347196, 0.426272), (0.346577, 0.353566), (0.348986, 0.776719), (0.348390, 0.317229), (0.345597, 0.299201), (0.348176, 0.295873), (0.349165, 0.340564), (0.349926, 0.457315), (0.350380, 0.532898), (0.351001, 0.604573), (0.352093, 0.704568), (0.352683, 0.776589), (0.352683, 0.299104), (0.512952, 0.832654), (0.442196, 0.833279), (0.483323, 0.826647), (0.433139, 0.822548), (0.514357, 0.823017), (0.538080, 0.825648), (0.539806, 0.837372), (0.338423, 0.826963), (0.375310, 0.833666), (0.283431, 0.834001), (0.282293, 0.826670), (0.509950, 0.838003), (0.431541, 0.837854), (0.354392, 0.837816), (0.287037, 0.837911), (0.263271, 0.826132), (0.545099, 0.837914), (0.573153, 0.833645), (0.563607, 0.822322), (0.621029, 0.825798), (0.627977, 0.833126), (0.718629, 0.830800), (0.703078, 0.826382), (0.707416, 0.834966), (0.596633, 0.820796), (0.719200, 0.823216), (0.363076, 0.816887), (0.284431, 0.816417), (0.487782, 0.816615), (0.536482, 0.816659), (0.428580, 0.816397), (0.556367, 0.814904), (0.274801, 0.818437), (0.272616, 0.835129), (0.609498, 0.817070), (0.713723, 0.816925), (0.252218, 0.828458), (0.571782, 0.838958), (0.626065, 0.839864), (0.700064, 0.840370), (0.722067, 0.834156), (0.617403, 0.814756), (0.709549, 0.815000), (0.284872, 0.811439), (0.312178, 0.811869), (0.450407, 0.812286), (0.355900, 0.811812), (0.284975, 0.843201), (0.538429, 0.811842), (0.243599, 0.828385), (0.326603, 0.841845), (0.388578, 0.842026), (0.452757, 0.841815), (0.536587, 0.842124), (0.265914, 0.836613), (0.545367, 0.843900), (0.285694, 0.846264), (0.356121, 0.845893), (0.433090, 0.845863), (0.486941, 0.845953), (0.719956, 0.846264), (0.601332, 0.845366), (0.252494, 0.833939), (0.219589, 0.669911), (0.217027, 0.770803), (0.219846, 0.734362), (0.216117, 0.670441), (0.219179, 0.607381), (0.215418, 0.598519), (0.219005, 0.531501), (0.220395, 0.850098), (0.217553, 0.835394), (0.218237, 0.967877), (0.220810, 0.926890), (0.221541, 0.978992), (0.216518, 0.981491), (0.211987, 0.503022), (0.212710, 0.605336), (0.213155, 0.673161), (0.211891, 0.932608), (0.211169, 0.805855), (0.211436, 0.857631), (0.210086, 0.688949), (0.212258, 0.982289), (0.208576, 0.501887), (0.209425, 0.603270), (0.223495, 0.596385), (0.224379, 0.740996), (0.224026, 0.675827), (0.224957, 0.866705), (0.225460, 0.925362), (0.225331, 0.978785), (0.226127, 0.982882), (0.226511, 0.533644), (0.227812, 0.923807), (0.227635, 0.963858), (0.227038, 0.818236), (0.226785, 0.716802), (0.227203, 0.656776), (0.227284, 0.618041), (0.229384, 0.554226), (0.612871, 0.752421), (0.710187, 0.752679), (0.626382, 0.758163), (0.708433, 0.757204), (0.675944, 0.763224), (0.711997, 0.762685), (0.745174, 0.764345), (0.743888, 0.755268), (0.579728, 0.758267), (0.827147, 0.762868), (0.841278, 0.757640), (0.884753, 0.752842), (0.530859, 0.751899), (0.518607, 0.756323), (0.455785, 0.751416), (0.455181, 0.757360), (0.517921, 0.762769), (0.438975, 0.756986), (0.432908, 0.762543), (0.627074, 0.767274), (0.573335, 0.766829), (0.454431, 0.766494), (0.515993, 0.769237), (0.739408, 0.770208), (0.707939, 0.769985), (0.816455, 0.770022), (0.457697, 0.773584), (0.624363, 0.773910), (0.523620, 0.773655), (0.445023, 0.770854), (0.727522, 0.775109), (0.711540, 0.774129), (0.764886, 0.776142), (0.885630, 0.775685), (0.833912, 0.752516), (0.752081, 0.751219), (0.417575, 0.760090), (0.867607, 0.777343), (0.485315, 0.778357), (0.442362, 0.752050), (0.518484, 0.747658), (0.606555, 0.748920), (0.455850, 0.746351), (0.702154, 0.748397), (0.717442, 0.746751), (0.893960, 0.746940), (0.428359, 0.756111), (0.601764, 0.777501), (0.846324, 0.746063), (0.748631, 0.745848), (0.569803, 0.743501), (0.613295, 0.744160), (0.460562, 0.742816), (0.450066, 0.744481), (0.438654, 0.750637), (0.993118, 0.425316), (0.993310, 0.313835), (0.989902, 0.340974), (0.989969, 0.446417), (0.990136, 0.265557), (0.993035, 0.497284), (0.993355, 0.210113), (0.993601, 0.146045), (0.990372, 0.194399), (0.990901, 0.148802), (0.989765, 0.513372), (0.992854, 0.531076), (0.993556, 0.628079), (0.990298, 0.625371), (0.996318, 0.335683), (0.996585, 0.211444), (0.996162, 0.419905), (0.995864, 0.510265), (0.996093, 0.148720), (0.985458, 0.626945), (0.985523, 0.526497), (0.985723, 0.498977), (0.985810, 0.441006), (0.986658, 0.201044), (0.986387, 0.303133), (0.986264, 0.148627), (0.986092, 0.358712), (0.987375, 0.145115), (0.981156, 0.449179), (0.980913, 0.504102), (0.981237, 0.382438), (0.980780, 0.549760), (0.980944, 0.626894), (0.981918, 0.213525), (0.981485, 0.322316), (0.982433, 0.148635), (0.144807, 0.581895), (0.139412, 0.550647), (0.144379, 0.434840), (0.139060, 0.451873), (0.139751, 0.658548), (0.145170, 0.661092), (0.145258, 0.702252), (0.140218, 0.732157), (0.145276, 0.766874), (0.138621, 0.356783), (0.143950, 0.349039), (0.138423, 0.311291), (0.142655, 0.311205), (0.142278, 0.307950), (0.656134, 0.376798), (0.694711, 0.338147), (0.702426, 0.324895), (0.727159, 0.301533), (0.656956, 0.380864), (0.631976, 0.409147), (0.634399, 0.401412), (0.589427, 0.452253), (0.587687, 0.458972), (0.553519, 0.492775), (0.547525, 0.504180), (0.773311, 0.249759), (0.769399, 0.249655), (0.794618, 0.221690), (0.796768, 0.223962), (0.809438, 0.208961), (0.808614, 0.205870), (0.818694, 0.198491), (0.544044, 0.503800), (0.867357, 0.139732), (0.485187, 0.569908), (0.901691, 0.100951), (0.955015, 0.040206), (0.438578, 0.622185), (0.389303, 0.681239), (0.389568, 0.676863), (0.686300, 0.351152), (0.690001, 0.354112), (0.370998, 0.697225), (0.977775, 0.013923), (0.364943, 0.708179), (0.359312, 0.718292), (0.800024, 0.497272), (0.852990, 0.566354), (0.915889, 0.647408), (0.383648, 0.679656), (0.169127, 0.527140), (0.159732, 0.528828), (0.162889, 0.517717), (0.169913, 0.519903), (0.156111, 0.524778), (0.447842, 0.194271), (0.442939, 0.215346), (0.451726, 0.173803), (0.010665, 0.664085)] (
        interpolation = "vertex"
    )
    rel material:binding = <Material>

    def Material "Material"
    {
        token outputs:surface.connect = <PBRShader.outputs:surface>

        def Shader "PBRShader"
        {
            uniform token info:id = "UsdPreviewSurface"
            color3f inputs:diffuseColor.connect = <../DiffuseTexture.outputs:rgb>
            float inputs:metallic = 0.0
            float inputs:roughness = 0.5
            token outputs:surface
        }

        def Shader "DiffuseTexture"
        {
            uniform token info:id = "UsdUVTexture"
            asset inputs:file = @../textures/ae6cd0d3_texture.png@
            float2 inputs:st.connect = <../PrimvarReader.outputs:result>
            token inputs:wrapS = "repeat"
            token inputs:wrapT = "repeat"
            float3 outputs:rgb
        }

        def Shader "PrimvarReader"
        {
            uniform token info:id = "UsdPrimvarReader_float2"
            token inputs:varname = "st"
            float2 outputs:result
        }
    }
}
