#usda 1.0
(
    defaultPrim = "Mesh"
    metersPerUnit = 1
    upAxis = "Z"
)

def Mesh "Mesh"
{
    int[] faceVertexCounts = [3, 3, 3, 3, 3, 3, 3, 3, 3, 3, 3, 3, 3, 3, 3, 3, 3, 3, 3, 3, 3, 3, 3, 3, 3, 3, 3, 3, 3, 3, 3, 3, 3, 3, 3, 3, 3, 3, 3, 3, 3, 3, 3, 3, 3, 3, 3, 3, 3, 3, 3, 3, 3, 3, 3, 3, 3, 3, 3, 3, 3, 3, 3, 3, 3, 3, 3, 3, 3, 3, 3, 3, 3, 3, 3, 3, 3, 3, 3, 3, 3, 3, 3, 3, 3, 3, 3, 3, 3, 3, 3, 3, 3, 3, 3, 3, 3, 3, 3, 3, 3, 3, 3, 3, 3, 3, 3, 3, 3, 3, 3, 3, 3, 3, 3, 3, 3, 3, 3, 3, 3, 3, 3, 3, 3, 3, 3, 3, 3, 3, 3, 3, 3, 3, 3, 3, 3, 3, 3, 3, 3, 3, 3, 3, 3, 3, 3, 3, 3, 3, 3, 3, 3, 3, 3, 3, 3, 3, 3, 3, 3, 3, 3, 3, 3, 3, 3, 3, 3, 3, 3, 3, 3, 3, 3, 3, 3, 3, 3, 3, 3, 3, 3, 3, 3, 3, 3, 3, 3, 3, 3, 3, 3, 3, 3, 3, 3, 3, 3, 3, 3, 3, 3, 3, 3, 3, 3, 3, 3, 3, 3, 3, 3, 3, 3, 3, 3, 3, 3, 3, 3, 3, 3, 3, 3, 3, 3, 3, 3, 3, 3, 3, 3, 3, 3, 3, 3, 3, 3, 3, 3, 3, 3, 3, 3, 3, 3, 3, 3, 3, 3, 3, 3, 3, 3, 3, 3, 3, 3, 3, 3, 3, 3, 3, 3, 3, 3, 3, 3, 3, 3, 3, 3, 3, 3, 3, 3, 3, 3, 3, 3, 3, 3, 3, 3, 3, 3, 3, 3, 3, 3, 3, 3, 3, 3, 3, 3, 3, 3, 3, 3, 3, 3, 3, 3, 3, 3, 3, 3, 3, 3, 3, 3, 3, 3, 3, 3, 3, 3, 3, 3, 3, 3, 3, 3, 3, 3, 3, 3, 3, 3, 3, 3, 3, 3, 3, 3, 3, 3, 3, 3, 3, 3, 3, 3, 3, 3, 3, 3, 3, 3, 3, 3, 3, 3, 3, 3, 3, 3, 3, 3, 3, 3, 3, 3, 3, 3, 3, 3, 3, 3, 3, 3, 3, 3, 3, 3, 3, 3, 3, 3, 3, 3, 3, 3, 3, 3, 3, 3, 3, 3, 3, 3, 3, 3, 3, 3, 3, 3, 3, 3, 3, 3, 3, 3, 3, 3, 3, 3, 3, 3, 3, 3, 3, 3, 3, 3, 3, 3, 3, 3, 3, 3, 3, 3, 3, 3, 3, 3, 3, 3, 3, 3, 3, 3, 3, 3, 3, 3, 3, 3, 3, 3, 3, 3, 3, 3, 3, 3, 3, 3, 3, 3, 3, 3, 3, 3, 3, 3, 3, 3, 3, 3, 3, 3, 3, 3, 3, 3, 3, 3, 3, 3, 3, 3, 3, 3, 3, 3, 3, 3, 3, 3, 3, 3, 3, 3, 3, 3, 3, 3, 3, 3, 3, 3, 3, 3, 3, 3, 3, 3, 3, 3, 3, 3, 3, 3, 3, 3, 3, 3, 3, 3, 3, 3, 3, 3, 3, 3, 3, 3, 3, 3, 3, 3, 3, 3, 3, 3, 3, 3, 3, 3, 3, 3, 3, 3, 3, 3, 3, 3, 3, 3, 3, 3, 3, 3, 3, 3, 3, 3, 3, 3, 3, 3, 3, 3, 3, 3, 3, 3, 3, 3, 3, 3, 3, 3, 3, 3, 3, 3, 3, 3, 3, 3, 3, 3, 3, 3, 3, 3, 3, 3, 3, 3, 3, 3, 3, 3, 3, 3, 3, 3, 3, 3, 3, 3, 3, 3, 3, 3, 3, 3, 3, 3, 3, 3, 3, 3, 3, 3, 3, 3, 3, 3, 3, 3, 3, 3, 3, 3, 3, 3, 3, 3, 3, 3, 3, 3, 3, 3, 3, 3, 3, 3, 3, 3, 3, 3, 3, 3, 3, 3, 3, 3, 3, 3, 3, 3, 3, 3, 3, 3, 3, 3, 3, 3, 3, 3, 3, 3, 3, 3, 3, 3, 3, 3, 3, 3, 3, 3, 3, 3, 3, 3, 3, 3, 3, 3, 3, 3, 3, 3, 3, 3, 3, 3, 3, 3, 3, 3, 3, 3, 3, 3, 3, 3, 3, 3, 3, 3, 3, 3, 3, 3, 3, 3, 3, 3, 3, 3, 3, 3, 3, 3, 3, 3, 3, 3, 3, 3, 3, 3, 3, 3, 3, 3, 3, 3, 3, 3, 3, 3, 3, 3, 3, 3, 3, 3, 3, 3, 3, 3, 3, 3, 3, 3, 3, 3, 3, 3, 3, 3, 3, 3, 3, 3, 3, 3, 3, 3, 3, 3, 3, 3, 3, 3, 3, 3, 3, 3, 3, 3, 3, 3, 3, 3, 3, 3, 3, 3, 3, 3, 3, 3, 3, 3, 3, 3, 3, 3, 3, 3, 3, 3, 3, 3, 3, 3, 3, 3, 3, 3, 3, 3, 3, 3, 3, 3, 3, 3, 3, 3, 3, 3, 3, 3, 3, 3, 3, 3, 3, 3, 3, 3, 3, 3, 3, 3, 3, 3, 3, 3, 3, 3, 3, 3, 3, 3, 3, 3, 3, 3, 3, 3, 3, 3, 3, 3, 3, 3, 3, 3, 3, 3, 3, 3, 3, 3, 3, 3, 3, 3, 3, 3, 3, 3, 3, 3, 3, 3, 3, 3, 3, 3, 3, 3, 3, 3, 3, 3, 3, 3, 3, 3, 3, 3, 3, 3, 3, 3, 3, 3, 3, 3, 3, 3, 3, 3, 3, 3, 3, 3, 3, 3, 3, 3, 3, 3, 3, 3, 3, 3, 3, 3, 3, 3, 3, 3, 3, 3, 3, 3, 3, 3, 3, 3, 3, 3, 3, 3, 3, 3, 3, 3, 3, 3, 3, 3, 3, 3, 3, 3, 3, 3, 3, 3, 3, 3, 3, 3, 3, 3, 3, 3, 3, 3, 3, 3, 3, 3, 3, 3, 3, 3, 3, 3, 3, 3, 3, 3, 3, 3, 3, 3, 3, 3, 3, 3, 3, 3, 3, 3, 3, 3, 3, 3, 3, 3, 3, 3, 3, 3, 3, 3, 3, 3, 3, 3, 3, 3, 3, 3, 3, 3, 3, 3, 3, 3, 3, 3, 3, 3, 3, 3, 3, 3, 3, 3, 3, 3, 3, 3, 3, 3, 3, 3, 3, 3, 3, 3, 3, 3, 3, 3, 3, 3, 3, 3, 3, 3, 3, 3, 3, 3, 3, 3, 3, 3, 3, 3, 3, 3, 3, 3, 3, 3, 3, 3, 3, 3, 3, 3, 3, 3, 3, 3, 3, 3, 3, 3, 3, 3, 3, 3, 3, 3, 3, 3, 3, 3, 3, 3, 3, 3, 3, 3, 3, 3, 3, 3, 3, 3, 3, 3, 3, 3, 3, 3, 3, 3, 3, 3, 3, 3, 3, 3, 3, 3, 3, 3, 3, 3, 3, 3, 3, 3, 3, 3, 3, 3, 3, 3, 3, 3, 3, 3, 3, 3, 3, 3, 3, 3, 3, 3, 3, 3, 3, 3, 3, 3, 3, 3, 3, 3, 3, 3, 3, 3, 3, 3, 3, 3, 3, 3, 3, 3, 3, 3, 3, 3, 3, 3, 3, 3, 3, 3, 3, 3, 3, 3, 3, 3, 3, 3, 3, 3, 3, 3, 3, 3, 3, 3, 3, 3, 3, 3, 3, 3, 3, 3, 3, 3, 3, 3, 3, 3, 3, 3, 3, 3, 3, 3, 3, 3, 3, 3, 3, 3, 3, 3, 3, 3, 3, 3, 3, 3, 3, 3, 3, 3, 3, 3, 3, 3, 3, 3, 3, 3, 3, 3, 3, 3, 3, 3, 3, 3, 3, 3, 3, 3, 3, 3, 3, 3, 3, 3, 3, 3, 3, 3, 3, 3, 3, 3, 3, 3, 3, 3, 3, 3, 3, 3, 3, 3, 3, 3, 3, 3, 3, 3, 3, 3, 3, 3, 3, 3, 3, 3, 3, 3, 3, 3, 3, 3, 3, 3, 3, 3, 3, 3, 3, 3, 3, 3, 3, 3, 3, 3, 3, 3, 3, 3, 3, 3, 3, 3, 3, 3, 3, 3, 3, 3, 3, 3, 3, 3, 3, 3, 3, 3, 3, 3, 3, 3, 3, 3, 3, 3, 3, 3, 3, 3, 3, 3, 3, 3, 3, 3, 3, 3, 3, 3, 3, 3, 3, 3, 3, 3, 3, 3, 3, 3, 3, 3, 3, 3, 3, 3, 3, 3, 3, 3, 3, 3, 3, 3, 3, 3, 3, 3, 3, 3, 3, 3, 3, 3, 3, 3, 3, 3, 3, 3, 3, 3, 3, 3, 3, 3, 3, 3, 3, 3, 3, 3, 3, 3, 3, 3, 3, 3, 3, 3, 3, 3, 3, 3, 3, 3, 3, 3, 3, 3, 3, 3, 3, 3, 3, 3, 3, 3, 3, 3, 3, 3, 3, 3, 3, 3, 3, 3, 3, 3, 3, 3, 3, 3, 3, 3, 3, 3, 3, 3, 3, 3, 3, 3, 3, 3, 3, 3, 3, 3, 3, 3, 3, 3, 3, 3, 3, 3, 3, 3, 3, 3, 3, 3, 3, 3, 3, 3, 3, 3, 3, 3, 3, 3, 3, 3, 3, 3, 3, 3, 3, 3, 3, 3, 3, 3, 3, 3, 3, 3, 3, 3, 3, 3, 3, 3, 3, 3, 3, 3, 3, 3, 3, 3, 3, 3, 3, 3, 3, 3, 3, 3, 3, 3, 3, 3, 3, 3, 3, 3, 3, 3, 3, 3, 3, 3, 3, 3, 3, 3, 3, 3, 3, 3, 3, 3, 3, 3, 3, 3, 3, 3, 3, 3, 3, 3, 3, 3, 3, 3, 3, 3, 3, 3, 3, 3, 3, 3, 3, 3, 3, 3, 3, 3, 3, 3, 3, 3, 3, 3, 3, 3, 3, 3, 3, 3, 3, 3, 3, 3, 3, 3, 3, 3, 3, 3, 3, 3, 3, 3, 3, 3, 3, 3, 3, 3, 3, 3, 3, 3, 3, 3, 3, 3, 3, 3, 3, 3, 3, 3, 3, 3, 3, 3, 3, 3, 3, 3, 3, 3, 3, 3, 3, 3, 3, 3, 3, 3, 3, 3, 3, 3, 3, 3, 3, 3, 3, 3, 3, 3, 3, 3, 3, 3, 3, 3, 3, 3, 3, 3, 3, 3, 3, 3, 3, 3, 3, 3, 3, 3, 3, 3, 3, 3, 3, 3, 3, 3, 3, 3, 3, 3, 3, 3, 3, 3, 3, 3, 3, 3, 3, 3, 3, 3, 3, 3, 3, 3, 3, 3, 3, 3, 3, 3, 3, 3, 3, 3, 3, 3, 3, 3, 3, 3, 3, 3, 3, 3, 3, 3, 3, 3, 3, 3, 3, 3, 3, 3, 3, 3, 3, 3, 3, 3, 3, 3, 3, 3, 3, 3, 3, 3, 3, 3, 3, 3, 3, 3, 3, 3, 3, 3, 3, 3, 3, 3, 3, 3, 3, 3, 3, 3, 3, 3, 3, 3, 3, 3, 3, 3, 3, 3, 3, 3, 3, 3, 3, 3, 3, 3, 3, 3, 3, 3, 3, 3, 3, 3, 3, 3, 3, 3, 3, 3, 3, 3, 3, 3, 3, 3, 3, 3, 3, 3, 3, 3, 3, 3, 3, 3, 3, 3, 3, 3, 3, 3, 3, 3, 3, 3, 3, 3, 3, 3, 3, 3, 3, 3, 3, 3, 3, 3, 3, 3, 3, 3, 3, 3, 3, 3, 3, 3, 3, 3, 3, 3, 3, 3, 3, 3, 3, 3, 3, 3, 3, 3, 3, 3, 3, 3, 3, 3, 3, 3, 3, 3, 3, 3, 3, 3, 3, 3, 3, 3, 3, 3, 3, 3, 3, 3, 3, 3, 3, 3, 3, 3, 3, 3, 3, 3, 3, 3, 3, 3, 3, 3, 3, 3, 3, 3, 3, 3, 3, 3, 3, 3, 3, 3, 3, 3, 3, 3, 3, 3, 3, 3, 3, 3, 3, 3, 3, 3, 3, 3, 3, 3, 3, 3, 3, 3, 3, 3, 3, 3, 3, 3, 3, 3, 3, 3, 3, 3, 3, 3, 3, 3, 3, 3, 3, 3, 3, 3, 3, 3, 3, 3, 3, 3, 3, 3, 3, 3, 3, 3, 3, 3, 3, 3, 3, 3, 3, 3, 3, 3, 3, 3, 3, 3, 3, 3, 3, 3, 3, 3, 3, 3, 3, 3, 3, 3, 3, 3, 3, 3, 3, 3, 3, 3, 3, 3, 3, 3, 3, 3, 3, 3, 3, 3, 3, 3, 3, 3, 3, 3, 3, 3, 3, 3, 3, 3, 3, 3, 3, 3, 3, 3, 3, 3, 3, 3, 3, 3, 3, 3, 3, 3, 3, 3, 3, 3, 3, 3, 3, 3, 3, 3, 3, 3, 3, 3, 3, 3, 3, 3, 3, 3, 3, 3, 3, 3, 3, 3, 3, 3, 3, 3, 3, 3, 3, 3, 3, 3, 3, 3, 3, 3, 3, 3, 3, 3, 3, 3, 3, 3, 3, 3, 3, 3, 3, 3, 3, 3, 3, 3, 3, 3, 3, 3, 3, 3, 3, 3, 3, 3, 3, 3, 3, 3, 3, 3, 3, 3, 3, 3, 3, 3, 3, 3, 3, 3, 3, 3, 3, 3, 3, 3, 3, 3, 3, 3, 3, 3, 3, 3, 3, 3, 3, 3, 3, 3, 3, 3, 3, 3, 3, 3, 3, 3, 3, 3, 3, 3, 3, 3, 3, 3, 3, 3, 3, 3, 3, 3, 3, 3, 3, 3, 3, 3, 3, 3, 3]
    int[] faceVertexIndices = [592, 593, 628, 593, 629, 628, 593, 594, 629, 594, 630, 629, 594, 591, 630, 591, 602, 623, 623, 596, 624, 624, 596, 625, 596, 597, 625, 597, 598, 626, 599, 600, 627, 600, 622, 627, 600, 601, 622, 622, 601, 616, 601, 603, 616, 616, 604, 617, 604, 605, 617, 617, 605, 618, 605, 606, 618, 553, 556, 560, 553, 555, 556, 546, 548, 554, 548, 547, 549, 549, 557, 558, 557, 564, 558, 558, 564, 565, 564, 566, 565, 565, 566, 569, 566, 570, 572, 570, 573, 572, 573, 574, 572, 573, 575, 574, 573, 576, 575, 555, 551, 552, 551, 545, 552, 545, 546, 552, 552, 546, 554, 548, 549, 559, 559, 549, 558, 569, 566, 577, 577, 566, 572, 555, 552, 594, 558, 581, 559, 558, 565, 581, 565, 582, 581, 565, 569, 582, 569, 577, 582, 577, 572, 586, 572, 574, 586, 563, 560, 595, 560, 556, 592, 556, 555, 592, 594, 552, 591, 552, 554, 591, 554, 602, 591, 548, 596, 554, 559, 581, 599, 600, 581, 582, 582, 577, 603, 586, 574, 605, 574, 575, 606, 575, 613, 607, 563, 595, 608, 560, 592, 595, 577, 604, 603, 577, 586, 604, 606, 575, 607, 607, 613, 615, 608, 631, 632, 608, 595, 631, 595, 592, 631, 602, 596, 623, 599, 627, 626, 603, 604, 616, 607, 615, 620, 631, 592, 628, 630, 591, 623, 597, 626, 625, 598, 599, 626, 606, 619, 618, 606, 620, 619, 606, 607, 620, 628, 629, 671, 627, 622, 639, 625, 626, 647, 647, 626, 646, 626, 627, 646, 646, 627, 639, 639, 622, 650, 622, 616, 650, 650, 616, 648, 616, 617, 648, 617, 618, 648, 618, 619, 649, 619, 645, 649, 619, 620, 645, 628, 671, 670, 671, 629, 670, 629, 630, 669, 630, 656, 669, 630, 623, 656, 656, 623, 655, 623, 624, 655, 655, 624, 654, 624, 625, 654, 654, 625, 647, 646, 639, 650, 646, 650, 672, 648, 618, 649, 561, 550, 553, 550, 580, 544, 580, 547, 544, 580, 590, 547, 590, 585, 547, 547, 585, 557, 585, 564, 557, 585, 705, 564, 705, 706, 564, 706, 567, 564, 562, 561, 560, 561, 553, 560, 553, 550, 551, 550, 545, 551, 545, 550, 544, 544, 547, 546, 547, 557, 549, 564, 567, 566, 567, 568, 566, 566, 568, 570, 568, 571, 570, 571, 573, 570, 562, 563, 578, 562, 560, 563, 576, 614, 613, 578, 563, 579, 579, 563, 608, 615, 613, 718, 579, 608, 609, 609, 608, 633, 620, 615, 621, 615, 718, 695, 633, 608, 632, 615, 695, 621, 620, 621, 645, 633, 632, 658, 645, 621, 681, 632, 631, 658, 649, 645, 667, 658, 631, 664, 631, 628, 664, 664, 628, 670, 670, 629, 669, 654, 647, 680, 680, 646, 678, 647, 646, 680, 646, 672, 678, 672, 650, 677, 650, 648, 677, 677, 648, 676, 648, 649, 676, 676, 649, 675, 649, 667, 675, 645, 681, 667, 670, 669, 696, 656, 679, 735, 655, 679, 656, 655, 654, 679, 679, 654, 680, 679, 680, 738, 678, 672, 740, 712, 713, 585, 713, 714, 585, 709, 707, 568, 725, 561, 589, 725, 724, 561, 561, 724, 550, 724, 580, 550, 724, 723, 580, 723, 722, 580, 722, 711, 580, 711, 590, 580, 590, 712, 585, 585, 714, 705, 705, 710, 706, 714, 710, 705, 706, 710, 567, 710, 568, 567, 710, 709, 568, 568, 707, 571, 707, 573, 571, 573, 708, 576, 707, 708, 573, 576, 708, 715, 578, 589, 562, 589, 561, 562, 576, 715, 614, 584, 587, 583, 583, 579, 584, 583, 578, 579, 614, 746, 613, 584, 579, 609, 588, 609, 610, 588, 584, 609, 746, 762, 718, 610, 609, 635, 635, 609, 634, 718, 762, 758, 634, 609, 633, 635, 634, 673, 695, 758, 743, 634, 668, 673, 634, 633, 668, 668, 633, 662, 681, 695, 743, 633, 658, 662, 662, 658, 688, 688, 658, 664, 688, 664, 701, 664, 670, 701, 670, 741, 701, 670, 696, 741, 696, 736, 741, 696, 669, 736, 669, 656, 736, 656, 735, 736, 679, 737, 735, 679, 738, 737, 738, 680, 739, 680, 678, 739, 678, 740, 739, 672, 731, 740, 672, 677, 731, 677, 732, 731, 732, 677, 733, 677, 676, 733, 676, 734, 733, 676, 675, 734, 675, 742, 734, 675, 667, 742, 667, 681, 742, 701, 741, 757, 930, 924, 725, 924, 913, 725, 913, 724, 725, 723, 914, 722, 729, 934, 712, 934, 918, 712, 712, 918, 713, 920, 935, 713, 714, 935, 710, 935, 928, 710, 928, 929, 710, 929, 709, 710, 929, 927, 709, 709, 927, 707, 927, 925, 707, 926, 766, 708, 930, 725, 589, 711, 729, 712, 717, 716, 583, 716, 578, 583, 716, 589, 578, 715, 763, 614, 614, 763, 764, 611, 587, 588, 611, 588, 612, 612, 588, 610, 612, 610, 636, 610, 635, 640, 610, 640, 636, 640, 635, 674, 674, 635, 673, 758, 761, 743, 673, 668, 682, 682, 668, 662, 681, 743, 759, 743, 761, 759, 682, 744, 745, 662, 744, 682, 662, 688, 744, 742, 681, 747, 681, 759, 747, 744, 688, 748, 688, 701, 748, 738, 739, 756, 732, 733, 254, 748, 701, 238, 238, 701, 757, 741, 246, 757, 741, 736, 246, 246, 736, 752, 736, 735, 752, 735, 753, 752, 735, 737, 753, 737, 738, 753, 738, 756, 753, 756, 739, 257, 739, 740, 257, 257, 740, 253, 740, 760, 253, 740, 731, 760, 731, 732, 760, 760, 732, 254, 254, 733, 259, 733, 734, 259, 734, 258, 259, 734, 742, 258, 914, 915, 722, 722, 915, 711, 915, 916, 711, 711, 916, 729, 729, 916, 934, 916, 917, 934, 917, 918, 934, 920, 919, 935, 919, 928, 935, 908, 716, 909, 908, 930, 716, 930, 589, 716, 708, 766, 715, 727, 717, 587, 685, 727, 587, 673, 693, 674, 673, 682, 693, 693, 745, 694, 693, 682, 745, 745, 744, 236, 744, 748, 236, 236, 748, 247, 742, 252, 260, 742, 747, 252, 747, 759, 252, 748, 238, 247, 757, 246, 238, 752, 245, 246, 245, 752, 251, 752, 753, 251, 251, 753, 255, 753, 256, 255, 753, 756, 256, 756, 257, 256, 760, 254, 253, 253, 254, 219, 254, 259, 215, 215, 259, 216, 259, 258, 216, 742, 260, 258, 901, 913, 907, 901, 900, 913, 899, 914, 900, 899, 898, 914, 898, 915, 914, 917, 897, 918, 897, 894, 918, 895, 919, 894, 919, 904, 928, 928, 904, 929, 904, 905, 929, 902, 889, 925, 925, 889, 926, 908, 906, 930, 717, 909, 716, 751, 727, 685, 697, 751, 685, 638, 611, 612, 637, 612, 636, 651, 637, 636, 651, 636, 640, 651, 640, 659, 659, 640, 674, 659, 674, 691, 691, 674, 693, 691, 693, 694, 694, 745, 755, 745, 242, 241, 745, 236, 242, 759, 272, 269, 252, 759, 269, 247, 238, 229, 238, 228, 229, 246, 227, 238, 238, 227, 228, 246, 245, 227, 227, 245, 209, 245, 251, 209, 251, 210, 209, 251, 255, 210, 255, 256, 210, 210, 256, 211, 211, 257, 212, 256, 257, 211, 257, 253, 212, 212, 253, 219, 219, 254, 214, 254, 215, 214, 216, 258, 217, 217, 258, 224, 258, 260, 224, 892, 878, 906, 878, 890, 906, 890, 901, 907, 886, 905, 904, 892, 906, 908, 889, 903, 766, 910, 909, 727, 931, 751, 697, 720, 931, 697, 700, 697, 638, 638, 612, 637, 652, 637, 651, 689, 659, 692, 659, 691, 692, 692, 691, 754, 691, 694, 754, 694, 755, 239, 755, 745, 241, 241, 242, 168, 242, 236, 168, 236, 229, 168, 236, 247, 229, 224, 252, 231, 252, 269, 231, 229, 228, 57, 227, 226, 172, 227, 209, 226, 209, 210, 218, 214, 213, 219, 215, 158, 214, 215, 216, 158, 217, 224, 156, 156, 224, 165, 877, 873, 909, 891, 910, 751, 700, 638, 641, 641, 638, 637, 641, 637, 642, 642, 637, 652, 665, 652, 651, 665, 651, 659, 665, 659, 689, 692, 754, 249, 754, 694, 239, 754, 239, 248, 755, 241, 239, 239, 241, 230, 230, 241, 171, 241, 168, 171, 269, 272, 264, 231, 269, 264, 168, 229, 62, 229, 57, 62, 212, 219, 213, 214, 162, 213, 165, 231, 169, 224, 231, 165, 57, 228, 58, 58, 228, 65, 228, 227, 65, 227, 172, 65, 172, 226, 63, 226, 209, 63, 214, 158, 162, 158, 216, 157, 216, 217, 157, 217, 156, 157, 875, 881, 890, 875, 859, 881, 857, 874, 889, 721, 932, 720, 704, 721, 700, 704, 641, 643, 704, 700, 641, 643, 641, 642, 690, 665, 689, 690, 689, 692, 690, 692, 262, 249, 754, 248, 248, 239, 170, 239, 230, 170, 230, 171, 167, 171, 168, 166, 169, 231, 208, 231, 264, 208, 172, 63, 65, 63, 209, 64, 209, 218, 64, 64, 210, 159, 218, 210, 64, 210, 211, 159, 159, 211, 160, 211, 212, 160, 212, 213, 160, 160, 213, 161, 213, 162, 161, 855, 859, 875, 873, 877, 856, 933, 932, 721, 933, 721, 704, 643, 642, 644, 666, 652, 665, 642, 652, 666, 730, 666, 690, 666, 665, 690, 730, 690, 262, 262, 249, 220, 262, 692, 249, 249, 248, 225, 225, 248, 170, 170, 230, 167, 171, 61, 167, 171, 166, 61, 166, 168, 59, 168, 62, 59, 59, 62, 56, 62, 57, 56, 57, 55, 56, 165, 169, 67, 169, 208, 67, 65, 53, 58, 65, 63, 53, 63, 52, 53, 52, 63, 51, 63, 64, 51, 51, 64, 49, 64, 159, 49, 49, 159, 50, 159, 160, 50, 160, 161, 48, 161, 47, 48, 161, 162, 47, 162, 44, 47, 162, 158, 44, 158, 157, 46, 46, 156, 45, 157, 156, 46, 156, 165, 45, 860, 877, 891, 860, 891, 893, 911, 932, 933, 719, 933, 704, 719, 643, 698, 719, 698, 750, 719, 704, 643, 660, 643, 644, 653, 644, 642, 653, 642, 666, 730, 262, 261, 220, 249, 225, 225, 170, 164, 170, 98, 163, 170, 167, 98, 166, 59, 61, 208, 264, 243, 55, 57, 23, 57, 54, 23, 57, 58, 54, 58, 53, 54, 50, 160, 48, 158, 46, 44, 165, 67, 45, 842, 779, 852, 853, 809, 848, 850, 786, 849, 876, 893, 911, 911, 933, 750, 750, 933, 719, 749, 750, 698, 698, 643, 660, 683, 653, 666, 683, 261, 240, 261, 666, 730, 683, 666, 261, 261, 262, 221, 262, 220, 221, 220, 225, 164, 164, 170, 163, 98, 167, 61, 59, 33, 39, 59, 56, 33, 152, 208, 243, 67, 208, 152, 56, 55, 30, 55, 27, 30, 55, 23, 27, 45, 67, 43, 54, 20, 23, 54, 53, 20, 53, 17, 20, 53, 52, 17, 52, 19, 17, 52, 51, 19, 51, 49, 19, 49, 50, 0, 49, 0, 25, 0, 50, 36, 50, 48, 36, 48, 37, 36, 37, 48, 35, 48, 47, 35, 35, 44, 31, 47, 44, 35, 44, 40, 31, 44, 46, 40, 40, 45, 26, 46, 45, 40, 858, 856, 860, 921, 750, 922, 921, 912, 750, 922, 750, 749, 699, 749, 698, 699, 660, 661, 699, 698, 660, 661, 644, 657, 661, 660, 644, 657, 644, 653, 687, 653, 683, 687, 683, 240, 240, 261, 222, 222, 261, 221, 220, 154, 221, 154, 220, 164, 154, 164, 95, 164, 88, 95, 164, 163, 88, 163, 98, 88, 98, 60, 88, 98, 61, 60, 61, 41, 60, 61, 59, 41, 41, 59, 39, 33, 56, 30, 43, 67, 152, 49, 25, 19, 35, 31, 11, 31, 40, 15, 40, 26, 15, 45, 43, 26, 923, 749, 699, 923, 922, 749, 684, 728, 661, 728, 699, 661, 684, 661, 657, 663, 657, 653, 663, 653, 686, 686, 653, 687, 686, 687, 223, 223, 687, 240, 223, 240, 155, 240, 222, 155, 222, 154, 155, 222, 221, 154, 0, 36, 4, 36, 37, 4, 4, 37, 5, 37, 35, 5, 35, 7, 5, 35, 10, 7, 35, 11, 10, 11, 31, 14, 31, 15, 14, 936, 923, 728, 702, 936, 684, 702, 663, 703, 702, 684, 663, 703, 663, 263, 703, 263, 139, 663, 686, 263, 263, 153, 139, 263, 686, 223, 263, 223, 153, 153, 223, 149, 223, 155, 149, 155, 100, 149, 155, 154, 100, 154, 95, 100, 95, 88, 89, 60, 41, 42, 41, 39, 38, 39, 33, 38, 33, 34, 38, 152, 243, 173, 30, 29, 33, 30, 27, 29, 43, 152, 87, 27, 23, 22, 22, 23, 20, 26, 43, 32, 32, 43, 87, 778, 780, 779, 768, 769, 777, 793, 795, 789, 793, 794, 795, 795, 796, 797, 805, 785, 804, 726, 702, 703, 726, 703, 232, 232, 139, 147, 232, 703, 139, 139, 153, 121, 153, 102, 121, 153, 149, 102, 149, 100, 102, 100, 101, 102, 100, 95, 101, 95, 99, 101, 95, 89, 99, 88, 66, 89, 88, 60, 66, 60, 42, 66, 41, 38, 42, 34, 33, 29, 152, 173, 87, 29, 27, 28, 27, 22, 28, 26, 32, 16, 22, 20, 21, 20, 18, 21, 20, 17, 18, 17, 19, 18, 19, 24, 18, 19, 25, 24, 25, 1, 24, 25, 0, 1, 0, 2, 1, 2, 0, 3, 0, 4, 3, 4, 5, 3, 5, 6, 3, 5, 7, 6, 6, 7, 8, 8, 7, 9, 7, 10, 9, 10, 11, 9, 9, 11, 12, 11, 13, 12, 11, 14, 13, 14, 15, 13, 15, 16, 13, 15, 26, 16, 421, 232, 147, 726, 232, 421, 147, 139, 140, 139, 115, 140, 139, 121, 115, 121, 102, 115, 102, 114, 115, 102, 101, 114, 87, 173, 150, 147, 181, 421, 147, 140, 181, 140, 115, 181, 115, 114, 123, 114, 101, 116, 116, 101, 117, 101, 99, 117, 117, 99, 109, 99, 89, 109, 109, 89, 93, 89, 66, 93, 66, 42, 91, 91, 42, 84, 42, 83, 84, 42, 38, 83, 38, 34, 83, 29, 86, 34, 87, 150, 92, 499, 530, 420, 1001, 530, 499, 181, 180, 409, 123, 145, 180, 123, 116, 145, 145, 116, 141, 141, 116, 117, 93, 66, 91, 83, 34, 85, 150, 173, 233, 34, 86, 85, 86, 28, 73, 28, 22, 73, 72, 18, 70, 69, 16, 81, 16, 32, 81, 32, 82, 81, 32, 92, 82, 32, 87, 92, 24, 1, 71, 2, 3, 75, 3, 76, 75, 3, 6, 76, 6, 77, 76, 77, 6, 78, 6, 8, 78, 8, 9, 78, 78, 9, 79, 9, 12, 79, 79, 12, 80, 68, 16, 69, 13, 16, 68, 180, 266, 435, 266, 145, 466, 180, 145, 266, 145, 141, 185, 141, 117, 146, 117, 109, 146, 70, 24, 71, 428, 388, 419, 185, 141, 186, 141, 146, 186, 146, 109, 148, 122, 91, 84, 84, 83, 118, 92, 150, 133, 73, 72, 94, 72, 97, 94, 72, 70, 97, 70, 96, 97, 70, 71, 96, 71, 74, 96, 80, 90, 79, 80, 68, 90, 90, 68, 81, 68, 69, 81, 81, 82, 103, 82, 92, 103, 821, 823, 978, 186, 146, 199, 93, 122, 142, 93, 91, 122, 122, 84, 124, 124, 84, 118, 83, 85, 118, 118, 85, 119, 85, 86, 119, 150, 203, 133, 150, 233, 203, 103, 92, 133, 94, 97, 112, 97, 111, 113, 97, 96, 111, 96, 74, 111, 74, 75, 110, 75, 76, 108, 76, 77, 108, 77, 107, 108, 77, 78, 107, 78, 106, 107, 78, 79, 106, 79, 90, 106, 90, 104, 106, 90, 81, 104, 81, 105, 104, 81, 103, 105, 265, 199, 462, 199, 148, 191, 148, 142, 144, 122, 124, 144, 233, 270, 203, 120, 73, 125, 73, 94, 125, 125, 94, 126, 94, 112, 126, 103, 134, 105, 103, 133, 134, 496, 422, 495, 462, 199, 454, 199, 191, 509, 191, 190, 234, 191, 144, 190, 190, 144, 124, 124, 118, 151, 151, 118, 137, 118, 119, 137, 137, 120, 138, 119, 120, 137, 120, 125, 138, 134, 133, 177, 133, 203, 177, 112, 130, 126, 112, 113, 130, 113, 111, 130, 130, 111, 127, 111, 128, 127, 111, 129, 128, 111, 110, 129, 110, 131, 129, 110, 108, 131, 108, 132, 131, 108, 107, 132, 107, 106, 132, 106, 136, 132, 106, 104, 136, 136, 104, 135, 104, 105, 135, 105, 143, 135, 105, 134, 143, 978, 980, 979, 190, 124, 204, 124, 151, 204, 137, 187, 151, 177, 203, 237, 138, 125, 179, 125, 126, 179, 179, 126, 178, 126, 130, 178, 130, 182, 178, 130, 127, 182, 127, 128, 182, 131, 132, 183, 136, 135, 175, 135, 143, 174, 143, 134, 177, 509, 234, 464, 234, 204, 268, 234, 190, 204, 204, 151, 202, 187, 138, 205, 137, 138, 187, 205, 138, 179, 182, 128, 189, 128, 129, 189, 189, 129, 188, 129, 184, 188, 129, 183, 184, 129, 131, 183, 183, 132, 176, 132, 136, 176, 136, 175, 176, 175, 135, 174, 234, 268, 464, 204, 202, 250, 202, 187, 207, 187, 205, 207, 205, 179, 206, 179, 178, 206, 206, 178, 200, 178, 182, 200, 200, 182, 201, 201, 182, 189, 184, 183, 198, 198, 183, 197, 197, 183, 196, 183, 176, 196, 176, 195, 196, 176, 194, 195, 194, 175, 193, 175, 174, 193, 174, 192, 193, 174, 143, 192, 143, 177, 192, 464, 433, 413, 204, 250, 465, 250, 207, 518, 202, 207, 250, 518, 207, 205, 200, 244, 206, 244, 200, 201, 201, 189, 472, 472, 189, 235, 196, 195, 516, 194, 193, 522, 460, 518, 459, 459, 518, 458, 518, 476, 458, 476, 206, 475, 206, 244, 475, 244, 474, 475, 235, 478, 477, 478, 198, 517, 193, 512, 522, 193, 519, 512, 341, 346, 344, 476, 475, 457, 516, 515, 447, 523, 526, 437, 407, 459, 434, 455, 520, 461, 451, 452, 416, 474, 450, 456, 450, 472, 449, 445, 512, 444, 287, 313, 286, 314, 313, 287, 461, 437, 368, 407, 404, 362, 399, 449, 397, 448, 394, 418, 411, 444, 410, 410, 443, 412, 392, 368, 359, 376, 392, 359, 398, 399, 358, 399, 397, 355, 397, 391, 350, 394, 378, 374, 394, 395, 378, 357, 324, 322, 325, 358, 326, 347, 370, 354, 354, 353, 334, 353, 352, 334, 359, 337, 351, 555, 593, 592, 593, 555, 594, 602, 554, 596, 548, 597, 596, 548, 559, 597, 597, 559, 598, 598, 559, 599, 599, 581, 600, 600, 582, 601, 601, 582, 603, 604, 586, 605, 605, 574, 606, 553, 551, 555, 544, 546, 545, 546, 547, 548, 576, 613, 575, 613, 746, 718, 695, 681, 621, 918, 920, 713, 713, 935, 714, 926, 708, 707, 711, 712, 590, 614, 764, 746, 588, 587, 584, 758, 695, 718, 925, 926, 707, 913, 723, 724, 914, 723, 913, 766, 763, 715, 587, 717, 583, 764, 1042, 746, 746, 1079, 762, 1042, 1079, 746, 1079, 1078, 762, 1078, 758, 762, 1078, 761, 758, 930, 906, 924, 906, 907, 924, 907, 913, 924, 900, 914, 913, 894, 920, 918, 920, 894, 919, 929, 905, 927, 905, 902, 927, 902, 925, 927, 767, 763, 766, 767, 764, 763, 697, 685, 611, 611, 685, 587, 1040, 1042, 764, 1042, 1070, 1079, 1070, 1068, 1079, 1068, 1078, 1079, 1068, 1061, 1078, 1078, 1081, 761, 1081, 765, 761, 765, 759, 761, 765, 272, 759, 906, 890, 907, 898, 896, 915, 896, 916, 915, 896, 917, 916, 896, 897, 917, 895, 904, 919, 889, 766, 926, 727, 909, 717, 767, 1040, 764, 638, 697, 611, 1040, 1070, 1042, 1070, 1056, 1068, 1056, 1061, 1068, 1061, 1065, 1078, 1065, 1081, 1078, 252, 224, 260, 890, 881, 901, 901, 881, 900, 881, 880, 900, 880, 899, 900, 880, 879, 899, 879, 898, 899, 879, 882, 898, 882, 896, 898, 882, 883, 896, 896, 883, 897, 897, 883, 894, 883, 884, 894, 884, 895, 894, 884, 885, 895, 895, 885, 904, 904, 885, 886, 886, 887, 905, 887, 902, 905, 887, 888, 902, 888, 889, 902, 873, 892, 908, 909, 873, 908, 903, 767, 766, 751, 910, 727, 1037, 1039, 767, 1039, 1040, 767, 700, 720, 697, 1040, 1048, 1070, 1067, 1048, 1040, 1048, 1056, 1070, 1056, 1049, 1061, 1049, 1065, 1061, 1081, 1080, 765, 1080, 272, 765, 859, 880, 881, 865, 879, 880, 879, 866, 882, 883, 869, 884, 884, 870, 885, 870, 864, 885, 864, 887, 886, 887, 863, 888, 863, 862, 888, 873, 871, 892, 871, 878, 892, 878, 875, 890, 889, 874, 903, 910, 877, 909, 903, 1037, 767, 1032, 1037, 903, 931, 891, 751, 1039, 1067, 1040, 932, 931, 720, 721, 720, 700, 1065, 1080, 1081, 1080, 264, 272, 871, 855, 878, 878, 855, 875, 859, 865, 880, 865, 866, 879, 866, 867, 882, 882, 867, 883, 867, 868, 883, 868, 869, 883, 869, 870, 884, 885, 864, 886, 864, 863, 887, 862, 857, 888, 888, 857, 889, 873, 850, 871, 874, 1032, 903, 891, 877, 910, 1037, 1038, 1039, 893, 891, 931, 1051, 1048, 1067, 1048, 1049, 1056, 1049, 1052, 1065, 855, 852, 859, 852, 853, 859, 853, 848, 859, 859, 848, 865, 865, 848, 866, 848, 867, 866, 848, 844, 867, 867, 844, 868, 844, 846, 868, 868, 846, 869, 846, 845, 869, 869, 845, 870, 845, 854, 870, 854, 864, 870, 854, 841, 864, 841, 839, 864, 864, 839, 863, 839, 840, 863, 840, 838, 863, 838, 862, 863, 838, 857, 862, 850, 849, 871, 871, 849, 855, 857, 851, 874, 856, 847, 873, 873, 847, 850, 1031, 1032, 874, 1032, 1034, 1037, 1034, 1038, 1037, 1038, 1051, 1039, 932, 893, 931, 911, 893, 932, 1051, 1067, 1039, 1052, 1069, 1065, 1065, 1069, 1080, 1069, 1082, 1080, 1082, 264, 1080, 837, 835, 845, 845, 835, 854, 835, 841, 854, 849, 842, 855, 842, 852, 855, 838, 843, 857, 843, 851, 857, 851, 1031, 874, 1031, 1030, 1032, 860, 856, 877, 1030, 1034, 1032, 876, 860, 893, 1082, 243, 264, 779, 809, 852, 852, 809, 853, 809, 776, 848, 848, 776, 844, 776, 836, 844, 836, 846, 844, 846, 836, 845, 836, 837, 845, 835, 803, 841, 803, 800, 841, 800, 839, 841, 800, 840, 839, 800, 801, 840, 840, 801, 838, 801, 802, 838, 802, 843, 838, 786, 784, 849, 849, 784, 842, 847, 804, 850, 806, 804, 847, 804, 786, 850, 856, 807, 847, 872, 861, 860, 876, 872, 860, 1034, 1051, 1038, 1062, 1051, 1034, 912, 876, 911, 912, 911, 750, 1047, 1049, 1048, 784, 781, 842, 842, 781, 779, 779, 777, 809, 809, 777, 776, 774, 836, 776, 774, 772, 836, 836, 772, 837, 772, 773, 837, 837, 773, 835, 773, 791, 835, 791, 803, 835, 803, 788, 800, 802, 851, 843, 802, 830, 851, 807, 806, 847, 851, 830, 1031, 830, 1030, 1031, 858, 807, 856, 861, 858, 860, 1030, 1033, 1034, 1033, 1062, 1034, 1018, 872, 876, 912, 1018, 876, 1052, 1071, 1069, 1069, 1071, 1082, 1071, 243, 1082, 769, 776, 777, 776, 769, 774, 791, 788, 803, 789, 800, 788, 789, 795, 800, 795, 801, 800, 795, 797, 801, 797, 802, 801, 797, 830, 802, 872, 1017, 861, 1018, 1017, 872, 1019, 1018, 912, 1020, 1019, 912, 921, 1020, 912, 923, 921, 922, 728, 923, 699, 936, 728, 684, 663, 684, 657, 770, 774, 769, 770, 775, 774, 774, 771, 772, 771, 773, 772, 787, 791, 773, 788, 790, 789, 783, 781, 784, 783, 782, 781, 781, 778, 779, 780, 777, 779, 780, 768, 777, 791, 790, 788, 797, 825, 830, 804, 785, 786, 785, 784, 786, 807, 805, 806, 808, 805, 807, 806, 805, 804, 830, 1029, 1030, 829, 807, 858, 1029, 1033, 1030, 1035, 1062, 1033, 921, 1008, 1020, 923, 1008, 921, 1021, 1008, 923, 936, 1021, 923, 937, 936, 702, 1052, 1059, 1071, 1071, 173, 243, 768, 770, 769, 775, 771, 774, 771, 787, 773, 787, 792, 791, 791, 792, 790, 793, 789, 790, 794, 796, 795, 785, 783, 784, 782, 778, 781, 796, 798, 797, 798, 825, 797, 825, 1027, 830, 829, 808, 807, 1027, 1029, 830, 1012, 829, 858, 1029, 1035, 1033, 861, 1012, 858, 1017, 1012, 861, 1011, 1012, 1017, 1018, 1011, 1017, 1062, 1050, 1051, 1009, 1011, 1018, 1006, 1009, 1019, 1019, 1009, 1018, 1020, 1006, 1019, 1008, 1006, 1020, 1002, 1008, 1021, 1050, 1047, 1048, 937, 1002, 936, 936, 1002, 1021, 726, 937, 702, 1053, 1059, 1052, 1059, 1077, 1071, 1077, 173, 1071, 799, 790, 792, 799, 793, 790, 1035, 1064, 1062, 1064, 1050, 1062, 1003, 1006, 1008, 1003, 1008, 1002, 1001, 1002, 937, 1001, 1003, 1002, 421, 937, 726, 421, 1001, 937, 1049, 1053, 1052, 780, 819, 768, 819, 770, 768, 770, 815, 775, 815, 771, 775, 821, 783, 785, 821, 822, 783, 823, 785, 805, 1015, 808, 829, 1015, 1016, 808, 1016, 824, 808, 824, 805, 808, 1027, 1028, 1029, 1029, 1036, 1035, 1015, 829, 1012, 1010, 1012, 1011, 1010, 1011, 1009, 1007, 1009, 1006, 1007, 1010, 1009, 1005, 1007, 1006, 1050, 1048, 1051, 1005, 1006, 1003, 998, 1005, 1003, 1004, 998, 1003, 1000, 1004, 1001, 1004, 1003, 1001, 530, 1001, 421, 815, 816, 771, 816, 787, 771, 822, 818, 783, 818, 782, 783, 782, 818, 778, 818, 817, 778, 817, 780, 778, 817, 819, 780, 819, 820, 770, 770, 820, 815, 816, 814, 787, 787, 814, 792, 814, 799, 792, 814, 813, 799, 813, 810, 799, 810, 793, 799, 793, 810, 794, 810, 811, 794, 794, 811, 796, 796, 812, 798, 811, 812, 796, 823, 821, 785, 831, 825, 798, 812, 831, 798, 825, 943, 1027, 831, 943, 825, 824, 823, 805, 943, 1028, 1027, 1028, 1036, 1029, 1014, 1015, 1012, 1013, 1012, 1010, 1013, 1014, 1012, 1036, 1064, 1035, 999, 998, 1004, 1000, 999, 1004, 499, 1000, 1001, 421, 420, 530, 421, 409, 420, 181, 409, 421, 115, 180, 181, 115, 123, 180, 114, 116, 123, 1059, 1076, 1077, 1077, 233, 173, 1076, 233, 1077, 29, 28, 86, 22, 72, 73, 22, 21, 72, 21, 18, 72, 18, 24, 70, 1, 2, 74, 12, 13, 80, 80, 13, 68, 826, 815, 820, 826, 827, 815, 827, 816, 815, 827, 828, 816, 816, 828, 814, 828, 813, 814, 1014, 1022, 1015, 996, 1010, 1007, 996, 1013, 1010, 996, 1007, 1005, 997, 996, 1005, 997, 1005, 998, 503, 998, 999, 503, 997, 998, 499, 503, 999, 1000, 499, 999, 420, 427, 499, 403, 427, 420, 420, 409, 403, 409, 408, 403, 409, 435, 408, 180, 435, 409, 1047, 1054, 1049, 1054, 1053, 1049, 1053, 1076, 1059, 71, 1, 74, 2, 75, 74, 822, 1025, 818, 1025, 817, 818, 1025, 1026, 817, 1026, 819, 817, 828, 834, 813, 813, 834, 810, 834, 833, 810, 810, 833, 811, 833, 832, 811, 832, 812, 811, 942, 943, 831, 1016, 981, 824, 1023, 1016, 1015, 943, 982, 1028, 1013, 1024, 1014, 1036, 1041, 1064, 994, 1024, 1013, 994, 1013, 996, 995, 994, 996, 997, 995, 996, 499, 428, 503, 427, 428, 499, 427, 388, 428, 403, 388, 427, 408, 387, 403, 387, 388, 403, 435, 387, 408, 435, 415, 387, 435, 266, 415, 266, 466, 415, 145, 265, 466, 145, 185, 265, 957, 1026, 1025, 1026, 958, 819, 958, 956, 819, 956, 820, 819, 820, 956, 826, 956, 954, 826, 954, 952, 826, 952, 951, 826, 826, 951, 827, 951, 948, 827, 948, 828, 827, 948, 939, 828, 939, 834, 828, 832, 938, 812, 938, 831, 812, 938, 942, 831, 981, 978, 824, 978, 823, 824, 942, 945, 943, 1023, 981, 1016, 945, 982, 943, 1022, 1023, 1015, 982, 1036, 1028, 982, 1041, 1036, 1024, 1022, 1014, 1041, 1058, 1064, 994, 992, 1024, 1064, 1058, 1050, 993, 992, 994, 995, 540, 994, 496, 995, 997, 503, 496, 997, 426, 496, 503, 428, 426, 503, 428, 419, 426, 387, 386, 388, 415, 386, 387, 466, 432, 415, 466, 265, 432, 185, 186, 265, 109, 142, 148, 109, 93, 142, 1053, 1074, 1076, 1076, 270, 233, 1074, 270, 1076, 974, 1025, 822, 974, 957, 1025, 957, 958, 1026, 939, 833, 834, 939, 940, 833, 940, 832, 833, 940, 941, 832, 941, 938, 832, 978, 976, 821, 976, 974, 821, 821, 974, 822, 1024, 990, 1022, 1022, 990, 1023, 540, 993, 994, 1058, 1047, 1050, 496, 540, 995, 419, 384, 426, 426, 384, 422, 388, 384, 419, 386, 384, 388, 415, 390, 386, 432, 390, 415, 432, 425, 390, 432, 265, 425, 265, 462, 425, 186, 199, 265, 1054, 1063, 1053, 146, 148, 199, 122, 144, 142, 86, 120, 119, 86, 73, 120, 97, 113, 112, 111, 74, 110, 75, 108, 110, 957, 959, 958, 959, 955, 958, 958, 955, 956, 955, 954, 956, 955, 953, 954, 953, 952, 954, 953, 950, 952, 950, 951, 952, 951, 950, 948, 950, 949, 948, 949, 947, 948, 947, 939, 948, 947, 946, 939, 946, 944, 939, 944, 940, 939, 944, 941, 940, 938, 960, 942, 960, 945, 942, 990, 980, 1023, 980, 981, 1023, 992, 990, 1024, 991, 990, 992, 993, 991, 992, 502, 524, 993, 540, 502, 993, 496, 502, 540, 495, 502, 496, 426, 422, 496, 148, 144, 191, 1063, 1074, 1053, 270, 237, 203, 975, 974, 976, 975, 973, 974, 973, 957, 974, 973, 967, 957, 967, 959, 957, 967, 966, 959, 959, 966, 955, 968, 953, 955, 968, 971, 953, 971, 970, 953, 953, 970, 950, 970, 969, 950, 969, 964, 950, 950, 964, 949, 964, 947, 949, 964, 965, 947, 965, 946, 947, 946, 963, 944, 944, 961, 941, 941, 961, 938, 961, 962, 938, 962, 960, 938, 979, 977, 978, 977, 976, 978, 977, 975, 976, 960, 986, 945, 981, 980, 978, 986, 982, 945, 986, 1043, 982, 1043, 1041, 982, 1043, 1044, 1041, 1044, 1058, 1041, 993, 524, 991, 1058, 1057, 1047, 430, 502, 495, 422, 430, 495, 384, 383, 422, 1055, 1054, 1047, 386, 372, 384, 390, 372, 386, 390, 389, 372, 425, 389, 390, 462, 389, 425, 462, 454, 389, 199, 509, 454, 191, 234, 509, 1054, 1075, 1063, 1075, 1074, 1063, 1075, 1083, 1074, 1083, 270, 1074, 965, 963, 946, 963, 961, 944, 987, 966, 967, 966, 968, 955, 501, 977, 979, 511, 979, 980, 990, 506, 980, 524, 506, 991, 991, 506, 990, 1044, 1045, 1058, 502, 439, 524, 1058, 1045, 1057, 430, 439, 502, 430, 429, 439, 422, 383, 430, 1057, 1055, 1047, 372, 371, 383, 384, 372, 383, 389, 382, 372, 454, 414, 389, 1060, 1054, 1055, 454, 440, 414, 454, 509, 440, 237, 270, 1083, 271, 237, 1083, 151, 187, 202, 271, 177, 237, 971, 972, 970, 970, 972, 969, 969, 972, 964, 972, 984, 964, 984, 965, 964, 984, 985, 965, 985, 963, 965, 985, 983, 963, 983, 961, 963, 983, 533, 961, 533, 534, 961, 961, 534, 962, 501, 975, 977, 501, 507, 975, 507, 538, 975, 534, 960, 962, 541, 986, 960, 511, 504, 979, 504, 501, 979, 506, 511, 980, 439, 506, 524, 371, 429, 430, 383, 371, 430, 382, 367, 372, 389, 414, 382, 509, 464, 440, 1060, 1072, 1054, 1072, 1075, 1054, 543, 1083, 1075, 188, 184, 198, 176, 175, 194, 538, 973, 975, 538, 508, 973, 973, 508, 967, 967, 508, 987, 508, 989, 987, 989, 988, 987, 988, 966, 987, 966, 988, 968, 988, 971, 968, 971, 988, 527, 527, 528, 971, 971, 528, 972, 528, 531, 972, 531, 537, 972, 537, 535, 972, 972, 535, 984, 535, 536, 984, 536, 985, 984, 536, 532, 985, 532, 983, 985, 532, 533, 983, 541, 960, 534, 534, 491, 541, 541, 539, 986, 539, 1043, 986, 467, 504, 511, 431, 467, 506, 506, 467, 511, 1043, 542, 1044, 439, 431, 506, 542, 1045, 1044, 429, 342, 439, 1045, 1046, 1057, 371, 367, 345, 1057, 1066, 1055, 372, 367, 371, 1066, 1060, 1055, 414, 413, 382, 440, 413, 414, 464, 413, 440, 464, 268, 433, 1072, 543, 1075, 204, 465, 268, 271, 1083, 543, 520, 271, 543, 267, 192, 177, 177, 271, 267, 189, 188, 235, 188, 198, 235, 538, 505, 508, 508, 498, 989, 989, 498, 988, 498, 527, 988, 531, 482, 537, 482, 535, 537, 483, 536, 535, 485, 529, 536, 529, 532, 536, 487, 488, 532, 532, 488, 533, 488, 489, 533, 533, 490, 534, 442, 507, 501, 507, 505, 538, 507, 492, 505, 491, 539, 541, 467, 436, 504, 542, 1043, 539, 539, 497, 542, 542, 500, 1045, 342, 431, 439, 342, 318, 431, 500, 1046, 1045, 429, 345, 342, 345, 341, 342, 371, 345, 429, 367, 346, 345, 345, 346, 341, 1046, 1066, 1057, 1046, 1073, 1066, 382, 346, 367, 382, 373, 346, 1066, 1073, 1060, 413, 373, 382, 1073, 1072, 1060, 523, 543, 1072, 268, 465, 433, 465, 250, 463, 518, 205, 476, 455, 519, 267, 267, 271, 520, 205, 206, 476, 474, 244, 473, 244, 201, 473, 201, 472, 473, 472, 235, 477, 478, 235, 198, 198, 197, 517, 197, 516, 517, 197, 196, 516, 195, 515, 516, 515, 195, 514, 195, 194, 514, 194, 522, 514, 193, 192, 519, 519, 192, 267, 492, 493, 505, 505, 493, 508, 493, 494, 508, 494, 498, 508, 494, 470, 498, 470, 471, 498, 498, 471, 527, 471, 481, 527, 481, 528, 527, 481, 480, 528, 480, 531, 528, 531, 480, 482, 483, 535, 482, 483, 485, 536, 485, 486, 529, 529, 486, 487, 529, 487, 532, 489, 490, 533, 490, 491, 534, 504, 436, 501, 436, 442, 501, 442, 492, 507, 491, 497, 539, 315, 436, 467, 431, 318, 467, 318, 315, 467, 497, 500, 542, 341, 318, 342, 500, 510, 1046, 1046, 510, 1073, 373, 344, 346, 373, 365, 344, 1073, 526, 1072, 413, 365, 373, 526, 523, 1072, 413, 405, 365, 433, 405, 413, 465, 405, 433, 465, 406, 405, 461, 520, 523, 463, 406, 465, 523, 520, 543, 250, 518, 463, 518, 460, 463, 455, 267, 521, 267, 520, 521, 522, 513, 514, 522, 512, 513, 492, 468, 493, 493, 469, 494, 481, 479, 480, 480, 295, 482, 484, 485, 483, 305, 491, 490, 282, 468, 492, 468, 296, 469, 469, 493, 468, 469, 470, 494, 470, 285, 471, 285, 294, 471, 294, 481, 471, 294, 479, 481, 305, 441, 491, 441, 497, 491, 314, 287, 436, 287, 442, 436, 287, 282, 442, 340, 497, 441, 315, 314, 436, 316, 315, 318, 341, 316, 318, 344, 316, 341, 344, 339, 316, 525, 1073, 510, 365, 339, 344, 365, 364, 339, 525, 526, 1073, 365, 405, 364, 437, 461, 523, 405, 361, 364, 405, 406, 361, 463, 407, 406, 463, 460, 407, 460, 459, 407, 521, 520, 455, 451, 478, 452, 458, 476, 457, 475, 474, 457, 457, 474, 456, 474, 473, 450, 473, 472, 450, 472, 477, 449, 449, 477, 451, 477, 478, 451, 478, 517, 452, 452, 517, 453, 453, 517, 448, 517, 516, 448, 516, 447, 448, 515, 446, 447, 515, 514, 446, 514, 513, 446, 446, 513, 445, 513, 512, 445, 512, 519, 444, 444, 519, 443, 519, 455, 443, 479, 295, 480, 295, 292, 482, 482, 292, 483, 483, 292, 484, 293, 485, 484, 293, 486, 485, 486, 297, 487, 297, 488, 487, 297, 300, 488, 488, 300, 489, 300, 490, 489, 300, 305, 490, 442, 282, 492, 282, 296, 468, 469, 296, 470, 296, 285, 470, 294, 295, 479, 292, 293, 484, 293, 297, 486, 299, 300, 297, 305, 340, 441, 340, 424, 497, 424, 500, 497, 315, 313, 314, 316, 313, 315, 424, 510, 500, 339, 338, 316, 316, 338, 313, 438, 525, 510, 424, 438, 510, 364, 361, 339, 339, 361, 338, 437, 525, 438, 361, 362, 338, 437, 526, 525, 406, 407, 361, 407, 362, 361, 368, 392, 461, 407, 434, 404, 434, 400, 404, 412, 455, 392, 455, 461, 392, 459, 400, 434, 459, 458, 400, 458, 457, 400, 400, 457, 402, 457, 456, 402, 456, 450, 402, 450, 398, 402, 450, 449, 398, 398, 449, 399, 451, 416, 397, 452, 417, 416, 453, 418, 417, 453, 448, 418, 448, 447, 394, 447, 423, 394, 447, 446, 423, 446, 411, 423, 446, 445, 411, 445, 444, 411, 444, 443, 410, 443, 455, 412, 449, 451, 397, 452, 453, 417, 282, 280, 296, 280, 278, 296, 278, 285, 296, 285, 284, 294, 284, 295, 294, 284, 288, 295, 295, 288, 292, 288, 289, 292, 289, 291, 292, 292, 291, 293, 293, 291, 297, 291, 298, 297, 298, 299, 297, 299, 301, 300, 301, 305, 300, 281, 280, 282, 280, 279, 278, 278, 274, 285, 285, 274, 284, 276, 288, 284, 301, 304, 305, 304, 340, 305, 287, 286, 282, 286, 283, 282, 283, 281, 282, 304, 319, 340, 319, 424, 340, 313, 321, 286, 321, 320, 286, 319, 343, 424, 343, 438, 424, 313, 338, 321, 343, 437, 438, 362, 321, 338, 362, 363, 321, 363, 320, 321, 368, 437, 343, 320, 363, 360, 362, 404, 363, 404, 360, 363, 404, 400, 360, 400, 356, 360, 400, 401, 356, 401, 402, 357, 402, 396, 357, 402, 398, 396, 391, 393, 380, 380, 393, 381, 381, 393, 379, 379, 393, 374, 393, 394, 374, 395, 385, 378, 395, 411, 385, 411, 410, 385, 385, 410, 375, 410, 412, 375, 412, 376, 375, 376, 412, 392, 400, 402, 401, 416, 391, 397, 416, 417, 391, 391, 417, 393, 417, 418, 393, 393, 418, 394, 423, 395, 394, 423, 411, 395, 281, 279, 280, 279, 277, 278, 277, 274, 278, 274, 276, 284, 276, 289, 288, 276, 290, 289, 289, 290, 291, 290, 306, 291, 306, 298, 291, 302, 299, 298, 302, 301, 299, 302, 303, 301, 303, 304, 301, 277, 273, 274, 273, 275, 274, 275, 276, 274, 275, 307, 276, 307, 290, 276, 307, 308, 290, 308, 306, 290, 306, 309, 298, 298, 309, 302, 302, 311, 303, 311, 310, 303, 310, 304, 303, 310, 319, 304, 275, 323, 307, 317, 306, 308, 317, 309, 306, 312, 302, 309, 312, 311, 302, 320, 283, 286, 283, 322, 281, 281, 322, 279, 322, 324, 279, 324, 277, 279, 277, 324, 273, 324, 325, 273, 273, 325, 275, 325, 326, 275, 326, 327, 275, 327, 323, 275, 323, 329, 307, 329, 330, 307, 307, 330, 308, 330, 333, 308, 333, 331, 308, 331, 317, 308, 317, 334, 309, 311, 337, 310, 337, 343, 310, 343, 319, 310, 320, 322, 283, 360, 322, 320, 337, 359, 343, 360, 356, 322, 356, 357, 322, 357, 358, 324, 324, 358, 325, 358, 355, 326, 355, 327, 326, 355, 328, 327, 355, 350, 328, 350, 329, 328, 350, 349, 329, 348, 347, 333, 359, 368, 343, 366, 349, 350, 366, 348, 349, 348, 369, 347, 369, 370, 347, 396, 358, 357, 366, 380, 348, 380, 381, 348, 381, 379, 348, 379, 369, 348, 369, 374, 370, 370, 374, 354, 374, 353, 354, 374, 378, 353, 378, 352, 353, 378, 377, 352, 377, 351, 352, 377, 375, 351, 375, 359, 351, 375, 376, 359, 401, 357, 356, 398, 358, 396, 358, 399, 355, 355, 397, 350, 391, 366, 350, 391, 380, 366, 379, 374, 369, 378, 385, 377, 385, 375, 377, 335, 311, 312, 335, 336, 311, 327, 328, 323, 323, 328, 329, 331, 332, 317, 317, 332, 334, 309, 334, 312, 334, 335, 312, 336, 337, 311, 329, 349, 330, 349, 348, 330, 348, 333, 330, 333, 347, 331, 347, 354, 331, 331, 354, 332, 354, 334, 332, 352, 335, 334, 351, 337, 336, 352, 351, 335, 335, 351, 336]
    point3f[] points = [(-0.006585, 0.001301, 0.045737), (-0.006725, -0.000038, 0.049957), (-0.006715, -0.000060, 0.045745), (-0.006744, -0.000076, 0.042156), (-0.006648, 0.001004, 0.039830), (-0.006655, 0.000987, 0.034057), (-0.006746, -0.000090, 0.032950), (-0.006653, 0.000975, 0.026861), (-0.006739, -0.000100, 0.027298), (-0.006745, -0.000106, 0.022133), (-0.006662, 0.000959, 0.022033), (-0.006619, 0.001065, 0.018241), (-0.006703, -0.000069, 0.017552), (-0.006694, 0.000002, 0.011571), (-0.006617, 0.001022, 0.013101), (-0.006643, 0.001093, 0.005142), (-0.006727, 0.000004, 0.004828), (-0.006576, 0.001399, 0.061560), (-0.006729, -0.000026, 0.063474), (-0.006571, 0.001369, 0.057743), (-0.006567, 0.001387, 0.070979), (-0.006716, 0.000010, 0.073065), (-0.006695, -0.000008, 0.076968), (-0.006547, 0.001406, 0.076851), (-0.006718, -0.000027, 0.058375), (-0.006574, 0.001389, 0.049103), (-0.006576, 0.001264, 0.003986), (-0.006461, 0.001405, 0.078916), (-0.006631, -0.000040, 0.078762), (-0.006493, 0.000023, 0.081087), (-0.006348, 0.001400, 0.081180), (-0.006554, 0.001367, 0.011340), (-0.006609, 0.000061, 0.003378), (-0.006137, 0.001351, 0.083394), (-0.006191, 0.000011, 0.084250), (-0.006539, 0.001476, 0.023341), (-0.006565, 0.001406, 0.040613), (-0.006544, 0.001450, 0.033901), (-0.006046, 0.000037, 0.085559), (-0.005906, 0.001309, 0.085594), (-0.006494, 0.001706, 0.005625), (-0.005683, 0.001265, 0.087089), (-0.005734, 0.000018, 0.087519), (-0.006398, 0.001322, 0.002935), (-0.006269, 0.002325, 0.013041), (-0.006281, 0.002297, 0.004153), (-0.006292, 0.002369, 0.005843), (-0.006256, 0.002347, 0.020446), (-0.006244, 0.002361, 0.032659), (-0.006239, 0.002364, 0.049151), (-0.006226, 0.002362, 0.043710), (-0.006199, 0.002414, 0.057496), (-0.006212, 0.002420, 0.060397), (-0.006207, 0.002415, 0.070003), (-0.006241, 0.002261, 0.075767), (-0.006055, 0.002494, 0.079322), (-0.005921, 0.002568, 0.081423), (-0.005823, 0.003102, 0.078656), (-0.005849, 0.003141, 0.075899), (-0.005571, 0.002423, 0.085288), (-0.005365, 0.001110, 0.088743), (-0.005265, 0.002341, 0.087336), (-0.005668, 0.003155, 0.081298), (-0.005925, 0.003058, 0.061580), (-0.005940, 0.002951, 0.056692), (-0.005856, 0.003152, 0.072030), (-0.005351, -0.000019, 0.089258), (-0.005978, 0.002335, 0.002678), (-0.006609, -0.001097, 0.010078), (-0.006640, -0.001044, 0.005269), (-0.006568, -0.001336, 0.061392), (-0.006581, -0.001294, 0.053362), (-0.006548, -0.001348, 0.072515), (-0.006512, -0.001379, 0.077829), (-0.006587, -0.001299, 0.045269), (-0.006616, -0.001260, 0.041754), (-0.006613, -0.001205, 0.036140), (-0.006628, -0.001229, 0.031808), (-0.006624, -0.001216, 0.027869), (-0.006638, -0.001209, 0.021761), (-0.006620, -0.001084, 0.018309), (-0.006592, -0.001276, 0.004516), (-0.006525, -0.001045, 0.003505), (-0.005952, -0.001186, 0.085418), (-0.005667, -0.001192, 0.087299), (-0.006128, -0.001292, 0.083442), (-0.006321, -0.001350, 0.081178), (-0.006398, 0.000061, 0.002548), (-0.004801, 0.001230, 0.090715), (-0.004606, 0.000040, 0.091772), (-0.006479, -0.001633, 0.013941), (-0.005371, -0.001105, 0.088771), (-0.006356, -0.001011, 0.002694), (-0.004901, -0.001175, 0.090443), (-0.006459, -0.001630, 0.075517), (-0.003671, 0.001030, 0.094011), (-0.006491, -0.001608, 0.055800), (-0.006473, -0.001648, 0.064492), (-0.004879, 0.002051, 0.089403), (-0.003683, -0.000011, 0.094337), (-0.002573, 0.000662, 0.097127), (-0.002962, -0.000018, 0.096302), (-0.001936, 0.000255, 0.099026), (-0.006278, -0.001917, 0.003390), (-0.006288, -0.002266, 0.013614), (-0.006290, -0.002320, 0.004585), (-0.006290, -0.002341, 0.021314), (-0.006285, -0.002310, 0.031614), (-0.006243, -0.002377, 0.035028), (-0.004368, -0.001069, 0.092087), (-0.006255, -0.002358, 0.042924), (-0.006216, -0.002344, 0.056708), (-0.006223, -0.002263, 0.070469), (-0.006223, -0.002315, 0.064948), (-0.002129, -0.000145, 0.098535), (-0.001319, -0.000166, 0.100659), (-0.002614, -0.000580, 0.097044), (-0.003379, -0.000859, 0.094834), (-0.005539, -0.002337, 0.085774), (-0.005920, -0.002494, 0.081350), (-0.006005, -0.002557, 0.079322), (-0.001180, 0.000287, 0.100947), (-0.005092, -0.001993, 0.088696), (-0.001724, -0.000534, 0.099412), (-0.005155, -0.002565, 0.087384), (-0.005941, -0.002863, 0.076714), (-0.005947, -0.002905, 0.072378), (-0.005958, -0.002916, 0.058808), (-0.005944, -0.002998, 0.052278), (-0.005959, -0.002979, 0.045211), (-0.005932, -0.002982, 0.064478), (-0.005962, -0.002954, 0.034554), (-0.005942, -0.003044, 0.027462), (-0.005954, -0.002188, 0.002530), (-0.005936, -0.002674, 0.003157), (-0.005955, -0.003068, 0.005764), (-0.005914, -0.003076, 0.014785), (-0.005621, -0.003151, 0.081210), (-0.005706, -0.003194, 0.079197), (-0.000595, 0.000260, 0.102253), (-0.000635, -0.000102, 0.102250), (-0.002708, -0.001036, 0.096457), (-0.004491, -0.002140, 0.090587), (-0.005821, -0.003282, 0.004264), (-0.004605, -0.002497, 0.089668), (-0.001796, -0.000958, 0.098805), (-0.003308, -0.001564, 0.094369), (-0.000222, 0.000033, 0.103118), (-0.003925, -0.002082, 0.092213), (-0.001773, 0.000693, 0.099180), (-0.006062, -0.000940, 0.002027), (-0.005110, -0.003149, 0.085679), (-0.006041, 0.001208, 0.002035), (-0.001165, 0.000617, 0.100717), (-0.003018, 0.001062, 0.095693), (-0.001927, 0.001015, 0.098470), (-0.005854, 0.003215, 0.004364), (-0.005934, 0.003117, 0.006082), (-0.005867, 0.003166, 0.011363), (-0.005927, 0.002978, 0.045754), (-0.005919, 0.002994, 0.036799), (-0.005890, 0.003076, 0.024049), (-0.005868, 0.003143, 0.018030), (-0.004432, 0.002140, 0.090733), (-0.003834, 0.002009, 0.092534), (-0.005857, 0.003106, 0.003785), (-0.005245, 0.002788, 0.086162), (-0.004838, 0.002591, 0.088579), (-0.005131, 0.003406, 0.084474), (-0.005603, 0.003160, 0.002851), (-0.004212, 0.002625, 0.090627), (-0.004865, 0.003252, 0.086750), (-0.005741, 0.003356, 0.067720), (-0.005930, 0.000143, 0.001729), (-0.005665, -0.003561, 0.005578), (-0.005625, -0.003546, 0.014962), (-0.005588, -0.003612, 0.025316), (-0.005400, -0.003524, 0.002860), (-0.005567, -0.003542, 0.069661), (-0.005634, -0.003366, 0.075859), (-0.001112, -0.000813, 0.100480), (-0.000586, -0.000432, 0.101983), (-0.005594, -0.003502, 0.058305), (-0.005580, -0.003565, 0.033437), (-0.005595, -0.003569, 0.043648), (-0.002142, -0.001362, 0.097442), (-0.002668, -0.001805, 0.095595), (-0.005368, -0.003532, 0.081297), (-0.005401, -0.003815, 0.047159), (-0.005217, -0.004076, 0.052429), (-0.004306, -0.002990, 0.089603), (-0.003615, -0.002661, 0.092052), (-0.005146, -0.004266, 0.004283), (-0.005143, -0.004317, 0.005856), (-0.005178, -0.004176, 0.015398), (-0.005147, -0.004230, 0.024614), (-0.005156, -0.004196, 0.029630), (-0.005115, -0.004203, 0.034805), (-0.005140, -0.004200, 0.042759), (-0.002817, -0.002299, 0.094489), (-0.005186, -0.004069, 0.066557), (-0.005054, -0.004237, 0.057254), (-0.004891, -0.003539, 0.085180), (-0.005594, -0.002543, 0.002120), (-0.004397, -0.003709, 0.087177), (-0.004955, -0.004231, 0.078611), (-0.004976, -0.004287, 0.072476), (-0.004707, -0.004372, 0.081081), (-0.005619, 0.002529, 0.002116), (-0.005266, 0.004048, 0.057976), (-0.005245, 0.004060, 0.048713), (-0.005247, 0.004005, 0.042700), (-0.005254, 0.004000, 0.035434), (-0.005612, 0.003497, 0.025184), (-0.005275, 0.004026, 0.020834), (-0.005207, 0.004131, 0.013841), (-0.005212, 0.004161, 0.009366), (-0.005298, 0.004096, 0.005829), (-0.005491, 0.003663, 0.055825), (-0.005239, 0.004076, 0.028437), (-0.002824, 0.002152, 0.094772), (-0.002442, 0.001537, 0.096538), (-0.001939, 0.001538, 0.097688), (-0.001259, 0.001088, 0.099857), (-0.005238, 0.004123, 0.004141), (-0.003621, 0.002432, 0.092458), (-0.005234, 0.004078, 0.062116), (-0.005115, 0.004253, 0.069542), (-0.005189, 0.004078, 0.076035), (-0.005166, 0.003913, 0.080938), (-0.004539, 0.003218, 0.088141), (-0.005170, 0.003691, 0.002578), (-0.000157, 0.000151, 0.103113), (-0.005608, -0.001548, 0.001659), (-0.003672, -0.003366, 0.090547), (-0.004945, -0.004375, 0.047206), (-0.004434, 0.004485, 0.083110), (-0.005116, -0.003304, 0.002076), (-0.004562, 0.004815, 0.076958), (-0.003680, 0.003622, 0.089873), (-0.001555, 0.001489, 0.098542), (-0.004256, 0.004016, 0.086655), (-0.004302, 0.004286, 0.085176), (-0.005610, 0.001670, 0.001668), (-0.004868, -0.004444, 0.066332), (-0.004572, 0.004859, 0.060486), (-0.004527, 0.004926, 0.069269), (-0.004486, 0.004680, 0.081104), (-0.003389, 0.003163, 0.091611), (-0.002769, 0.002928, 0.093399), (-0.004346, -0.004200, 0.084992), (-0.004473, 0.004890, 0.054824), (-0.004533, 0.004543, 0.002869), (-0.004459, 0.004922, 0.030534), (-0.004483, 0.004897, 0.018807), (-0.004472, 0.004909, 0.048966), (-0.004486, 0.004857, 0.044572), (-0.004449, 0.004881, 0.034927), (-0.004475, 0.004983, 0.005852), (-0.004409, 0.004977, 0.013032), (-0.004508, 0.004900, 0.004148), (-0.001770, 0.002041, 0.097088), (-0.002174, 0.002535, 0.095336), (-0.000587, 0.000715, 0.101619), (-0.004993, 0.003157, 0.001767), (-0.001821, -0.001744, 0.097474), (-0.001160, -0.001135, 0.099858), (-0.004535, -0.004540, 0.002850), (-0.003595, -0.003999, 0.088913), (-0.004466, 0.004191, 0.002144), (-0.005132, -0.002644, 0.001645), (-0.004520, -0.004122, 0.002149), (-0.004158, 0.004131, 0.001776), (0.001310, -0.006518, 0.059720), (0.001661, -0.006406, 0.055326), (0.001367, -0.006503, 0.054584), (0.001678, -0.006411, 0.043478), (0.001358, -0.006505, 0.065019), (0.002452, -0.006124, 0.067984), (0.001313, -0.006523, 0.069290), (0.002417, -0.006095, 0.075160), (0.001339, -0.006476, 0.076992), (0.002752, -0.005940, 0.078734), (0.001347, -0.006449, 0.078451), (0.002423, -0.006135, 0.052194), (0.002849, -0.005950, 0.055337), (0.001326, -0.006338, 0.080950), (0.002630, -0.005868, 0.081039), (0.002280, -0.006210, 0.041991), (0.002354, -0.006214, 0.031124), (0.001795, -0.006388, 0.032001), (0.002308, -0.006260, 0.021591), (0.002997, -0.005928, 0.031087), (0.003028, -0.005940, 0.023308), (0.002950, -0.005915, 0.052688), (0.003005, -0.005902, 0.042004), (0.002826, -0.005945, 0.069170), (0.003039, -0.005905, 0.017294), (0.002159, -0.006293, 0.018411), (0.002305, -0.006254, 0.012696), (0.003083, -0.005951, 0.005510), (0.002334, -0.006298, 0.005615), (0.001455, -0.006505, 0.012331), (0.001700, -0.006486, 0.005468), (0.002133, -0.006319, 0.004297), (0.003039, -0.005932, 0.004220), (0.001416, -0.006511, 0.021877), (0.001254, -0.006522, 0.041889), (0.001179, -0.006538, 0.033116), (0.000988, -0.006589, 0.018762), (0.001054, -0.006604, 0.004325), (0.001008, -0.006654, 0.005664), (0.000912, -0.006617, 0.012933), (0.001278, -0.006063, 0.083598), (0.002513, -0.005647, 0.083519), (0.002411, -0.005427, 0.085676), (0.001218, -0.005656, 0.086876), (0.000910, -0.006600, 0.022484), (0.002231, -0.005229, 0.087240), (0.001233, -0.006345, 0.003084), (-0.000052, -0.006595, 0.079087), (-0.000052, -0.006491, 0.081019), (-0.000046, -0.006630, 0.076222), (0.000492, -0.006602, 0.047215), (-0.000031, -0.006645, 0.066560), (0.000030, -0.006654, 0.059145), (0.000077, -0.006642, 0.055185), (0.000060, -0.006641, 0.052242), (0.000070, -0.006652, 0.047453), (0.000050, -0.006636, 0.043362), (0.000048, -0.006646, 0.038808), (0.000085, -0.006656, 0.026735), (0.000015, -0.006676, 0.021867), (0.000034, -0.006642, 0.032691), (-0.000098, -0.006663, 0.019173), (-0.000062, -0.006695, 0.010778), (-0.000051, -0.006741, 0.006088), (-0.000033, -0.006699, 0.004339), (-0.000085, -0.006234, 0.083255), (-0.000013, -0.005784, 0.086767), (0.002319, -0.005962, 0.002905), (0.001134, -0.005150, 0.089259), (0.001964, -0.004847, 0.089337), (0.000062, -0.006431, 0.002883), (-0.000044, -0.005320, 0.089053), (0.001188, -0.004636, 0.090958), (0.000022, -0.004849, 0.090747), (-0.000987, -0.006574, 0.028728), (-0.001160, -0.006538, 0.034792), (-0.001018, -0.006547, 0.041905), (-0.001304, -0.006517, 0.047880), (-0.001164, -0.006637, 0.005883), (-0.001139, -0.006603, 0.010243), (-0.001156, -0.006571, 0.019212), (-0.001111, -0.006593, 0.021711), (-0.001345, -0.006504, 0.053380), (-0.001437, -0.006479, 0.075887), (-0.001400, -0.006499, 0.067353), (-0.001386, -0.006495, 0.056230), (-0.001065, -0.006612, 0.004327), (-0.001435, -0.006442, 0.078214), (-0.001280, -0.005771, 0.086009), (-0.001379, -0.006093, 0.083304), (-0.001457, -0.006308, 0.081013), (-0.001232, -0.005576, 0.087261), (-0.001154, -0.005276, 0.088770), (-0.001354, -0.006493, 0.043471), (0.000034, -0.004212, 0.092673), (-0.001000, -0.006312, 0.002833), (-0.001509, -0.006474, 0.029409), (-0.001085, -0.006592, 0.023718), (0.001159, -0.004134, 0.092423), (0.000027, -0.003656, 0.094267), (-0.001078, -0.004857, 0.090355), (-0.001964, -0.006394, 0.023439), (-0.002030, -0.006427, 0.005583), (-0.002070, -0.006365, 0.004288), (-0.001751, -0.006463, 0.009665), (-0.001985, -0.006371, 0.019448), (-0.001949, -0.006353, 0.030738), (-0.001943, -0.006336, 0.037616), (-0.001913, -0.006343, 0.033800), (-0.001012, -0.004212, 0.092335), (0.001023, -0.003509, 0.094216), (0.000214, -0.002577, 0.097154), (-0.002218, -0.006325, 0.009642), (-0.000267, -0.002068, 0.098484), (-0.000268, -0.001537, 0.099894), (0.000167, -0.001758, 0.099331), (-0.000993, -0.003227, 0.095061), (-0.000731, -0.002542, 0.097006), (-0.002536, -0.006107, 0.043405), (-0.002199, -0.006038, 0.002952), (-0.002526, -0.006130, 0.031979), (-0.002793, -0.006076, 0.024265), (-0.002514, -0.006172, 0.018574), (-0.001774, -0.006368, 0.064969), (-0.002795, -0.006002, 0.048934), (-0.002882, -0.005956, 0.057093), (-0.002884, -0.005973, 0.052987), (-0.002883, -0.005934, 0.077028), (-0.002483, -0.006100, 0.072978), (-0.002953, -0.005903, 0.066612), (0.000187, -0.001086, 0.101000), (-0.002538, -0.005915, 0.080974), (-0.002359, -0.005159, 0.087459), (-0.002507, -0.005367, 0.085857), (-0.002709, -0.005613, 0.083325), (-0.000283, -0.001065, 0.101020), (-0.000226, -0.000652, 0.102020), (-0.002792, -0.006130, 0.005638), (-0.002815, -0.006085, 0.008883), (-0.002839, -0.006059, 0.004204), (-0.002023, -0.004607, 0.090140), (-0.001769, -0.003766, 0.092807), (-0.000695, -0.001696, 0.099196), (-0.002895, -0.005952, 0.043823), (-0.002855, -0.005975, 0.035146), (-0.002927, -0.005969, 0.029648), (0.000573, -0.001939, 0.098608), (0.000249, -0.000659, 0.101936), (0.000011, -0.000119, 0.103131), (0.001035, -0.002822, 0.095998), (-0.002895, -0.005997, 0.017985), (0.001343, -0.006034, 0.002349), (-0.001096, -0.002430, 0.097013), (0.001090, -0.001953, 0.098113), (0.000539, -0.001064, 0.100807), (0.000823, -0.001541, 0.099387), (0.002143, -0.004196, 0.091115), (0.001911, -0.003299, 0.093753), (0.002723, -0.004663, 0.088606), (-0.001187, -0.001877, 0.098236), (-0.002665, -0.004643, 0.088926), (-0.003030, -0.005674, 0.080957), (-0.000716, -0.001096, 0.100590), (0.003265, -0.005068, 0.084913), (-0.001036, -0.005942, 0.002081), (0.000086, -0.006011, 0.002038), (0.002602, -0.004146, 0.090600), (-0.002217, -0.003785, 0.092215), (0.003077, -0.005587, 0.002854), (0.003531, -0.005346, 0.081101), (-0.003583, -0.005664, 0.004265), (-0.003628, -0.005678, 0.005721), (-0.003617, -0.005643, 0.008670), (-0.003609, -0.005603, 0.017159), (-0.003611, -0.005632, 0.024379), (-0.003642, -0.005570, 0.028988), (-0.003517, -0.005605, 0.053579), (-0.003458, -0.005607, 0.060048), (-0.003541, -0.005573, 0.047919), (-0.003633, -0.005535, 0.042982), (-0.003615, -0.005546, 0.035134), (-0.002002, -0.003121, 0.094203), (-0.003531, -0.005389, 0.002938), (-0.003500, -0.005585, 0.066077), (-0.003509, -0.005556, 0.072057), (-0.003477, -0.005560, 0.077775), (-0.003577, -0.005352, 0.080941), (-0.003472, -0.005206, 0.082824), (-0.002306, -0.005625, 0.002156), (-0.001984, -0.002576, 0.095502), (-0.003433, -0.004851, 0.085591), (-0.002833, -0.004020, 0.090620), (-0.003475, -0.004532, 0.087231), (-0.001109, -0.001507, 0.099171), (0.003212, -0.004734, 0.086958), (0.003437, -0.005551, 0.073134), (0.003575, -0.005487, 0.066220), (0.003870, -0.005298, 0.057143), (0.004059, -0.005175, 0.054769), (-0.004507, -0.004865, 0.055376), (-0.004499, -0.004829, 0.060040), (-0.004458, -0.004855, 0.065324), (-0.004467, -0.004828, 0.072504), (-0.004472, -0.004789, 0.076910), (-0.004430, -0.004912, 0.051041), (-0.004363, -0.004956, 0.044496), (0.003288, -0.005715, 0.046347), (0.004103, -0.005208, 0.043423), (0.004057, -0.005190, 0.048047), (0.004180, -0.005135, 0.041098), (0.004036, -0.005267, 0.033561), (0.003691, -0.005493, 0.029966), (0.004080, -0.005248, 0.024214), (0.004002, -0.005309, 0.019684), (0.004039, -0.005270, 0.016395), (0.004105, -0.005258, 0.009541), (0.004096, -0.005314, 0.005677), (0.004101, -0.005260, 0.004265), (0.003921, -0.005064, 0.002906), (0.003765, -0.005288, 0.078619), (0.004019, -0.005167, 0.071500), (0.004085, -0.005142, 0.065702), (0.001937, -0.002865, 0.094738), (0.001911, -0.002144, 0.096397), (0.003052, -0.005287, 0.002237), (0.004433, -0.004854, 0.061818), (0.000987, -0.000989, 0.100362), (0.002135, -0.005377, 0.001779), (0.004452, -0.004400, 0.082910), (0.002563, -0.002910, 0.093608), (0.001493, -0.001540, 0.098390), (0.004238, -0.004250, 0.085188), (0.004449, -0.004750, 0.077517), (0.003769, -0.003748, 0.088982), (0.004597, -0.004479, 0.081055), (0.004601, -0.004665, 0.072693), (-0.002777, -0.003268, 0.092572), (0.001256, -0.005539, 0.001667), (0.004088, -0.004001, 0.086960), (-0.004377, -0.005098, 0.005988), (-0.004273, -0.005121, 0.011516), (-0.004394, -0.005009, 0.019516), (-0.004391, -0.005030, 0.024084), (-0.004418, -0.004966, 0.028723), (-0.004381, -0.004943, 0.035008), (-0.004358, -0.004712, 0.081292), (-0.004471, -0.004975, 0.004293), (-0.003558, -0.004947, 0.002151), (-0.003600, -0.005173, 0.002584), (-0.004589, -0.004810, 0.015211), (-0.002285, -0.005264, 0.001701), (0.003335, -0.003455, 0.090895), (0.000053, -0.005648, 0.001618), (-0.001063, -0.005566, 0.001650), (0.004500, -0.004787, 0.053332), (0.004539, -0.004765, 0.048238), (0.004458, -0.004904, 0.019170), (0.000452, -0.000379, 0.102157), (0.004593, -0.004752, 0.043813), (0.004795, -0.004565, 0.017109), (0.004997, -0.004459, 0.005470), (0.004929, -0.004473, 0.004165), (0.004752, -0.004588, 0.032612), (0.004819, -0.004543, 0.024645), (0.004811, -0.004519, 0.040138), (0.004771, -0.004393, 0.078833), (0.004144, -0.004445, 0.002159), (0.002463, -0.002340, 0.094970), (0.004688, -0.004301, 0.002760), (0.003184, -0.004790, 0.001729), (-0.003467, -0.004577, 0.001690), (0.002503, 0.006160, 0.057955), (0.001771, 0.006416, 0.060368), (0.001963, 0.006348, 0.055560), (0.002506, 0.006166, 0.043142), (0.001345, 0.006550, 0.045611), (0.001890, 0.006390, 0.037084), (0.002800, 0.006035, 0.067607), (0.001719, 0.006446, 0.068506), (0.001340, 0.006565, 0.060688), (0.002418, 0.006172, 0.074897), (0.001408, 0.006547, 0.056112), (0.001363, 0.006554, 0.071254), (0.001354, 0.006546, 0.075832), (0.002475, 0.006177, 0.034965), (0.001318, 0.006544, 0.034229), (0.001215, 0.006590, 0.038526), (0.001365, 0.006495, 0.078079), (0.002816, 0.006006, 0.076294), (0.002546, 0.005944, 0.081039), (0.001295, 0.006370, 0.080958), (0.002458, 0.006194, 0.029476), (0.001372, 0.006549, 0.026964), (0.002000, 0.006351, 0.019671), (0.002625, 0.006120, 0.020151), (0.002594, 0.006117, 0.016075), (0.001324, 0.006556, 0.020807), (0.002173, 0.006292, 0.012434), (0.002593, 0.006144, 0.009687), (0.001318, 0.006555, 0.010778), (0.002531, 0.006224, 0.006095), (0.001152, 0.006639, 0.005553), (0.001184, 0.006585, 0.004247), (0.002563, 0.006139, 0.004238), (0.001073, 0.006590, 0.019158), (0.002656, 0.005724, 0.082994), (0.001292, 0.006147, 0.083306), (0.002817, 0.006014, 0.058175), (0.000955, 0.006603, 0.030227), (0.000965, 0.006617, 0.023866), (0.002490, 0.005503, 0.085283), (0.001216, 0.005942, 0.085212), (0.002819, 0.006012, 0.034708), (0.000919, 0.006626, 0.009974), (0.002337, 0.005278, 0.087120), (0.001095, 0.005656, 0.087235), (0.003157, 0.005632, 0.081129), (0.002785, 0.006021, 0.043695), (0.000003, 0.006713, 0.060361), (0.000000, 0.006687, 0.076006), (-0.000003, 0.006695, 0.071868), (-0.000028, 0.006708, 0.065883), (-0.000013, 0.006632, 0.078689), (0.000014, 0.006692, 0.051400), (0.000005, 0.006685, 0.043869), (-0.000032, 0.006711, 0.038025), (-0.000061, 0.006701, 0.033061), (-0.000064, 0.006692, 0.028868), (-0.000068, 0.006709, 0.021039), (0.000040, 0.006682, 0.057449), (0.000001, 0.006691, 0.019517), (-0.000074, 0.006690, 0.015471), (-0.000063, 0.006706, 0.008826), (-0.000065, 0.006741, 0.005430), (-0.000008, 0.006684, 0.004110), (-0.000018, 0.006483, 0.081366), (-0.000033, 0.006047, 0.085302), (-0.000047, 0.005616, 0.087945), (0.001512, 0.005023, 0.089419), (0.000997, 0.005029, 0.089912), (0.001238, 0.006237, 0.002832), (0.002229, 0.005887, 0.002735), (0.000006, 0.006383, 0.002804), (-0.001087, 0.006602, 0.018525), (-0.001167, 0.006611, 0.013815), (-0.001230, 0.006610, 0.008772), (-0.001266, 0.006635, 0.005336), (-0.001142, 0.006587, 0.004104), (-0.001094, 0.006287, 0.002842), (-0.001086, 0.006626, 0.021587), (-0.001334, 0.006554, 0.057157), (-0.001349, 0.006563, 0.053042), (-0.001248, 0.006573, 0.045860), (-0.001147, 0.006614, 0.038251), (-0.001106, 0.006608, 0.030580), (-0.001447, 0.006545, 0.075928), (-0.001397, 0.006572, 0.065576), (-0.001376, 0.006584, 0.061024), (-0.001383, 0.006487, 0.078455), (-0.001381, 0.006358, 0.080973), (-0.001331, 0.006134, 0.083511), (-0.001297, 0.005927, 0.085353), (-0.001197, 0.005609, 0.087401), (-0.000136, 0.005040, 0.090189), (0.000169, 0.004303, 0.092430), (0.001118, 0.004308, 0.092028), (-0.001547, 0.006526, 0.024360), (-0.001087, 0.004991, 0.089985), (0.000907, 0.003442, 0.094536), (-0.000084, 0.003194, 0.095560), (0.000859, 0.002770, 0.096381), (0.000098, 0.002355, 0.097886), (-0.001671, 0.006462, 0.004117), (-0.001946, 0.006379, 0.034379), (-0.001982, 0.006380, 0.037223), (-0.001980, 0.006396, 0.015116), (-0.001987, 0.006434, 0.005641), (-0.002010, 0.006378, 0.020632), (-0.000349, 0.004419, 0.092029), (-0.000267, 0.003632, 0.094268), (-0.000267, 0.001797, 0.099393), (-0.002474, 0.006174, 0.045904), (-0.002569, 0.006153, 0.052553), (-0.002733, 0.006090, 0.057755), (0.000142, 0.001608, 0.099877), (-0.002547, 0.005973, 0.080886), (-0.001192, 0.004451, 0.091555), (0.000523, 0.002265, 0.097948), (0.000500, 0.001629, 0.099662), (-0.002715, 0.005683, 0.083305), (-0.000083, 0.001078, 0.101240), (-0.002813, 0.006000, 0.077910), (-0.000956, 0.003379, 0.094712), (-0.000935, 0.002634, 0.096748), (-0.002759, 0.006086, 0.004208), (-0.002499, 0.005527, 0.085075), (-0.002854, 0.006050, 0.062578), (-0.002821, 0.006048, 0.075083), (-0.001445, 0.006538, 0.072795), (-0.002721, 0.006108, 0.027876), (-0.002159, 0.005307, 0.087285), (-0.001945, 0.004872, 0.089433), (-0.002783, 0.006135, 0.005791), (-0.002702, 0.006125, 0.010691), (-0.002750, 0.006081, 0.018836), (-0.002730, 0.006069, 0.034893), (-0.002835, 0.006022, 0.050044), (-0.002698, 0.006098, 0.038194), (-0.002390, 0.005926, 0.002835), (-0.002658, 0.005275, 0.086265), (-0.000878, 0.002085, 0.098237), (0.000549, 0.001178, 0.100696), (0.002492, 0.004870, 0.088492), (-0.000703, 0.001198, 0.100529), (-0.000892, 0.001604, 0.099384), (-0.003234, 0.005622, 0.081018), (-0.001746, 0.003660, 0.093176), (-0.001755, 0.003137, 0.094543), (-0.002401, 0.004459, 0.090122), (-0.002202, 0.003778, 0.092317), (-0.002678, 0.004850, 0.088170), (-0.002858, 0.004399, 0.089481), (-0.001097, 0.006044, 0.002307), (-0.002920, 0.006005, 0.068374), (0.002374, 0.004449, 0.090210), (0.000965, 0.002211, 0.097729), (0.000960, 0.001603, 0.099257), (0.001836, 0.003748, 0.092844), (-0.003559, 0.005606, 0.076743), (0.000554, 0.000741, 0.101588), (-0.000078, 0.000502, 0.102462), (0.001875, 0.002956, 0.094790), (0.002800, 0.006016, 0.029498), (0.002794, 0.006013, 0.021663), (0.003535, 0.005659, 0.006218), (0.003422, 0.005666, 0.004220), (0.003498, 0.005619, 0.014836), (0.003522, 0.005603, 0.020543), (0.004014, 0.005258, 0.053422), (0.003496, 0.005599, 0.043656), (0.003470, 0.005633, 0.035349), (0.003527, 0.005606, 0.029873), (0.003188, 0.005436, 0.002775), (0.003412, 0.005192, 0.083675), (0.003484, 0.004937, 0.085162), (0.000024, 0.006054, 0.002149), (0.001899, 0.002377, 0.096089), (0.002397, 0.003870, 0.091756), (0.002272, 0.003186, 0.093640), (0.004005, 0.005292, 0.057867), (0.003475, 0.005603, 0.060835), (0.003465, 0.005623, 0.068493), (0.003374, 0.005665, 0.076157), (0.000062, 0.000149, 0.103058), (0.003506, 0.004598, 0.086881), (0.001027, 0.001238, 0.099941), (0.004056, 0.005230, 0.047854), (-0.001477, 0.002588, 0.096249), (-0.003601, 0.005613, 0.024875), (-0.003605, 0.005592, 0.018697), (-0.003616, 0.005605, 0.012962), (-0.003610, 0.005657, 0.006122), (-0.003689, 0.005509, 0.056025), (-0.003572, 0.005610, 0.060351), (-0.003686, 0.005516, 0.049321), (-0.003652, 0.005520, 0.043303), (-0.003610, 0.005560, 0.035291), (-0.003647, 0.005568, 0.031499), (-0.003522, 0.005628, 0.073073), (-0.003646, 0.005583, 0.004144), (-0.002188, 0.005688, 0.002219), (-0.003554, 0.005212, 0.083068), (-0.003436, 0.004827, 0.086134), (0.001328, 0.005631, 0.001823), (-0.003627, 0.005257, 0.002851), (-0.003776, 0.005260, 0.081091), (0.001545, 0.001858, 0.097746), (0.001983, 0.002034, 0.096668), (0.003419, 0.004113, 0.089010), (-0.003980, 0.005320, 0.058243), (-0.004087, 0.005232, 0.049573), (-0.002897, 0.003663, 0.091433), (-0.003684, 0.004147, 0.088166), (-0.004050, 0.005228, 0.043473), (-0.004503, 0.004891, 0.074438), (-0.001127, 0.005683, 0.001793), (-0.003545, 0.005001, 0.002222), (-0.004227, 0.005126, 0.022490), (-0.002273, 0.005323, 0.001773), (0.000047, 0.005694, 0.001689), (0.003189, 0.005071, 0.002150), (0.002938, 0.004924, 0.001750), (-0.003392, 0.004650, 0.001703), (0.004290, 0.004597, 0.002699), (0.004121, 0.004152, 0.001859), (0.006722, -0.000096, 0.059277), (0.006609, 0.001010, 0.057429), (0.006709, -0.000037, 0.056332), (0.006727, -0.000103, 0.043616), (0.006612, 0.001251, 0.042525), (0.006622, 0.001217, 0.035141), (0.006615, 0.001272, 0.047953), (0.006742, -0.000116, 0.048076), (0.006553, 0.001433, 0.055494), (0.006551, 0.001378, 0.060927), (0.006681, -0.000037, 0.069469), (0.006517, 0.001404, 0.070782), (0.006700, -0.000070, 0.061854), (0.006494, 0.001376, 0.076629), (0.006651, 0.000015, 0.076532), (0.006599, -0.000028, 0.078280), (0.006414, 0.001424, 0.078741), (0.006438, 0.000084, 0.081141), (0.006279, 0.001454, 0.080999), (0.006717, -0.000104, 0.035645), (0.006639, 0.001059, 0.019493), (0.006615, 0.000966, 0.014193), (0.006714, 0.000158, 0.020167), (0.006650, 0.001231, 0.027640), (0.006746, -0.000082, 0.028463), (0.006666, 0.000014, 0.013407), (0.006679, -0.000004, 0.009495), (0.006622, 0.001004, 0.008793), (0.006674, -0.000035, 0.005726), (0.006605, 0.000958, 0.004310), (0.006644, -0.000109, 0.004147), (0.006705, -0.000175, 0.018840), (0.006513, 0.001519, 0.014103), (0.006541, 0.001451, 0.009272), (0.006529, 0.001398, 0.004341), (0.006578, 0.001437, 0.022307), (0.006078, 0.001339, 0.083495), (0.006066, -0.000003, 0.085119), (0.005913, 0.001254, 0.085214), (0.005650, 0.001177, 0.087154), (0.005815, 0.000068, 0.086859), (0.006477, 0.001655, 0.061174), (0.006583, -0.001075, 0.012949), (0.006589, -0.001090, 0.006268), (0.006554, -0.001179, 0.004229), (0.006637, -0.000987, 0.019865), (0.006648, -0.000999, 0.028139), (0.006624, -0.001047, 0.047234), (0.006612, -0.001079, 0.035532), (0.006533, -0.001373, 0.069790), (0.006500, -0.001335, 0.076151), (0.006558, -0.001430, 0.059193), (0.006553, -0.001361, 0.056855), (0.006302, -0.001422, 0.080803), (0.006442, -0.001385, 0.078333), (0.006080, -0.001341, 0.083569), (0.005891, -0.001229, 0.085594), (0.006427, -0.000056, 0.002813), (0.006565, -0.001378, 0.047630), (0.006543, -0.001412, 0.034706), (0.006565, -0.001397, 0.026662), (0.005482, 0.000057, 0.088586), (0.006284, 0.001090, 0.002649), (0.006300, -0.001247, 0.002834), (0.006358, -0.002008, 0.005550), (0.006374, -0.001917, 0.012695), (0.006404, -0.001897, 0.020490), (0.006440, 0.001935, 0.029332), (0.006495, 0.001645, 0.044619), (0.006414, 0.001931, 0.034684), (0.006235, 0.002404, 0.005963), (0.006251, 0.002376, 0.015313), (0.006267, 0.002357, 0.010034), (0.006271, 0.002339, 0.019230), (0.006384, 0.001738, 0.076291), (0.006327, 0.001994, 0.004146), (0.006227, 0.002470, 0.048940), (0.006240, 0.002426, 0.035687), (0.006222, 0.002431, 0.044163), (0.005485, 0.002301, 0.085924), (0.006187, 0.002444, 0.058919), (0.005891, 0.002581, 0.081048), (0.005637, 0.002726, 0.083208), (0.005993, 0.002161, 0.002765), (0.006124, 0.002483, 0.070811), (0.006163, 0.002476, 0.065013), (0.006217, 0.002514, 0.028587), (0.005951, 0.002844, 0.076856), (0.005258, 0.002344, 0.087142), (0.006001, 0.002832, 0.004167), (0.005330, 0.001075, 0.088734), (0.005892, 0.003030, 0.067247), (0.004711, 0.002204, 0.089669), (0.004888, 0.001140, 0.090361), (0.005928, 0.003054, 0.005660), (0.005936, 0.003053, 0.010089), (0.005934, 0.003009, 0.018051), (0.005920, 0.003007, 0.059754), (0.005980, 0.002870, 0.056290), (0.005991, 0.002916, 0.049202), (0.005944, 0.002951, 0.043947), (0.005945, 0.002973, 0.038268), (0.005967, 0.002975, 0.028536), (0.005601, 0.003174, 0.081065), (0.004175, 0.001526, 0.092064), (0.005069, 0.003371, 0.084816), (0.005566, 0.002992, 0.002705), (0.005766, 0.003166, 0.076242), (0.003864, 0.002140, 0.092209), (0.004821, 0.003120, 0.087180), (0.005341, 0.003666, 0.079736), (0.005447, 0.003738, 0.057815), (0.005551, 0.003568, 0.060973), (0.005492, 0.003629, 0.069191), (0.005503, 0.003674, 0.050173), (0.005427, 0.003748, 0.043446), (0.005459, 0.003716, 0.034927), (0.005494, 0.003683, 0.022972), (0.005360, 0.003883, 0.017921), (0.005525, 0.003691, 0.013037), (0.005531, 0.003687, 0.005777), (0.005194, 0.004080, 0.004191), (0.005255, 0.003887, 0.076670), (0.004244, 0.003118, 0.089374), (0.005106, 0.003873, 0.081269), (0.003811, 0.002670, 0.091525), (0.005222, 0.004044, 0.035550), (0.005163, 0.004132, 0.031038), (0.005217, 0.004062, 0.048755), (0.005182, 0.004076, 0.043234), (0.005200, 0.004076, 0.057803), (0.005077, 0.004190, 0.060230), (0.005040, 0.004251, 0.063476), (0.005031, 0.004234, 0.070673), (0.005162, 0.004194, 0.006612), (0.005050, 0.003734, 0.002623), (0.005117, 0.004180, 0.022209), (0.005146, 0.004156, 0.016572), (0.004675, 0.004462, 0.080795), (0.004745, 0.004528, 0.076349), (0.004366, 0.004441, 0.083626), (0.004309, 0.004210, 0.085340), (0.004180, 0.003859, 0.087392), (0.002943, 0.002200, 0.094299), (0.002932, 0.001581, 0.095214), (0.004464, 0.004899, 0.068571), (0.004444, 0.004917, 0.059985), (0.004411, 0.004928, 0.056515), (0.004424, 0.004911, 0.049967), (0.004428, 0.004876, 0.043907), (0.004316, 0.005004, 0.039404), (0.004424, 0.004913, 0.030025), (0.004300, 0.004996, 0.035372), (0.002152, 0.001142, 0.097721), (0.001912, 0.001503, 0.097709), (0.001554, 0.001048, 0.099233), (0.004417, 0.004882, 0.075990), (0.004390, 0.004990, 0.005936), (0.004378, 0.004947, 0.004230), (0.004334, 0.005016, 0.011983), (0.004335, 0.004978, 0.021515), (0.004348, 0.004965, 0.017230), (0.004341, 0.004782, 0.081081), (0.003392, 0.003516, 0.090729), (0.003151, 0.003092, 0.092205), (0.002426, 0.002602, 0.094646), (0.004075, 0.005182, 0.042745), (0.004133, 0.005157, 0.031252), (0.001002, 0.000679, 0.100897), (0.000629, 0.000205, 0.102102), (0.006128, -0.002592, 0.004135), (0.006252, -0.002358, 0.023097), (0.006173, -0.002475, 0.012760), (0.006096, -0.002735, 0.005623), (0.005906, -0.002416, 0.002778), (0.006073, -0.001256, 0.002278), (0.005982, -0.002885, 0.011659), (0.005583, -0.002579, 0.002206), (0.006033, -0.002779, 0.020120), (0.006012, -0.002826, 0.027671), (0.006234, -0.002353, 0.029842), (0.006005, -0.002810, 0.033531), (0.006001, -0.002844, 0.043421), (0.006219, -0.002399, 0.039471), (0.006227, -0.002373, 0.046858), (0.005979, -0.002836, 0.053599), (0.006209, -0.002377, 0.053697), (0.005992, -0.002803, 0.058945), (0.006220, -0.002316, 0.059338), (0.005974, -0.002783, 0.072698), (0.006171, -0.002370, 0.066137), (0.005944, -0.002847, 0.067669), (0.005402, -0.003433, 0.002832), (0.005640, -0.003566, 0.005511), (0.005606, -0.003558, 0.004140), (0.005599, -0.003531, 0.015446), (0.005585, -0.003508, 0.031033), (0.005583, -0.003543, 0.025594), (0.005536, -0.003593, 0.060928), (0.005440, -0.003674, 0.070669), (0.005353, -0.003821, 0.057842), (0.005489, -0.003675, 0.042193), (0.005472, -0.003637, 0.049442), (0.005353, -0.003840, 0.052617), (0.005277, -0.003987, 0.040017), (0.005439, -0.003569, 0.077572), (0.005867, -0.002851, 0.078451), (0.005244, -0.003657, 0.080990), (0.005734, -0.002833, 0.081271), (0.005145, -0.003490, 0.083186), (0.005517, -0.002619, 0.084612), (0.004897, -0.003497, 0.085158), (0.004746, -0.003223, 0.087036), (0.005355, -0.002407, 0.086337), (0.005261, -0.002520, 0.001724), (0.005089, -0.004227, 0.016486), (0.005135, -0.004123, 0.032146), (0.005155, -0.004136, 0.022872), (0.005023, -0.003502, 0.002178), (0.005276, -0.003897, 0.066501), (0.004768, -0.004495, 0.058303), (0.004778, -0.004473, 0.067147), (0.004440, -0.002793, 0.089341), (0.003660, -0.003131, 0.090833), (0.003895, -0.002443, 0.091572), (0.003087, -0.002385, 0.093532), (0.003224, -0.001841, 0.094061), (0.002468, -0.001959, 0.095654), (0.002841, -0.001374, 0.095588), (0.002106, -0.001432, 0.097294), (0.002121, -0.000826, 0.098082), (0.001508, -0.000952, 0.099370), (0.001052, -0.000584, 0.100820), (0.000648, -0.000119, 0.102094), (0.001549, 0.000227, 0.099994), (0.001817, -0.000206, 0.099299), (0.001584, -0.000577, 0.099641), (0.002546, -0.000859, 0.096947), (0.002933, 0.000012, 0.096292), (0.003198, -0.000912, 0.095137), (0.002092, 0.000398, 0.098531), (0.003610, -0.000031, 0.094349), (0.003809, -0.000885, 0.093507), (0.004279, -0.000038, 0.092505), (0.004886, -0.000023, 0.090759), (0.004162, -0.001167, 0.092372), (0.004762, -0.001191, 0.090669), (0.005328, -0.000985, 0.088801), (0.005630, -0.001157, 0.087241), (0.004390, 0.001023, 0.091915), (0.003645, 0.000935, 0.093986), (0.003199, 0.000876, 0.095243), (0.002582, 0.000885, 0.096914), (0.001597, 0.000589, 0.099673), (0.004849, -0.001886, 0.089533), (0.005176, -0.002176, 0.087728), (0.004196, -0.002148, 0.091204), (0.006341, -0.001783, 0.076078), (0.006453, -0.001638, 0.068526), (0.006131, -0.000132, 0.002143), (0.005688, -0.001276, 0.001693), (0.005797, 0.000017, 0.001654), (0.005658, 0.001409, 0.001716), (0.005631, 0.002224, 0.002108), (0.005110, 0.002833, 0.001784), (0.005253, 0.001039, 0.001297), (0.004861, 0.002235, 0.001305), (0.005271, -0.000062, 0.001238), (0.005214, -0.001185, 0.001285), (0.004642, 0.003410, 0.001711), (0.004427, 0.002821, 0.001257), (0.003979, 0.003482, 0.001296), (0.003122, 0.004219, 0.001295), (0.004579, -0.002681, 0.001282), (0.001711, 0.004943, 0.001321), (0.004331, -0.003833, 0.001701), (0.003858, -0.003680, 0.001330), (0.002826, -0.004345, 0.001270), (0.001605, -0.004960, 0.001299), (0.002482, -0.003258, 0.001020), (0.002267, 0.003682, 0.001010), (-0.002305, 0.003698, 0.001017), (0.004182, -0.001224, 0.001013), (0.004006, 0.002080, 0.001009), (-0.004171, 0.001821, 0.001017), (-0.004224, -0.001739, 0.001018), (-0.002940, -0.003262, 0.001021), (-0.000158, -0.004213, 0.001017), (0.000607, 0.004187, 0.001000), (0.001751, -0.004237, 0.001074), (0.003694, -0.002906, 0.001076), (-0.004846, -0.000259, 0.001083), (-0.001513, -0.004288, 0.001073), (-0.001317, 0.004422, 0.001070), (0.004628, 0.001227, 0.001076), (-0.003621, -0.002723, 0.001042), (0.004568, -0.001122, 0.001067), (-0.003165, 0.003693, 0.001106), (0.000077, -0.004724, 0.001107), (0.003119, 0.003587, 0.001094), (0.000058, 0.004768, 0.001111), (-0.004371, 0.002281, 0.001104), (0.001670, 0.004444, 0.001119), (-0.005129, 0.001232, 0.001224), (-0.002273, -0.004709, 0.001288), (-0.000214, -0.005182, 0.001257), (-0.004608, -0.002630, 0.001273), (-0.003752, -0.003727, 0.001305), (-0.005131, -0.001328, 0.001263), (-0.005343, -0.000011, 0.001270), (-0.001488, 0.005060, 0.001322), (0.000140, 0.005215, 0.001292), (-0.004243, 0.003384, 0.001352), (-0.003090, 0.004344, 0.001332), (-0.004931, 0.002277, 0.001330), (-0.004413, -0.003720, 0.001680)]
    texCoord2f[] primvars:st = [(0.561957, 0.610459), (0.593581, 0.639035), (0.561995, 0.639309), (0.535091, 0.639479), (0.517693, 0.616528), (0.474465, 0.616649), (0.466160, 0.639357), (0.420626, 0.616569), (0.423881, 0.639294), (0.385256, 0.639154), (0.384523, 0.616719), (0.356194, 0.614327), (0.351031, 0.638223), (0.306419, 0.636464), (0.317811, 0.615018), (0.258726, 0.613729), (0.256439, 0.636190), (0.680606, 0.609049), (0.694932, 0.639346), (0.651981, 0.609497), (0.751177, 0.609687), (0.766740, 0.638937), (0.795836, 0.639506), (0.795019, 0.609783), (0.656701, 0.639141), (0.587198, 0.608761), (0.250315, 0.610330), (0.810362, 0.609913), (0.809143, 0.640241), (0.826384, 0.638992), (0.827158, 0.610189), (0.304690, 0.607610), (0.245882, 0.634897), (0.843637, 0.611176), (0.849891, 0.639213), (0.394305, 0.605592), (0.523564, 0.607939), (0.473306, 0.606615), (0.859593, 0.638676), (0.859998, 0.612156), (0.262228, 0.600677), (0.871124, 0.613137), (0.874173, 0.639049), (0.242582, 0.608732), (0.317357, 0.586585), (0.251395, 0.588318), (0.263765, 0.586319), (0.372684, 0.586234), (0.464027, 0.586364), (0.587572, 0.587023), (0.546777, 0.586716), (0.650141, 0.586059), (0.671906, 0.586144), (0.743893, 0.586670), (0.787012, 0.590524), (0.813543, 0.585784), (0.829211, 0.584357), (0.808685, 0.571881), (0.788080, 0.570300), (0.858103, 0.587650), (0.883527, 0.616302), (0.873475, 0.589503), (0.828430, 0.570851), (0.680786, 0.571443), (0.644120, 0.573444), (0.759106, 0.569626), (0.887250, 0.639784), (0.240355, 0.586305), (0.295314, 0.659475), (0.259631, 0.657850), (0.679308, 0.667082), (0.619095, 0.665834), (0.762618, 0.667714), (0.802266, 0.668357), (0.558407, 0.665579), (0.532068, 0.664524), (0.490021, 0.663186), (0.457596, 0.663384), (0.428133, 0.662936), (0.382461, 0.662425), (0.356662, 0.659700), (0.254057, 0.662463), (0.246694, 0.657664), (0.858670, 0.664125), (0.872686, 0.664139), (0.844002, 0.666516), (0.827151, 0.667833), (0.239596, 0.634759), (0.898694, 0.613513), (0.906693, 0.638519), (0.324036, 0.671434), (0.883725, 0.662350), (0.240618, 0.657126), (0.896575, 0.663970), (0.785065, 0.673899), (0.924891, 0.617098), (0.637373, 0.672833), (0.702529, 0.674075), (0.889101, 0.595584), (0.927229, 0.639433), (0.950069, 0.624532), (0.943170, 0.639364), (0.965387, 0.633129), (0.245640, 0.676283), (0.321572, 0.685323), (0.254398, 0.684917), (0.379096, 0.687283), (0.456124, 0.687250), (0.481674, 0.689018), (0.909484, 0.662066), (0.540818, 0.688915), (0.644165, 0.689446), (0.747287, 0.688143), (0.705939, 0.689108), (0.961378, 0.641815), (0.978753, 0.641943), (0.949424, 0.651449), (0.931587, 0.657738), (0.861725, 0.689265), (0.828665, 0.693119), (0.813524, 0.694687), (0.981164, 0.632158), (0.883649, 0.681782), (0.968768, 0.650183), (0.873995, 0.694449), (0.794068, 0.701871), (0.761593, 0.702911), (0.659906, 0.702776), (0.610936, 0.704226), (0.557947, 0.703488), (0.702402, 0.704427), (0.478113, 0.702525), (0.425048, 0.704081), (0.238929, 0.683002), (0.243616, 0.693302), (0.263011, 0.702530), (0.330289, 0.704198), (0.827801, 0.708390), (0.812699, 0.709575), (0.992142, 0.632288), (0.992014, 0.640172), (0.944981, 0.661619), (0.898427, 0.685540), (0.251757, 0.706890), (0.891542, 0.693521), (0.964252, 0.659970), (0.928458, 0.673650), (0.999431, 0.637269), (0.911419, 0.685111), (0.966908, 0.623426), (0.235132, 0.656274), (0.861482, 0.708653), (0.235329, 0.609885), (0.979561, 0.624797), (0.938619, 0.615953), (0.961392, 0.616244), (0.252714, 0.567348), (0.265443, 0.569047), (0.304824, 0.566991), (0.562108, 0.572372), (0.495026, 0.571589), (0.399635, 0.569227), (0.354644, 0.567530), (0.899564, 0.593043), (0.913887, 0.595226), (0.248464, 0.569843), (0.864899, 0.579039), (0.883171, 0.583325), (0.852485, 0.564090), (0.241338, 0.567181), (0.899254, 0.581595), (0.869725, 0.567639), (0.726812, 0.564367), (0.232380, 0.632827), (0.261529, 0.714549), (0.331599, 0.715839), (0.408990, 0.718056), (0.240853, 0.714036), (0.741235, 0.718635), (0.787709, 0.714413), (0.978141, 0.656971), (0.990331, 0.648141), (0.656125, 0.717307), (0.469741, 0.717654), (0.546226, 0.718037), (0.953574, 0.669501), (0.938953, 0.679782), (0.828604, 0.717931), (0.572538, 0.724753), (0.612058, 0.731658), (0.891637, 0.705762), (0.911002, 0.699589), (0.251442, 0.732324), (0.263484, 0.734140), (0.334834, 0.732105), (0.403727, 0.733994), (0.441248, 0.733507), (0.479969, 0.734345), (0.539556, 0.734395), (0.930647, 0.691802), (0.717961, 0.732288), (0.648238, 0.736529), (0.858003, 0.718837), (0.235272, 0.692358), (0.873590, 0.723861), (0.808513, 0.737005), (0.762359, 0.738647), (0.827379, 0.740832), (0.235622, 0.580104), (0.653759, 0.546293), (0.584308, 0.545529), (0.539248, 0.546269), (0.484828, 0.546122), (0.408132, 0.558657), (0.375617, 0.545250), (0.323355, 0.542369), (0.289862, 0.542032), (0.263412, 0.544681), (0.637627, 0.555651), (0.432480, 0.544309), (0.932503, 0.590383), (0.946172, 0.604395), (0.955752, 0.603683), (0.973166, 0.613496), (0.250747, 0.544564), (0.913841, 0.584938), (0.684817, 0.545524), (0.740496, 0.541361), (0.789229, 0.546146), (0.826022, 0.551365), (0.880461, 0.567792), (0.238892, 0.553083), (0.999627, 0.634374), (0.231217, 0.671058), (0.899824, 0.716816), (0.572884, 0.739980), (0.842847, 0.534939), (0.234231, 0.711933), (0.796299, 0.526033), (0.894801, 0.555392), (0.962928, 0.603899), (0.869840, 0.546663), (0.858583, 0.539753), (0.231514, 0.598000), (0.716274, 0.742647), (0.672598, 0.523861), (0.738478, 0.522444), (0.827635, 0.529839), (0.908264, 0.566002), (0.922818, 0.570191), (0.857138, 0.737355), (0.630139, 0.521812), (0.240503, 0.529745), (0.448187, 0.520225), (0.360487, 0.520403), (0.586215, 0.521320), (0.553287, 0.522257), (0.481052, 0.520971), (0.263420, 0.519020), (0.317318, 0.517857), (0.250377, 0.521831), (0.951943, 0.590191), (0.938317, 0.578490), (0.987691, 0.620943), (0.231931, 0.562015), (0.954733, 0.679773), (0.973604, 0.665174), (0.239812, 0.742647), (0.887895, 0.733607), (0.234566, 0.536051), (0.230396, 0.697773), (0.234175, 0.734331), (0.230851, 0.533789), (0.498259, 0.427143), (0.465268, 0.434760), (0.459707, 0.428159), (0.376381, 0.434492), (0.538032, 0.428405), (0.560256, 0.453022), (0.570050, 0.427554), (0.613974, 0.452459), (0.627644, 0.428401), (0.640716, 0.459882), (0.638472, 0.428639), (0.441753, 0.451684), (0.465336, 0.461662), (0.656993, 0.428244), (0.657874, 0.457211), (0.365226, 0.447826), (0.283844, 0.448821), (0.290411, 0.436510), (0.212640, 0.447272), (0.283554, 0.463650), (0.225441, 0.463881), (0.445449, 0.463770), (0.365313, 0.464459), (0.569142, 0.461836), (0.180620, 0.464080), (0.188948, 0.443939), (0.146612, 0.446580), (0.093539, 0.462854), (0.094448, 0.445982), (0.143926, 0.428125), (0.093478, 0.432494), (0.084985, 0.441324), (0.084181, 0.461295), (0.214793, 0.427839), (0.364481, 0.425166), (0.298755, 0.423199), (0.191588, 0.418591), (0.085366, 0.418800), (0.094975, 0.418073), (0.148372, 0.416614), (0.676742, 0.427530), (0.676484, 0.454922), (0.692674, 0.452653), (0.701264, 0.426325), (0.219328, 0.417075), (0.704465, 0.448800), (0.076252, 0.422838), (0.643168, 0.399268), (0.657445, 0.399381), (0.621920, 0.399205), (0.404433, 0.409227), (0.549615, 0.398919), (0.493963, 0.399913), (0.464236, 0.400743), (0.442148, 0.400282), (0.406229, 0.400284), (0.375542, 0.399676), (0.341408, 0.399457), (0.251078, 0.399825), (0.214734, 0.398211), (0.295595, 0.398929), (0.194666, 0.395750), (0.132465, 0.396213), (0.098088, 0.396495), (0.085531, 0.396845), (0.674096, 0.398850), (0.700335, 0.400538), (0.074636, 0.446355), (0.719333, 0.424866), (0.720407, 0.443256), (0.074888, 0.398766), (0.717595, 0.400078), (0.732597, 0.426414), (0.730681, 0.401560), (0.265972, 0.377262), (0.311339, 0.373722), (0.364634, 0.376966), (0.409448, 0.371140), (0.096568, 0.373736), (0.128504, 0.373772), (0.194969, 0.373443), (0.213587, 0.374508), (0.450707, 0.370470), (0.619474, 0.369838), (0.555589, 0.369859), (0.472098, 0.369685), (0.085400, 0.376006), (0.636776, 0.370122), (0.694840, 0.373938), (0.674598, 0.371640), (0.657540, 0.369876), (0.704233, 0.375054), (0.715642, 0.376783), (0.376383, 0.369839), (0.745954, 0.401999), (0.074368, 0.376890), (0.271069, 0.366081), (0.228503, 0.375118), (0.744293, 0.426225), (0.758826, 0.401985), (0.727850, 0.378287), (0.226439, 0.356191), (0.094311, 0.355673), (0.084970, 0.355136), (0.124215, 0.360749), (0.196734, 0.355541), (0.281010, 0.356504), (0.332515, 0.356774), (0.303923, 0.357281), (0.743533, 0.379533), (0.758796, 0.423763), (0.782544, 0.406176), (0.124021, 0.350655), (0.793532, 0.395698), (0.805186, 0.395717), (0.800505, 0.405187), (0.765671, 0.379766), (0.781562, 0.385432), (0.375896, 0.343575), (0.075007, 0.351488), (0.290294, 0.343509), (0.232614, 0.337590), (0.190253, 0.343652), (0.537706, 0.361351), (0.417377, 0.337854), (0.478595, 0.336080), (0.447781, 0.336056), (0.628118, 0.337599), (0.597759, 0.346104), (0.550076, 0.334604), (0.814425, 0.405635), (0.657493, 0.345768), (0.706271, 0.350173), (0.694207, 0.346665), (0.675171, 0.342000), (0.814635, 0.395379), (0.823011, 0.396669), (0.094586, 0.338948), (0.118391, 0.337378), (0.084175, 0.338407), (0.726790, 0.357301), (0.748011, 0.362265), (0.799706, 0.386132), (0.379041, 0.335329), (0.314019, 0.335948), (0.272856, 0.334304), (0.794793, 0.414226), (0.822400, 0.407065), (0.832619, 0.401782), (0.773502, 0.424361), (0.185887, 0.334824), (0.070418, 0.426017), (0.781916, 0.377172), (0.791169, 0.426044), (0.813109, 0.413576), (0.801522, 0.420031), (0.734625, 0.448275), (0.755938, 0.444432), (0.715344, 0.460830), (0.792277, 0.374732), (0.717869, 0.342553), (0.657505, 0.334230), (0.811466, 0.385456), (0.687357, 0.473180), (0.068138, 0.375222), (0.067868, 0.399390), (0.730946, 0.458894), (0.743674, 0.352008), (0.073887, 0.463816), (0.658602, 0.479101), (0.084346, 0.321140), (0.095012, 0.319319), (0.116760, 0.318380), (0.179755, 0.317703), (0.233476, 0.318050), (0.267923, 0.317023), (0.452233, 0.320627), (0.500792, 0.321920), (0.409769, 0.319618), (0.372744, 0.317401), (0.313940, 0.317537), (0.759741, 0.356338), (0.074320, 0.320727), (0.546071, 0.321200), (0.590919, 0.321310), (0.633808, 0.323203), (0.657569, 0.320809), (0.671761, 0.323157), (0.068464, 0.347118), (0.770587, 0.356093), (0.692838, 0.323833), (0.731518, 0.337747), (0.705489, 0.322717), (0.800067, 0.376219), (0.703020, 0.472497), (0.598844, 0.477046), (0.546998, 0.480334), (0.478874, 0.487377), (0.461050, 0.492015), (0.465729, 0.294574), (0.500749, 0.294405), (0.540447, 0.295683), (0.594347, 0.295882), (0.627498, 0.296295), (0.433204, 0.296313), (0.384112, 0.297784), (0.397883, 0.471800), (0.375934, 0.491931), (0.410618, 0.491549), (0.358509, 0.494048), (0.302057, 0.489694), (0.275174, 0.480873), (0.232174, 0.490383), (0.198398, 0.487971), (0.173924, 0.488792), (0.123164, 0.489194), (0.094566, 0.487644), (0.084093, 0.487278), (0.073799, 0.484742), (0.640017, 0.485245), (0.586597, 0.491939), (0.543110, 0.493305), (0.764226, 0.445698), (0.778226, 0.446286), (0.068739, 0.465449), (0.513954, 0.502748), (0.810163, 0.424718), (0.064856, 0.445920), (0.672853, 0.504779), (0.755861, 0.461244), (0.794342, 0.436774), (0.690263, 0.499775), (0.631833, 0.503941), (0.719718, 0.489172), (0.658681, 0.508352), (0.595571, 0.508157), (0.747531, 0.337471), (0.063932, 0.425899), (0.704050, 0.496864), (0.096782, 0.299403), (0.137846, 0.300688), (0.197293, 0.297001), (0.231285, 0.297354), (0.265962, 0.296277), (0.313013, 0.296973), (0.660594, 0.299644), (0.084089, 0.297714), (0.067702, 0.316770), (0.071409, 0.317716), (0.165286, 0.291184), (0.064022, 0.345185), (0.734604, 0.479036), (0.063539, 0.398783), (0.063731, 0.373432), (0.450258, 0.504374), (0.412041, 0.505131), (0.194564, 0.500710), (0.824904, 0.412637), (0.378846, 0.506087), (0.179199, 0.510530), (0.092801, 0.513655), (0.082820, 0.511347), (0.294945, 0.510466), (0.235370, 0.511877), (0.351298, 0.512619), (0.641840, 0.513655), (0.067122, 0.495155), (0.767324, 0.460163), (0.071835, 0.507535), (0.063748, 0.472486), (0.063107, 0.315027), (0.424826, 0.779207), (0.442931, 0.795542), (0.406863, 0.791306), (0.313743, 0.779251), (0.332248, 0.805036), (0.268354, 0.792999), (0.497217, 0.772449), (0.503945, 0.796898), (0.445332, 0.805145), (0.551904, 0.781442), (0.411008, 0.803751), (0.524540, 0.804847), (0.558835, 0.805367), (0.252490, 0.779914), (0.246981, 0.805488), (0.279151, 0.807818), (0.575619, 0.805449), (0.562425, 0.772539), (0.598035, 0.779601), (0.597106, 0.807377), (0.211415, 0.780358), (0.192634, 0.804385), (0.138118, 0.790544), (0.141707, 0.776552), (0.111313, 0.777030), (0.146610, 0.805366), (0.084172, 0.786583), (0.063719, 0.777395), (0.071862, 0.805341), (0.037059, 0.779585), (0.033247, 0.809623), (0.023759, 0.809370), (0.023273, 0.779531), (0.134287, 0.810672), (0.612855, 0.777694), (0.614680, 0.808053), (0.426476, 0.771914), (0.217034, 0.813237), (0.169473, 0.813017), (0.630104, 0.782210), (0.628929, 0.810349), (0.250566, 0.771878), (0.065901, 0.813879), (0.643914, 0.786617), (0.644030, 0.813821), (0.598924, 0.765123), (0.317883, 0.772628), (0.442883, 0.833529), (0.560079, 0.833990), (0.529110, 0.833837), (0.484273, 0.834249), (0.580061, 0.834571), (0.375662, 0.833287), (0.319190, 0.833445), (0.275395, 0.834184), (0.238244, 0.834744), (0.206864, 0.834762), (0.148338, 0.834765), (0.421040, 0.832781), (0.136967, 0.833308), (0.106807, 0.834808), (0.057412, 0.834473), (0.032424, 0.834695), (0.022888, 0.833681), (0.599975, 0.835097), (0.629317, 0.836481), (0.649054, 0.837877), (0.660940, 0.805591), (0.664389, 0.817007), (0.013151, 0.807890), (0.011899, 0.786177), (0.013152, 0.833514), (0.129560, 0.856239), (0.094472, 0.857756), (0.057026, 0.858819), (0.031711, 0.859351), (0.022806, 0.856736), (0.013333, 0.856346), (0.152428, 0.856210), (0.418848, 0.861935), (0.387974, 0.862172), (0.334114, 0.860014), (0.277081, 0.857733), (0.219674, 0.856797), (0.559476, 0.864497), (0.481969, 0.863237), (0.447848, 0.862702), (0.578300, 0.863381), (0.597041, 0.863683), (0.615948, 0.863150), (0.629667, 0.862856), (0.644946, 0.861541), (0.666140, 0.840891), (0.683833, 0.835951), (0.681164, 0.815461), (0.173159, 0.866140), (0.664574, 0.860730), (0.701208, 0.821597), (0.708918, 0.843677), (0.716141, 0.823970), (0.727809, 0.841638), (0.022826, 0.867707), (0.248087, 0.875208), (0.269382, 0.875983), (0.104131, 0.875445), (0.033841, 0.874766), (0.145276, 0.876279), (0.680584, 0.846643), (0.698517, 0.846656), (0.739956, 0.850690), (0.334445, 0.887200), (0.384297, 0.889319), (0.423324, 0.893071), (0.744030, 0.842357), (0.596533, 0.889413), (0.676911, 0.864289), (0.728600, 0.832486), (0.742547, 0.834406), (0.614660, 0.893679), (0.755111, 0.848491), (0.574320, 0.895137), (0.702139, 0.861864), (0.718636, 0.863131), (0.023231, 0.891294), (0.627906, 0.889426), (0.459490, 0.895856), (0.553187, 0.895288), (0.536020, 0.864539), (0.199443, 0.892349), (0.644385, 0.882549), (0.660649, 0.879100), (0.034841, 0.892347), (0.071238, 0.891426), (0.131856, 0.893000), (0.251924, 0.892993), (0.365476, 0.895525), (0.276651, 0.892169), (0.013003, 0.884247), (0.636913, 0.893477), (0.730758, 0.863159), (0.751197, 0.834171), (0.654619, 0.783280), (0.749544, 0.861554), (0.740237, 0.864700), (0.597662, 0.905568), (0.690235, 0.878312), (0.701323, 0.879946), (0.666304, 0.890189), (0.683646, 0.888024), (0.651416, 0.895070), (0.661678, 0.900515), (0.008951, 0.857043), (0.502932, 0.897563), (0.667987, 0.786338), (0.727299, 0.822471), (0.739868, 0.823577), (0.688539, 0.799752), (0.565655, 0.913179), (0.758824, 0.834799), (0.765438, 0.849733), (0.704537, 0.799673), (0.211583, 0.772249), (0.153004, 0.772367), (0.037812, 0.755316), (0.022692, 0.758866), (0.102074, 0.755409), (0.144634, 0.754804), (0.390830, 0.742069), (0.317592, 0.755182), (0.255366, 0.756009), (0.214385, 0.754683), (0.011448, 0.763636), (0.618523, 0.759195), (0.630002, 0.757776), (0.007684, 0.833129), (0.715393, 0.799391), (0.680535, 0.786175), (0.695797, 0.789518), (0.424169, 0.742578), (0.446429, 0.755549), (0.503878, 0.755968), (0.561473, 0.758680), (0.770795, 0.847189), (0.643320, 0.757566), (0.745819, 0.822136), (0.349072, 0.741030), (0.715026, 0.875285), (0.177002, 0.913495), (0.130819, 0.913684), (0.088121, 0.913601), (0.037142, 0.912372), (0.410340, 0.916650), (0.442788, 0.913552), (0.360051, 0.916395), (0.314940, 0.915713), (0.254900, 0.914433), (0.226529, 0.914957), (0.538157, 0.912592), (0.022406, 0.912339), (0.007908, 0.881494), (0.613213, 0.914136), (0.636397, 0.912481), (0.004343, 0.804371), (0.012454, 0.913743), (0.598370, 0.919273), (0.728551, 0.808312), (0.720503, 0.797054), (0.659919, 0.759889), (0.426976, 0.924044), (0.361941, 0.926760), (0.677353, 0.904387), (0.652317, 0.920753), (0.316215, 0.926123), (0.548430, 0.938371), (0.004124, 0.858817), (0.007277, 0.914011), (0.159165, 0.930103), (0.003647, 0.885603), (0.003191, 0.832545), (0.005841, 0.762045), (0.002371, 0.766767), (0.002298, 0.914167), (0.008630, 0.734244), (0.001120, 0.735834), (0.431690, 0.120520), (0.417901, 0.144018), (0.409709, 0.121780), (0.314754, 0.120565), (0.306611, 0.149377), (0.251421, 0.148798), (0.347159, 0.149662), (0.348069, 0.120196), (0.403459, 0.153081), (0.444007, 0.151830), (0.507713, 0.121718), (0.517486, 0.152371), (0.450911, 0.121039), (0.561029, 0.151995), (0.560358, 0.123133), (0.573382, 0.122695), (0.576674, 0.153598), (0.594663, 0.126371), (0.593412, 0.155256), (0.255179, 0.120739), (0.134446, 0.145929), (0.094818, 0.144292), (0.139474, 0.126745), (0.195353, 0.149174), (0.201493, 0.121282), (0.088917, 0.124141), (0.059751, 0.124116), (0.054551, 0.145433), (0.031743, 0.123919), (0.021320, 0.144957), (0.020034, 0.122628), (0.129550, 0.119752), (0.094158, 0.156216), (0.058120, 0.154956), (0.021567, 0.154175), (0.155486, 0.153957), (0.611974, 0.154642), (0.624377, 0.127563), (0.624798, 0.154316), (0.639438, 0.154890), (0.637490, 0.130815), (0.445858, 0.157880), (0.085458, 0.101040), (0.035692, 0.101592), (0.020572, 0.100096), (0.137197, 0.102406), (0.199058, 0.101764), (0.341777, 0.100365), (0.254325, 0.099971), (0.510122, 0.093315), (0.557606, 0.094335), (0.431057, 0.092119), (0.413610, 0.093578), (0.592533, 0.094216), (0.573990, 0.093834), (0.613262, 0.097882), (0.628448, 0.101970), (0.009843, 0.123921), (0.344732, 0.093232), (0.248150, 0.092789), (0.188015, 0.093197), (0.650712, 0.132663), (0.008623, 0.148944), (0.009942, 0.097924), (0.030274, 0.081850), (0.083524, 0.082710), (0.141847, 0.082429), (0.208011, 0.164644), (0.322266, 0.158038), (0.248012, 0.164568), (0.033568, 0.176073), (0.103208, 0.175175), (0.063811, 0.174852), (0.132490, 0.174227), (0.558515, 0.159943), (0.020098, 0.167271), (0.354540, 0.176231), (0.255511, 0.175656), (0.318868, 0.175665), (0.630012, 0.178222), (0.429036, 0.175730), (0.593736, 0.180217), (0.609759, 0.185111), (0.009499, 0.173009), (0.517711, 0.176631), (0.474492, 0.176364), (0.202443, 0.177809), (0.562709, 0.184890), (0.639167, 0.181011), (0.020249, 0.186083), (0.651582, 0.155968), (0.491164, 0.189306), (0.658454, 0.183521), (0.664113, 0.161574), (0.031289, 0.191134), (0.064236, 0.191096), (0.123672, 0.190157), (0.435273, 0.188878), (0.409420, 0.185865), (0.356504, 0.186878), (0.317257, 0.188170), (0.274816, 0.188745), (0.202069, 0.188889), (0.593878, 0.194012), (0.677338, 0.176038), (0.621800, 0.202403), (0.009014, 0.193324), (0.558157, 0.192757), (0.678353, 0.190751), (0.639521, 0.199779), (0.584088, 0.205846), (0.420811, 0.207340), (0.444382, 0.203045), (0.505664, 0.204440), (0.363762, 0.205892), (0.313525, 0.208295), (0.249854, 0.207679), (0.160477, 0.207083), (0.122713, 0.212340), (0.086233, 0.207098), (0.032119, 0.206874), (0.020313, 0.217315), (0.561376, 0.211306), (0.656309, 0.205270), (0.595466, 0.211863), (0.672983, 0.201150), (0.254518, 0.216224), (0.220785, 0.218616), (0.353184, 0.216134), (0.311945, 0.216984), (0.420730, 0.216204), (0.438844, 0.219599), (0.463063, 0.220958), (0.516723, 0.220416), (0.038293, 0.220156), (0.008306, 0.212889), (0.154776, 0.220324), (0.112634, 0.219755), (0.592040, 0.227288), (0.559036, 0.228612), (0.613162, 0.229878), (0.625978, 0.225852), (0.641414, 0.220224), (0.695084, 0.201827), (0.702385, 0.190583), (0.501074, 0.239019), (0.437032, 0.239984), (0.411133, 0.240824), (0.362251, 0.240659), (0.316984, 0.240245), (0.283341, 0.244006), (0.213225, 0.241406), (0.253201, 0.244302), (0.722407, 0.190957), (0.722386, 0.200212), (0.734542, 0.195710), (0.556399, 0.238857), (0.033191, 0.243480), (0.020435, 0.242397), (0.078364, 0.244845), (0.149603, 0.243999), (0.117569, 0.243795), (0.594246, 0.236827), (0.667197, 0.221578), (0.678676, 0.216163), (0.698155, 0.215003), (0.308314, 0.250188), (0.222408, 0.249398), (0.748019, 0.195012), (0.758033, 0.190566), (0.019734, 0.069200), (0.161343, 0.071824), (0.083987, 0.070134), (0.030734, 0.065569), (0.009455, 0.071492), (0.005356, 0.096220), (0.075742, 0.060701), (0.004779, 0.065792), (0.139043, 0.062105), (0.195589, 0.060128), (0.211891, 0.070970), (0.239571, 0.059679), (0.313871, 0.057809), (0.284215, 0.068833), (0.339749, 0.068537), (0.390449, 0.056528), (0.391205, 0.067477), (0.430796, 0.056713), (0.433785, 0.068165), (0.534720, 0.055234), (0.485153, 0.065853), (0.496701, 0.054357), (0.009593, 0.047384), (0.029765, 0.045579), (0.019534, 0.046156), (0.104021, 0.044261), (0.220769, 0.042634), (0.179990, 0.042642), (0.445740, 0.037002), (0.519329, 0.033253), (0.422420, 0.031118), (0.304601, 0.037189), (0.359126, 0.036803), (0.383003, 0.031388), (0.288229, 0.029420), (0.571558, 0.034224), (0.578254, 0.052022), (0.597469, 0.029835), (0.599669, 0.050398), (0.614214, 0.031244), (0.625203, 0.051123), (0.629292, 0.027803), (0.643790, 0.030527), (0.638521, 0.052671), (0.000373, 0.064327), (0.111758, 0.025827), (0.229091, 0.026300), (0.159572, 0.027452), (0.004097, 0.042535), (0.487826, 0.027796), (0.425862, 0.011979), (0.492673, 0.011442), (0.661895, 0.033726), (0.673760, 0.017344), (0.679763, 0.032281), (0.695739, 0.022236), (0.700194, 0.033441), (0.713159, 0.020997), (0.712878, 0.036290), (0.726761, 0.025051), (0.733514, 0.035763), (0.744013, 0.025040), (0.756233, 0.025013), (0.767285, 0.027388), (0.932246, 0.932784), (0.926298, 0.925898), (0.928882, 0.916661), (0.907424, 0.919194), (0.902819, 0.940064), (0.893134, 0.923857), (0.920903, 0.941101), (0.887550, 0.945305), (0.880294, 0.929711), (0.873040, 0.950977), (0.859430, 0.956662), (0.871222, 0.927194), (0.857904, 0.932054), (0.843734, 0.941778), (0.831842, 0.941887), (0.869742, 0.975200), (0.885941, 0.966887), (0.895751, 0.961677), (0.908947, 0.956602), (0.930303, 0.941497), (0.848983, 0.919702), (0.835172, 0.917804), (0.861920, 0.908464), (0.747875, 0.944963), (0.691370, 0.955546), (0.821741, 0.197639), (0.828274, 0.176027), (0.825977, 0.202846), (0.824914, 0.232252), (0.822221, 0.249868), (0.826493, 0.263956), (0.829536, 0.226101), (0.830621, 0.251813), (0.830996, 0.203664), (0.832754, 0.180804), (0.829216, 0.277894), (0.832921, 0.265414), (0.835065, 0.280978), (0.840253, 0.300098), (0.839496, 0.152091), (0.849641, 0.321195), (0.842319, 0.126685), (0.846218, 0.134053), (0.854848, 0.124536), (0.864801, 0.116468), (0.855987, 0.148977), (0.847638, 0.291929), (0.881151, 0.310661), (0.840675, 0.184076), (0.837347, 0.252033), (0.897540, 0.279682), (0.903033, 0.206888), (0.895784, 0.170543), (0.876734, 0.139850), (0.859081, 0.309047), (0.862728, 0.131635), (0.846548, 0.151420), (0.905532, 0.239763), (0.886811, 0.143698), (0.872865, 0.321678), (0.834067, 0.232324), (0.900029, 0.184278), (0.837681, 0.184741), (0.887511, 0.314174), (0.875753, 0.128231), (0.841463, 0.286482), (0.862264, 0.323430), (0.898395, 0.290013), (0.850837, 0.310296), (0.905611, 0.271723), (0.893163, 0.137484), (0.878603, 0.119467), (0.907409, 0.189778), (0.902681, 0.163670), (0.909450, 0.218835), (0.909103, 0.247011), (0.873245, 0.336473), (0.860962, 0.333085), (0.896123, 0.313048), (0.886167, 0.328265), (0.902815, 0.292841), (0.908394, 0.164988)] (
        interpolation = "vertex"
    )
    rel material:binding = <Material>

    def Material "Material"
    {
        token outputs:surface.connect = <PBRShader.outputs:surface>

        def Shader "PBRShader"
        {
            uniform token info:id = "UsdPreviewSurface"
            color3f inputs:diffuseColor.connect = <../DiffuseTexture.outputs:rgb>
            float inputs:metallic = 0.0
            float inputs:roughness = 0.5
            token outputs:surface
        }

        def Shader "DiffuseTexture"
        {
            uniform token info:id = "UsdUVTexture"
            asset inputs:file = @../textures/d4d7cfa2_texture.png@
            float2 inputs:st.connect = <../PrimvarReader.outputs:result>
            token inputs:wrapS = "repeat"
            token inputs:wrapT = "repeat"
            float3 outputs:rgb
        }

        def Shader "PrimvarReader"
        {
            uniform token info:id = "UsdPrimvarReader_float2"
            token inputs:varname = "st"
            float2 outputs:result
        }
    }
}
